<svg width="611" height="379" viewBox="0 0 611 379" fill="none" xmlns="http://www.w3.org/2000/svg">
<path d="M239.333 40H226V26.6667H219.333V40H206V10H209.333V6.66667H236V10H239.333V40ZM226 20V13.3333H219.333V20H226ZM279.333 36.6667H276V40H246V6.66667H276V10H279.333V20H276V26.6667H279.333V36.6667ZM266 20V13.3333H259.333V20H266ZM266 33.3333V26.6667H259.333V33.3333H266ZM319.333 36.6667H316V40H289.333V36.6667H286V10H289.333V6.66667H316V10H319.333V36.6667ZM306 33.3333V13.3333H299.333V33.3333H306ZM359.333 36.6667H356V40H329.333V36.6667H326V6.66667H339.333V33.3333H346V6.66667H359.333V36.6667ZM399.333 13.3333H389.333V40H376V13.3333H366V6.66667H399.333V13.3333Z" fill="#DE943C"/>
<path d="M43.5 121H41.5V123H23.5V103H41.5V105H43.5V121ZM35.5 119V107H31.5V119H35.5ZM67.5 121H65.5V123H49.5V121H47.5V103H55.5V119H59.5V103H67.5V121ZM91.5 121H89.5V123H71.5V103H89.5V105H91.5V111H89.5V115H91.5V121ZM83.5 111V107H79.5V111H83.5ZM83.5 119V115H79.5V119H83.5ZM115.5 123H95.5V103H103.5V119H115.5V123ZM127.5 123H119.5V103H127.5V123ZM151.5 123H143.5V107H139.5V123H131.5V103H149.5V105H151.5V123ZM187.5 123H179.5V115H175.5V123H167.5V103H175.5V111H179.5V103H187.5V123ZM211.5 123H203.5V115H199.5V123H191.5V105H193.5V103H209.5V105H211.5V123ZM203.5 111V107H199.5V111H203.5ZM235.5 121H233.5V123H215.5V119H227.5V115H217.5V113H215.5V105H217.5V103H235.5V107H223.5V111H233.5V113H235.5V121ZM271.5 121H269.5V123H251.5V119H263.5V115H257.5V111H263.5V107H251.5V103H269.5V105H271.5V111H269.5V115H271.5V121ZM319.5 123H311.5V107H307.5V123H299.5V107H295.5V123H287.5V103H317.5V105H319.5V123ZM343.5 123H335.5V115H331.5V123H323.5V105H325.5V103H341.5V105H343.5V123ZM335.5 111V107H331.5V111H335.5ZM355.5 123H347.5V103H355.5V123ZM379.5 123H371.5V107H367.5V123H359.5V103H377.5V105H379.5V123ZM415.5 107H403.5V111H409.5V115H403.5V123H395.5V105H397.5V103H415.5V107ZM439.5 121H437.5V123H421.5V121H419.5V105H421.5V103H437.5V105H439.5V121ZM431.5 119V107H427.5V119H431.5ZM463.5 123H455.5V115H451.5V123H443.5V103H461.5V105H463.5V111H461.5V115H463.5V123ZM455.5 111V107H451.5V111H455.5ZM499.5 123H491.5V107H487.5V123H479.5V107H475.5V123H467.5V103H497.5V105H499.5V123ZM523.5 121H521.5V123H503.5V119H515.5V115H505.5V113H503.5V105H505.5V103H523.5V107H511.5V111H521.5V113H523.5V121ZM559.5 121H557.5V123H541.5V121H539.5V105H541.5V103H557.5V105H559.5V121ZM551.5 119V107H547.5V119H551.5ZM583.5 107H571.5V111H577.5V115H571.5V123H563.5V105H565.5V103H583.5V107ZM217.5 131H211.5V147H203.5V131H197.5V127H217.5V131ZM241.5 147H233.5V139H229.5V147H221.5V127H239.5V129H241.5V135H239.5V139H241.5V147ZM233.5 135V131H229.5V135H233.5ZM265.5 147H257.5V139H253.5V147H245.5V129H247.5V127H263.5V129H265.5V147ZM257.5 135V131H253.5V135H257.5ZM289.5 147H281.5V131H277.5V147H269.5V127H287.5V129H289.5V147ZM313.5 145H311.5V147H293.5V143H305.5V139H295.5V137H293.5V129H295.5V127H313.5V131H301.5V135H311.5V137H313.5V145ZM337.5 137H335.5V139H325.5V147H317.5V127H335.5V129H337.5V137ZM329.5 135V131H325.5V135H329.5ZM361.5 145H359.5V147H343.5V145H341.5V129H343.5V127H359.5V129H361.5V145ZM353.5 143V131H349.5V143H353.5ZM385.5 147H377.5V139H373.5V147H365.5V127H383.5V129H385.5V135H383.5V139H385.5V147ZM377.5 135V131H373.5V135H377.5ZM409.5 131H403.5V147H395.5V131H389.5V127H409.5V131ZM64.5 187H58.5V203H50.5V187H44.5V183H64.5V187ZM88.5 203H80.5V195H76.5V203H68.5V183H76.5V191H80.5V183H88.5V203ZM112.5 203H94.5V201H92.5V185H94.5V183H112.5V187H100.5V191H106.5V195H100.5V199H112.5V203ZM148.5 201H146.5V203H128.5V183H146.5V185H148.5V201ZM140.5 199V187H136.5V199H140.5ZM172.5 203H164.5V195H160.5V203H152.5V185H154.5V183H170.5V185H172.5V203ZM164.5 191V187H160.5V191H164.5ZM196.5 203H188.5V195H184.5V203H176.5V183H194.5V185H196.5V191H194.5V195H196.5V203ZM188.5 191V187H184.5V191H188.5ZM220.5 187H214.5V203H206.5V187H200.5V183H220.5V187ZM228.742 200.211L228.918 200.48C228.809 200.902 228.676 201.352 228.52 201.828C228.371 202.305 228.203 202.785 228.016 203.27C227.836 203.754 227.645 204.234 227.441 204.711C227.246 205.195 227.051 205.656 226.855 206.094H225.238C225.355 205.617 225.469 205.121 225.578 204.605C225.695 204.09 225.805 203.574 225.906 203.059C226.016 202.551 226.113 202.055 226.199 201.57C226.285 201.078 226.359 200.625 226.422 200.211H228.742ZM262.5 187H256.5V203H248.5V187H242.5V183H262.5V187ZM286.5 203H278.5V195H274.5V203H266.5V183H274.5V191H278.5V183H286.5V203ZM310.5 203H292.5V201H290.5V185H292.5V183H310.5V187H298.5V191H304.5V195H298.5V199H310.5V203ZM346.5 201H344.5V203H326.5V183H344.5V185H346.5V191H344.5V195H346.5V201ZM338.5 191V187H334.5V191H338.5ZM338.5 199V195H334.5V199H338.5ZM370.5 201H368.5V203H352.5V201H350.5V183H358.5V199H362.5V183H370.5V201ZM394.5 201H392.5V203H374.5V199H386.5V195H376.5V193H374.5V185H376.5V183H394.5V187H382.5V191H392.5V193H394.5V201ZM430.5 203H422.5V195H418.5V203H410.5V185H412.5V183H428.5V185H430.5V203ZM422.5 191V187H418.5V191H422.5ZM454.5 203H446.5V187H442.5V203H434.5V183H452.5V185H454.5V203ZM478.5 201H476.5V203H458.5V183H476.5V185H478.5V201ZM470.5 199V187H466.5V199H470.5ZM514.5 187H508.5V203H500.5V187H494.5V183H514.5V187ZM538.5 203H530.5V195H526.5V203H518.5V183H526.5V191H530.5V183H538.5V203ZM562.5 203H544.5V201H542.5V185H544.5V183H562.5V187H550.5V191H556.5V195H550.5V199H562.5V203ZM277.5 227H257.5V207H265.5V223H277.5V227ZM301.5 225H299.5V227H283.5V225H281.5V207H289.5V223H293.5V207H301.5V225ZM325.5 227H317.5V219H313.5V227H305.5V209H307.5V207H323.5V209H325.5V227ZM317.5 215V211H313.5V215H317.5ZM349.5 225H347.5V227H329.5V223H341.5V219H331.5V217H329.5V209H331.5V207H349.5V211H337.5V215H347.5V217H349.5V225ZM73.5 267H67.5V283H59.5V267H53.5V263H73.5V267ZM97.5 283H89.5V275H85.5V283H77.5V263H85.5V271H89.5V263H97.5V283ZM109.5 283H101.5V263H109.5V283ZM133.5 281H131.5V283H113.5V279H125.5V275H115.5V273H113.5V265H115.5V263H133.5V267H121.5V271H131.5V273H133.5V281ZM169.5 281H167.5V283H151.5V281H149.5V265H151.5V263H167.5V265H169.5V281ZM161.5 279V267H157.5V279H161.5ZM193.5 281H191.5V283H175.5V281H173.5V263H181.5V279H185.5V263H193.5V281ZM205.5 283H197.5V263H205.5V283ZM229.5 283H209.5V273H211.5V271H221.5V267H209.5V263H229.5V273H227.5V275H217.5V279H229.5V283ZM277.5 281H275.5V283H245.5V263H253.5V279H257.5V263H265.5V279H269.5V263H277.5V281ZM289.5 283H281.5V263H289.5V283ZM313.5 283H293.5V263H301.5V279H313.5V283ZM337.5 283H317.5V263H325.5V279H337.5V283ZM373.5 267H367.5V283H359.5V267H353.5V263H373.5V267ZM397.5 283H379.5V281H377.5V265H379.5V263H397.5V267H385.5V271H391.5V275H385.5V279H397.5V283ZM421.5 281H419.5V283H401.5V279H413.5V275H403.5V273H401.5V265H403.5V263H421.5V267H409.5V271H419.5V273H421.5V281ZM445.5 267H439.5V283H431.5V267H425.5V263H445.5V267ZM481.5 273H479.5V275H475.5V283H467.5V275H463.5V273H461.5V263H469.5V271H473.5V263H481.5V273ZM505.5 281H503.5V283H487.5V281H485.5V265H487.5V263H503.5V265H505.5V281ZM497.5 279V267H493.5V279H497.5ZM529.5 281H527.5V283H511.5V281H509.5V263H517.5V279H521.5V263H529.5V281ZM553.5 283H545.5V275H541.5V283H533.5V263H551.5V265H553.5V271H551.5V275H553.5V283ZM545.5 271V267H541.5V271H545.5ZM73.5 307H65.5V299H61.5V307H53.5V287H61.5V295H65.5V287H73.5V295H71.5V299H73.5V307ZM97.5 307H89.5V291H85.5V307H77.5V287H95.5V289H97.5V307ZM121.5 305H119.5V307H103.5V305H101.5V289H103.5V287H119.5V289H121.5V305ZM113.5 303V291H109.5V303H113.5ZM157.5 305H155.5V307H125.5V287H133.5V303H137.5V287H145.5V303H149.5V287H157.5V305ZM181.5 307H161.5V287H169.5V303H181.5V307ZM205.5 307H187.5V305H185.5V289H187.5V287H205.5V291H193.5V295H199.5V299H193.5V303H205.5V307ZM229.5 305H227.5V307H209.5V287H227.5V289H229.5V305ZM221.5 303V291H217.5V303H221.5ZM253.5 307H235.5V305H233.5V289H235.5V287H253.5V291H241.5V303H245.5V299H243.5V295H253.5V307ZM277.5 307H259.5V305H257.5V289H259.5V287H277.5V291H265.5V295H271.5V299H265.5V303H277.5V307ZM313.5 305H311.5V307H295.5V305H293.5V289H295.5V287H311.5V289H313.5V305ZM305.5 303V291H301.5V303H305.5ZM337.5 291H325.5V295H331.5V299H325.5V307H317.5V289H319.5V287H337.5V291ZM373.5 307H365.5V299H361.5V307H353.5V289H355.5V287H371.5V289H373.5V307ZM365.5 295V291H361.5V295H365.5ZM397.5 307H377.5V287H385.5V303H397.5V307ZM421.5 307H401.5V287H409.5V303H421.5V307ZM457.5 291H451.5V307H443.5V291H437.5V287H457.5V291ZM481.5 307H473.5V299H469.5V307H461.5V287H469.5V295H473.5V287H481.5V307ZM505.5 307H497.5V299H493.5V307H485.5V287H503.5V289H505.5V295H503.5V299H505.5V307ZM497.5 295V291H493.5V295H497.5ZM529.5 307H511.5V305H509.5V289H511.5V287H529.5V291H517.5V295H523.5V299H517.5V303H529.5V307ZM553.5 307H535.5V305H533.5V289H535.5V287H553.5V291H541.5V295H547.5V299H541.5V303H553.5V307ZM49.5 363H31.5V361H29.5V345H31.5V343H49.5V347H37.5V359H41.5V355H39.5V351H49.5V363ZM73.5 361H71.5V363H55.5V361H53.5V345H55.5V343H71.5V345H73.5V361ZM65.5 359V347H61.5V359H65.5ZM97.5 361H95.5V363H79.5V361H77.5V345H79.5V343H95.5V345H97.5V361ZM89.5 359V347H85.5V359H89.5ZM121.5 361H119.5V363H101.5V343H119.5V345H121.5V361ZM113.5 359V347H109.5V359H113.5ZM157.5 363H137.5V343H145.5V359H157.5V363ZM181.5 361H179.5V363H163.5V361H161.5V343H169.5V359H173.5V343H181.5V361ZM205.5 363H187.5V361H185.5V345H187.5V343H205.5V347H193.5V359H205.5V363ZM229.5 363H221.5V355H217.5V363H209.5V343H217.5V351H221.5V343H229.5V351H227.5V355H229.5V363ZM265.5 363H257.5V355H253.5V363H245.5V345H247.5V343H263.5V345H265.5V363ZM257.5 351V347H253.5V351H257.5ZM289.5 363H281.5V347H277.5V363H269.5V343H287.5V345H289.5V363ZM313.5 361H311.5V363H293.5V343H311.5V345H313.5V361ZM305.5 359V347H301.5V359H305.5ZM349.5 347H343.5V363H335.5V347H329.5V343H349.5V347ZM373.5 363H365.5V355H361.5V363H353.5V343H371.5V345H373.5V351H371.5V355H373.5V363ZM365.5 351V347H361.5V351H365.5ZM397.5 363H389.5V355H385.5V363H377.5V345H379.5V343H395.5V345H397.5V363ZM389.5 351V347H385.5V351H389.5ZM421.5 361H419.5V363H401.5V343H409.5V359H413.5V343H421.5V361ZM445.5 363H427.5V361H425.5V345H427.5V343H445.5V347H433.5V351H439.5V355H433.5V359H445.5V363ZM469.5 363H449.5V343H457.5V359H469.5V363ZM505.5 361H503.5V363H485.5V359H497.5V355H487.5V353H485.5V345H487.5V343H505.5V347H493.5V351H503.5V353H505.5V361ZM529.5 363H521.5V355H517.5V363H509.5V345H511.5V343H527.5V345H529.5V363ZM521.5 351V347H517.5V351H521.5ZM553.5 347H541.5V351H547.5V355H541.5V363H533.5V345H535.5V343H553.5V347ZM577.5 363H559.5V361H557.5V345H559.5V343H577.5V347H565.5V351H571.5V355H565.5V359H577.5V363Z" fill="white"/>
</svg>
