<svg width="201" height="85" viewBox="0 0 201 85" fill="none" xmlns="http://www.w3.org/2000/svg">
<path d="M179.84 26.3328H174.552V31.6667H179.84V26.3328Z" fill="#98B8F2"/>
<path d="M179.84 31.6667H174.552V37.0005H179.84V31.6667Z" fill="#98B8F2"/>
<path d="M179.84 37.0005H174.552V42.3344H179.84V37.0005Z" fill="#98B8F2"/>
<path d="M179.84 42.3344H174.552V47.6656H179.84V42.3344Z" fill="#98B8F2"/>
<path d="M179.84 47.6656H174.552V52.9995H179.84V47.6656Z" fill="#98B8F2"/>
<path d="M179.84 52.9995H174.552V58.3333H179.84V52.9995Z" fill="#98B8F2"/>
<path d="M179.84 58.3333H174.552V63.6672H179.84V58.3333Z" fill="#98B8F2"/>
<path d="M179.84 63.6672H174.552V69.0011H179.84V63.6672Z" fill="#98B8F2"/>
<path d="M179.84 69.0011H174.552V74.3323H179.84V69.0011Z" fill="#98B8F2"/>
<path d="M185.13 15.6678H179.84V21.0016H185.13V15.6678Z" fill="#98B8F2"/>
<path d="M185.13 31.6667H179.84V37.0005H185.13V31.6667Z" fill="#98B8F2"/>
<path d="M185.13 37.0005H179.84V42.3344H185.13V37.0005Z" fill="#98B8F2"/>
<path d="M185.13 42.3344H179.84V47.6656H185.13V42.3344Z" fill="#98B8F2"/>
<path d="M185.13 47.6656H179.84V52.9995H185.13V47.6656Z" fill="#98B8F2"/>
<path d="M185.13 52.9995H179.84V58.3333H185.13V52.9995Z" fill="#98B8F2"/>
<path d="M185.13 58.3333H179.84V63.6672H185.13V58.3333Z" fill="#98B8F2"/>
<path d="M185.13 69.0011H179.84V74.3323H185.13V69.0011Z" fill="#98B8F2"/>
<path d="M185.13 63.6672H179.84V69.0011H185.13V63.6672Z" fill="#98B8F2"/>
<path d="M190.42 42.3344H185.13V47.6656H190.42V42.3344Z" fill="#98B8F2"/>
<path d="M190.42 47.6656H185.13V52.9995H190.42V47.6656Z" fill="#98B8F2"/>
<path d="M190.42 63.6672H185.13V69.0011H190.42V63.6672Z" fill="#98B8F2"/>
<path d="M190.42 58.3333H185.13V63.6672H190.42V58.3333Z" fill="#98B8F2"/>
<path d="M190.42 52.9995H185.13V58.3333H190.42V52.9995Z" fill="#98B8F2"/>
<path d="M195.71 52.9995H190.42V58.3333H195.71V52.9995Z" fill="#98B8F2"/>
<path d="M195.71 47.6656H190.42V52.9995H195.71V47.6656Z" fill="#98B8F2"/>
<path d="M195.71 42.3344H190.42V47.6656H195.71V42.3344Z" fill="#98B8F2"/>
<path d="M195.71 37.0005H190.42V42.3344H195.71V37.0005Z" fill="#98B8F2"/>
<path d="M190.42 37.0005H185.13V42.3344H190.42V37.0005Z" fill="#98B8F2"/>
<path d="M190.42 31.6667H185.13V37.0005H190.42V31.6667Z" fill="#98B8F2"/>
<path d="M190.42 26.3328H185.13V31.6667H190.42V26.3328Z" fill="#98B8F2"/>
<path d="M185.13 26.3328H179.84V31.6667H185.13V26.3328Z" fill="#98B8F2"/>
<path d="M185.13 21.0016H179.84V26.3328H185.13V21.0016Z" fill="#98B8F2"/>
<path d="M126.948 15.6678H121.657V21.0016H126.948V15.6678Z" fill="#98B8F2"/>
<path d="M126.948 21.0016H121.657V26.3328H126.948V21.0016Z" fill="#98B8F2"/>
<path d="M126.948 26.3328H121.657V31.6667H126.948V26.3328Z" fill="#98B8F2"/>
<path d="M126.948 31.6667H121.657V37.0005H126.948V31.6667Z" fill="#98B8F2"/>
<path d="M126.948 37.0005H121.657V42.3344H126.948V37.0005Z" fill="#98B8F2"/>
<path d="M126.948 42.3344H121.657V47.6656H126.948V42.3344Z" fill="#98B8F2"/>
<path d="M126.948 47.6656H121.657V52.9995H126.948V47.6656Z" fill="#98B8F2"/>
<path d="M126.948 52.9995H121.657V58.3333H126.948V52.9995Z" fill="#98B8F2"/>
<path d="M126.948 58.3333H121.657V63.6672H126.948V58.3333Z" fill="#98B8F2"/>
<path d="M126.948 63.6672H121.657V69.0011H126.948V63.6672Z" fill="#98B8F2"/>
<path d="M126.948 69.0011H121.657V74.3323H126.948V69.0011Z" fill="#98B8F2"/>
<path d="M126.948 74.3322H121.657V79.6661H126.948V74.3322Z" fill="#98B8F2"/>
<path d="M74.0525 10.3339H68.7625V15.6678H74.0525V10.3339Z" fill="#98B8F2"/>
<path d="M74.0525 15.6678H68.7625V21.0016H74.0525V15.6678Z" fill="#98B8F2"/>
<path d="M74.0525 21.0016H68.7625V26.3328H74.0525V21.0016Z" fill="#98B8F2"/>
<path d="M74.0525 26.3328H68.7625V31.6667H74.0525V26.3328Z" fill="#98B8F2"/>
<path d="M74.0525 31.6667H68.7625V37.0005H74.0525V31.6667Z" fill="#98B8F2"/>
<path d="M74.0525 37.0005H68.7625V42.3344H74.0525V37.0005Z" fill="#98B8F2"/>
<path d="M74.0525 42.3344H68.7625V47.6656H74.0525V42.3344Z" fill="#98B8F2"/>
<path d="M74.0525 47.6656H68.7625V52.9995H74.0525V47.6656Z" fill="#98B8F2"/>
<path d="M74.0525 52.9995H68.7625V58.3333H74.0525V52.9995Z" fill="#98B8F2"/>
<path d="M74.0525 58.3333H68.7625V63.6672H74.0525V58.3333Z" fill="#98B8F2"/>
<path d="M74.0525 63.6672H68.7625V69.0011H74.0525V63.6672Z" fill="#98B8F2"/>
<path d="M74.0525 69.0011H68.7625V74.3323H74.0525V69.0011Z" fill="#98B8F2"/>
<path d="M21.1574 15.6678H15.8674V21.0016H21.1574V15.6678Z" fill="#98B8F2"/>
<path d="M21.1574 21.0016H15.8674V26.3328H21.1574V21.0016Z" fill="#98B8F2"/>
<path d="M21.1574 26.3328H15.8674V31.6667H21.1574V26.3328Z" fill="#98B8F2"/>
<path d="M21.1574 31.6667H15.8674V37.0005H21.1574V31.6667Z" fill="#98B8F2"/>
<path d="M21.1574 37.0005H15.8674V42.3344H21.1574V37.0005Z" fill="#98B8F2"/>
<path d="M21.1574 42.3344H15.8674V47.6656H21.1574V42.3344Z" fill="#98B8F2"/>
<path d="M21.1574 47.6656H15.8674V52.9995H21.1574V47.6656Z" fill="#98B8F2"/>
<path d="M21.1574 52.9995H15.8674V58.3333H21.1574V52.9995Z" fill="#98B8F2"/>
<path d="M21.1574 58.3333H15.8674V63.6672H21.1574V58.3333Z" fill="#98B8F2"/>
<path d="M21.1574 63.6672H15.8674V69.0011H21.1574V63.6672Z" fill="#98B8F2"/>
<path d="M10.5773 31.6667H5.28729V37.0005H10.5773V31.6667Z" fill="#98B8F2"/>
<path d="M10.5773 37.0005H5.28729V42.3344H10.5773V37.0005Z" fill="#98B8F2"/>
<path d="M10.5773 42.3344H5.28729V47.6656H10.5773V42.3344Z" fill="#98B8F2"/>
<path d="M15.8675 26.3328H10.5775V31.6667H15.8675V26.3328Z" fill="#98B8F2"/>
<path d="M15.8675 31.6667H10.5775V37.0005H15.8675V31.6667Z" fill="#98B8F2"/>
<path d="M15.8675 37.0005H10.5775V42.3344H15.8675V37.0005Z" fill="#98B8F2"/>
<path d="M15.8675 42.3344H10.5775V47.6656H15.8675V42.3344Z" fill="#98B8F2"/>
<path d="M15.8675 47.6656H10.5775V52.9995H15.8675V47.6656Z" fill="#98B8F2"/>
<path d="M15.8675 52.9995H10.5775V58.3333H15.8675V52.9995Z" fill="#98B8F2"/>
<path d="M15.8675 58.3333H10.5775V63.6672H15.8675V58.3333Z" fill="#98B8F2"/>
<path d="M15.8675 63.6672H10.5775V69.0011H15.8675V63.6672Z" fill="#98B8F2"/>
<path d="M15.8675 69.0011H10.5775V74.3323H15.8675V69.0011Z" fill="#98B8F2"/>
<path d="M21.1574 69.0011H15.8674V74.3323H21.1574V69.0011Z" fill="#98B8F2"/>
<path d="M26.4475 15.6678H21.1575V21.0016H26.4475V15.6678Z" fill="#98B8F2"/>
<path d="M26.4475 21.0016H21.1575V26.3328H26.4475V21.0016Z" fill="#98B8F2"/>
<path d="M26.4475 26.3328H21.1575V31.6667H26.4475V26.3328Z" fill="#98B8F2"/>
<path d="M26.4475 31.6667H21.1575V37.0005H26.4475V31.6667Z" fill="#98B8F2"/>
<path d="M26.4475 37.0005H21.1575V42.3344H26.4475V37.0005Z" fill="#98B8F2"/>
<path d="M26.4475 42.3344H21.1575V47.6656H26.4475V42.3344Z" fill="#98B8F2"/>
<path d="M26.4475 47.6656H21.1575V52.9995H26.4475V47.6656Z" fill="#98B8F2"/>
<path d="M26.4475 52.9995H21.1575V58.3333H26.4475V52.9995Z" fill="#98B8F2"/>
<path d="M26.4475 58.3333H21.1575V63.6672H26.4475V58.3333Z" fill="#98B8F2"/>
<path d="M26.4475 63.6672H21.1575V69.0011H26.4475V63.6672Z" fill="#98B8F2"/>
<path d="M26.4475 69.0011H21.1575V74.3323H26.4475V69.0011Z" fill="#98B8F2"/>
<path d="M31.7349 10.3339H26.4476V15.6678H31.7349V10.3339Z" fill="#98B8F2"/>
<path d="M31.7349 15.6678H26.4476V21.0016H31.7349V15.6678Z" fill="#98B8F2"/>
<path d="M31.7349 21.0016H26.4476V26.3328H31.7349V21.0016Z" fill="#98B8F2"/>
<path d="M31.7349 26.3328H26.4476V31.6667H31.7349V26.3328Z" fill="#98B8F2"/>
<path d="M31.7349 31.6667H26.4476V37.0005H31.7349V31.6667Z" fill="#98B8F2"/>
<path d="M31.7349 37.0005H26.4476V42.3344H31.7349V37.0005Z" fill="#98B8F2"/>
<path d="M31.7349 42.3344H26.4476V47.6656H31.7349V42.3344Z" fill="#98B8F2"/>
<path d="M31.7349 47.6656H26.4476V52.9995H31.7349V47.6656Z" fill="#98B8F2"/>
<path d="M31.7349 52.9995H26.4476V58.3333H31.7349V52.9995Z" fill="#98B8F2"/>
<path d="M31.7349 58.3333H26.4476V63.6672H31.7349V58.3333Z" fill="#98B8F2"/>
<path d="M31.7349 63.6672H26.4476V69.0011H31.7349V63.6672Z" fill="#98B8F2"/>
<path d="M31.7349 69.0011H26.4476V74.3323H31.7349V69.0011Z" fill="#98B8F2"/>
<path d="M37.025 10.3339H31.7349V15.6678H37.025V10.3339Z" fill="#98B8F2"/>
<path d="M37.025 15.6678H31.7349V21.0016H37.025V15.6678Z" fill="#98B8F2"/>
<path d="M37.025 21.0016H31.7349V26.3328H37.025V21.0016Z" fill="#98B8F2"/>
<path d="M37.025 26.3328H31.7349V31.6667H37.025V26.3328Z" fill="#98B8F2"/>
<path d="M37.025 31.6667H31.7349V37.0005H37.025V31.6667Z" fill="#98B8F2"/>
<path d="M37.025 37.0005H31.7349V42.3344H37.025V37.0005Z" fill="#98B8F2"/>
<path d="M37.025 42.3344H31.7349V47.6656H37.025V42.3344Z" fill="#98B8F2"/>
<path d="M37.025 47.6656H31.7349V52.9995H37.025V47.6656Z" fill="#98B8F2"/>
<path d="M37.025 52.9995H31.7349V58.3333H37.025V52.9995Z" fill="#98B8F2"/>
<path d="M37.025 58.3333H31.7349V63.6672H37.025V58.3333Z" fill="#98B8F2"/>
<path d="M37.025 63.6672H31.7349V69.0011H37.025V63.6672Z" fill="#98B8F2"/>
<path d="M37.025 69.0011H31.7349V74.3323H37.025V69.0011Z" fill="#98B8F2"/>
<path d="M37.025 74.3322H31.7349V79.6661H37.025V74.3322Z" fill="#98B8F2"/>
<path d="M42.3149 10.3339H37.0248V15.6678H42.3149V10.3339Z" fill="#98B8F2"/>
<path d="M42.3149 15.6678H37.0248V21.0016H42.3149V15.6678Z" fill="#98B8F2"/>
<path d="M42.3149 21.0016H37.0248V26.3328H42.3149V21.0016Z" fill="#98B8F2"/>
<path d="M42.3149 26.3328H37.0248V31.6667H42.3149V26.3328Z" fill="#98B8F2"/>
<path d="M42.3149 31.6667H37.0248V37.0005H42.3149V31.6667Z" fill="#98B8F2"/>
<path d="M42.3149 37.0005H37.0248V42.3344H42.3149V37.0005Z" fill="#98B8F2"/>
<path d="M42.3149 42.3344H37.0248V47.6656H42.3149V42.3344Z" fill="#98B8F2"/>
<path d="M42.3149 47.6656H37.0248V52.9995H42.3149V47.6656Z" fill="#98B8F2"/>
<path d="M42.3149 52.9995H37.0248V58.3333H42.3149V52.9995Z" fill="#98B8F2"/>
<path d="M42.3149 58.3333H37.0248V63.6672H42.3149V58.3333Z" fill="#98B8F2"/>
<path d="M42.3149 63.6672H37.0248V69.0011H42.3149V63.6672Z" fill="#98B8F2"/>
<path d="M42.3149 69.0011H37.0248V74.3323H42.3149V69.0011Z" fill="#98B8F2"/>
<path d="M42.3149 74.3322H37.0248V79.6661H42.3149V74.3322Z" fill="#98B8F2"/>
<path d="M47.605 10.3339H42.3149V15.6678H47.605V10.3339Z" fill="#98B8F2"/>
<path d="M47.605 15.6678H42.3149V21.0016H47.605V15.6678Z" fill="#98B8F2"/>
<path d="M47.605 21.0016H42.3149V26.3328H47.605V21.0016Z" fill="#98B8F2"/>
<path d="M47.605 26.3328H42.3149V31.6667H47.605V26.3328Z" fill="#98B8F2"/>
<path d="M47.605 31.6667H42.3149V37.0005H47.605V31.6667Z" fill="#98B8F2"/>
<path d="M47.605 37.0005H42.3149V42.3344H47.605V37.0005Z" fill="#98B8F2"/>
<path d="M47.605 42.3344H42.3149V47.6656H47.605V42.3344Z" fill="#98B8F2"/>
<path d="M47.605 47.6656H42.3149V52.9995H47.605V47.6656Z" fill="#98B8F2"/>
<path d="M47.605 52.9995H42.3149V58.3333H47.605V52.9995Z" fill="#98B8F2"/>
<path d="M47.605 58.3333H42.3149V63.6672H47.605V58.3333Z" fill="#98B8F2"/>
<path d="M47.605 63.6672H42.3149V69.0011H47.605V63.6672Z" fill="#98B8F2"/>
<path d="M47.605 69.0011H42.3149V74.3323H47.605V69.0011Z" fill="#98B8F2"/>
<path d="M47.605 74.3322H42.3149V79.6661H47.605V74.3322Z" fill="#98B8F2"/>
<path d="M52.895 10.3339H47.605V15.6678H52.895V10.3339Z" fill="#98B8F2"/>
<path d="M52.895 15.6678H47.605V21.0016H52.895V15.6678Z" fill="#98B8F2"/>
<path d="M52.895 21.0016H47.605V26.3328H52.895V21.0016Z" fill="#98B8F2"/>
<path d="M52.895 26.3328H47.605V31.6667H52.895V26.3328Z" fill="#98B8F2"/>
<path d="M52.895 31.6667H47.605V37.0005H52.895V31.6667Z" fill="#98B8F2"/>
<path d="M52.895 37.0005H47.605V42.3344H52.895V37.0005Z" fill="#98B8F2"/>
<path d="M52.895 42.3344H47.605V47.6656H52.895V42.3344Z" fill="#98B8F2"/>
<path d="M52.895 47.6656H47.605V52.9995H52.895V47.6656Z" fill="#98B8F2"/>
<path d="M52.895 52.9995H47.605V58.3333H52.895V52.9995Z" fill="#98B8F2"/>
<path d="M52.895 58.3333H47.605V63.6672H52.895V58.3333Z" fill="#98B8F2"/>
<path d="M52.895 63.6672H47.605V69.0011H52.895V63.6672Z" fill="#98B8F2"/>
<path d="M52.895 69.0011H47.605V74.3323H52.895V69.0011Z" fill="#98B8F2"/>
<path d="M52.895 74.3322H47.605V79.6661H52.895V74.3322Z" fill="#98B8F2"/>
<path d="M58.1823 10.3339H52.895V15.6678H58.1823V10.3339Z" fill="#98B8F2"/>
<path d="M58.1823 15.6678H52.895V21.0016H58.1823V15.6678Z" fill="#98B8F2"/>
<path d="M58.1823 21.0016H52.895V26.3328H58.1823V21.0016Z" fill="#98B8F2"/>
<path d="M58.1823 26.3328H52.895V31.6667H58.1823V26.3328Z" fill="#98B8F2"/>
<path d="M58.1823 31.6667H52.895V37.0005H58.1823V31.6667Z" fill="#98B8F2"/>
<path d="M58.1823 37.0005H52.895V42.3344H58.1823V37.0005Z" fill="#98B8F2"/>
<path d="M58.1823 42.3344H52.895V47.6656H58.1823V42.3344Z" fill="#98B8F2"/>
<path d="M58.1823 47.6656H52.895V52.9995H58.1823V47.6656Z" fill="#98B8F2"/>
<path d="M58.1823 52.9995H52.895V58.3333H58.1823V52.9995Z" fill="#98B8F2"/>
<path d="M58.1823 58.3333H52.895V63.6672H58.1823V58.3333Z" fill="#98B8F2"/>
<path d="M58.1823 63.6672H52.895V69.0011H58.1823V63.6672Z" fill="#98B8F2"/>
<path d="M58.1823 69.0011H52.895V74.3323H58.1823V69.0011Z" fill="#98B8F2"/>
<path d="M58.1823 74.3322H52.895V79.6661H58.1823V74.3322Z" fill="#98B8F2"/>
<path d="M63.4724 10.3339H58.1824V15.6678H63.4724V10.3339Z" fill="#98B8F2"/>
<path d="M63.4724 15.6678H58.1824V21.0016H63.4724V15.6678Z" fill="#98B8F2"/>
<path d="M63.4724 21.0016H58.1824V26.3328H63.4724V21.0016Z" fill="#98B8F2"/>
<path d="M63.4724 26.3328H58.1824V31.6667H63.4724V26.3328Z" fill="#98B8F2"/>
<path d="M63.4724 31.6667H58.1824V37.0005H63.4724V31.6667Z" fill="#98B8F2"/>
<path d="M63.4724 37.0005H58.1824V42.3344H63.4724V37.0005Z" fill="#98B8F2"/>
<path d="M63.4724 42.3344H58.1824V47.6656H63.4724V42.3344Z" fill="#98B8F2"/>
<path d="M63.4724 47.6656H58.1824V52.9995H63.4724V47.6656Z" fill="#98B8F2"/>
<path d="M63.4724 52.9995H58.1824V58.3333H63.4724V52.9995Z" fill="#98B8F2"/>
<path d="M63.4724 58.3333H58.1824V63.6672H63.4724V58.3333Z" fill="#98B8F2"/>
<path d="M63.4724 63.6672H58.1824V69.0011H63.4724V63.6672Z" fill="#98B8F2"/>
<path d="M63.4724 69.0011H58.1824V74.3323H63.4724V69.0011Z" fill="#98B8F2"/>
<path d="M63.4724 74.3322H58.1824V79.6661H63.4724V74.3322Z" fill="#98B8F2"/>
<path d="M68.7625 10.3339H63.4724V15.6678H68.7625V10.3339Z" fill="#98B8F2"/>
<path d="M68.7625 15.6678H63.4724V21.0016H68.7625V15.6678Z" fill="#98B8F2"/>
<path d="M68.7625 21.0016H63.4724V26.3328H68.7625V21.0016Z" fill="#98B8F2"/>
<path d="M68.7625 26.3328H63.4724V31.6667H68.7625V26.3328Z" fill="#98B8F2"/>
<path d="M68.7625 31.6667H63.4724V37.0005H68.7625V31.6667Z" fill="#98B8F2"/>
<path d="M68.7625 37.0005H63.4724V42.3344H68.7625V37.0005Z" fill="#98B8F2"/>
<path d="M68.7625 42.3344H63.4724V47.6656H68.7625V42.3344Z" fill="#98B8F2"/>
<path d="M68.7625 47.6656H63.4724V52.9995H68.7625V47.6656Z" fill="#98B8F2"/>
<path d="M68.7625 52.9995H63.4724V58.3333H68.7625V52.9995Z" fill="#98B8F2"/>
<path d="M68.7625 58.3333H63.4724V63.6672H68.7625V58.3333Z" fill="#98B8F2"/>
<path d="M68.7625 63.6672H63.4724V69.0011H68.7625V63.6672Z" fill="#98B8F2"/>
<path d="M68.7625 69.0011H63.4724V74.3323H68.7625V69.0011Z" fill="#98B8F2"/>
<path d="M68.7625 74.3322H63.4724V79.6661H68.7625V74.3322Z" fill="#98B8F2"/>
<path d="M74.0525 74.3322H68.7625V79.6661H74.0525V74.3322Z" fill="#98B8F2"/>
<path d="M79.3398 10.3339H74.0525V15.6678H79.3398V10.3339Z" fill="#98B8F2"/>
<path d="M79.3398 15.6678H74.0525V21.0016H79.3398V15.6678Z" fill="#98B8F2"/>
<path d="M79.3398 21.0016H74.0525V26.3328H79.3398V21.0016Z" fill="#98B8F2"/>
<path d="M79.3398 26.3328H74.0525V31.6667H79.3398V26.3328Z" fill="#98B8F2"/>
<path d="M79.3398 31.6667H74.0525V37.0005H79.3398V31.6667Z" fill="#98B8F2"/>
<path d="M79.3398 37.0005H74.0525V42.3344H79.3398V37.0005Z" fill="#98B8F2"/>
<path d="M79.3398 42.3344H74.0525V47.6656H79.3398V42.3344Z" fill="#98B8F2"/>
<path d="M79.3398 47.6656H74.0525V52.9995H79.3398V47.6656Z" fill="#98B8F2"/>
<path d="M79.3398 52.9995H74.0525V58.3333H79.3398V52.9995Z" fill="#98B8F2"/>
<path d="M79.3398 58.3333H74.0525V63.6672H79.3398V58.3333Z" fill="#98B8F2"/>
<path d="M79.3398 63.6672H74.0525V69.0011H79.3398V63.6672Z" fill="#98B8F2"/>
<path d="M79.3398 69.0011H74.0525V74.3323H79.3398V69.0011Z" fill="#98B8F2"/>
<path d="M79.3398 74.3322H74.0525V79.6661H79.3398V74.3322Z" fill="#98B8F2"/>
<path d="M84.6299 10.3339H79.3398V15.6678H84.6299V10.3339Z" fill="#98B8F2"/>
<path d="M84.6299 15.6678H79.3398V21.0016H84.6299V15.6678Z" fill="#98B8F2"/>
<path d="M84.6299 21.0016H79.3398V26.3328H84.6299V21.0016Z" fill="#98B8F2"/>
<path d="M84.6299 26.3328H79.3398V31.6667H84.6299V26.3328Z" fill="#98B8F2"/>
<path d="M84.6299 31.6667H79.3398V37.0005H84.6299V31.6667Z" fill="#98B8F2"/>
<path d="M84.6299 37.0005H79.3398V42.3344H84.6299V37.0005Z" fill="#98B8F2"/>
<path d="M84.6299 42.3344H79.3398V47.6656H84.6299V42.3344Z" fill="#98B8F2"/>
<path d="M84.6299 47.6656H79.3398V52.9995H84.6299V47.6656Z" fill="#98B8F2"/>
<path d="M84.6299 52.9995H79.3398V58.3333H84.6299V52.9995Z" fill="#98B8F2"/>
<path d="M84.6299 58.3333H79.3398V63.6672H84.6299V58.3333Z" fill="#98B8F2"/>
<path d="M84.6299 63.6672H79.3398V69.0011H84.6299V63.6672Z" fill="#98B8F2"/>
<path d="M84.6299 69.0011H79.3398V74.3323H84.6299V69.0011Z" fill="#98B8F2"/>
<path d="M84.6299 74.3322H79.3398V79.6661H84.6299V74.3322Z" fill="#98B8F2"/>
<path d="M89.9199 10.3339H84.6299V15.6678H89.9199V10.3339Z" fill="#98B8F2"/>
<path d="M89.9199 15.6678H84.6299V21.0016H89.9199V15.6678Z" fill="#98B8F2"/>
<path d="M89.9199 21.0016H84.6299V26.3328H89.9199V21.0016Z" fill="#98B8F2"/>
<path d="M89.9199 26.3328H84.6299V31.6667H89.9199V26.3328Z" fill="#98B8F2"/>
<path d="M89.9199 31.6667H84.6299V37.0005H89.9199V31.6667Z" fill="#98B8F2"/>
<path d="M89.9199 37.0005H84.6299V42.3344H89.9199V37.0005Z" fill="#98B8F2"/>
<path d="M89.9199 42.3344H84.6299V47.6656H89.9199V42.3344Z" fill="#98B8F2"/>
<path d="M89.9199 47.6656H84.6299V52.9995H89.9199V47.6656Z" fill="#98B8F2"/>
<path d="M89.9199 52.9995H84.6299V58.3333H89.9199V52.9995Z" fill="#98B8F2"/>
<path d="M89.9199 58.3333H84.6299V63.6672H89.9199V58.3333Z" fill="#98B8F2"/>
<path d="M89.9199 63.6672H84.6299V69.0011H89.9199V63.6672Z" fill="#98B8F2"/>
<path d="M89.9199 69.0011H84.6299V74.3323H89.9199V69.0011Z" fill="#98B8F2"/>
<path d="M89.9199 74.3322H84.6299V79.6661H89.9199V74.3322Z" fill="#98B8F2"/>
<path d="M95.2099 10.3339H89.9199V15.6678H95.2099V10.3339Z" fill="#98B8F2"/>
<path d="M95.2099 15.6678H89.9199V21.0016H95.2099V15.6678Z" fill="#98B8F2"/>
<path d="M95.2099 21.0016H89.9199V26.3328H95.2099V21.0016Z" fill="#98B8F2"/>
<path d="M95.2099 26.3328H89.9199V31.6667H95.2099V26.3328Z" fill="#98B8F2"/>
<path d="M95.2099 31.6667H89.9199V37.0005H95.2099V31.6667Z" fill="#98B8F2"/>
<path d="M95.2099 37.0005H89.9199V42.3344H95.2099V37.0005Z" fill="#98B8F2"/>
<path d="M95.2099 42.3344H89.9199V47.6656H95.2099V42.3344Z" fill="#98B8F2"/>
<path d="M95.2099 47.6656H89.9199V52.9995H95.2099V47.6656Z" fill="#98B8F2"/>
<path d="M95.2099 52.9995H89.9199V58.3333H95.2099V52.9995Z" fill="#98B8F2"/>
<path d="M95.2099 58.3333H89.9199V63.6672H95.2099V58.3333Z" fill="#98B8F2"/>
<path d="M95.2099 63.6672H89.9199V69.0011H95.2099V63.6672Z" fill="#98B8F2"/>
<path d="M95.2099 69.0011H89.9199V74.3323H95.2099V69.0011Z" fill="#98B8F2"/>
<path d="M95.2099 74.3322H89.9199V79.6661H95.2099V74.3322Z" fill="#98B8F2"/>
<path d="M100.5 10.3339H95.21V15.6678H100.5V10.3339Z" fill="#98B8F2"/>
<path d="M100.5 15.6678H95.21V21.0016H100.5V15.6678Z" fill="#98B8F2"/>
<path d="M100.5 21.0016H95.21V26.3328H100.5V21.0016Z" fill="#98B8F2"/>
<path d="M100.5 26.3328H95.21V31.6667H100.5V26.3328Z" fill="#98B8F2"/>
<path d="M100.5 31.6667H95.21V37.0005H100.5V31.6667Z" fill="#98B8F2"/>
<path d="M100.5 37.0005H95.21V42.3344H100.5V37.0005Z" fill="#98B8F2"/>
<path d="M100.5 42.3344H95.21V47.6656H100.5V42.3344Z" fill="#98B8F2"/>
<path d="M100.5 47.6656H95.21V52.9995H100.5V47.6656Z" fill="#98B8F2"/>
<path d="M100.5 52.9995H95.21V58.3333H100.5V52.9995Z" fill="#98B8F2"/>
<path d="M100.5 58.3333H95.21V63.6672H100.5V58.3333Z" fill="#98B8F2"/>
<path d="M100.5 63.6672H95.21V69.0011H100.5V63.6672Z" fill="#98B8F2"/>
<path d="M100.5 69.0011H95.21V74.3323H100.5V69.0011Z" fill="#98B8F2"/>
<path d="M100.5 74.3322H95.21V79.6661H100.5V74.3322Z" fill="#98B8F2"/>
<path d="M105.787 10.3339H100.5V15.6678H105.787V10.3339Z" fill="#98B8F2"/>
<path d="M105.787 15.6678H100.5V21.0016H105.787V15.6678Z" fill="#98B8F2"/>
<path d="M105.787 21.0016H100.5V26.3328H105.787V21.0016Z" fill="#98B8F2"/>
<path d="M105.787 26.3328H100.5V31.6667H105.787V26.3328Z" fill="#98B8F2"/>
<path d="M105.787 31.6667H100.5V37.0005H105.787V31.6667Z" fill="#98B8F2"/>
<path d="M105.787 37.0005H100.5V42.3344H105.787V37.0005Z" fill="#98B8F2"/>
<path d="M105.787 42.3344H100.5V47.6656H105.787V42.3344Z" fill="#98B8F2"/>
<path d="M105.787 47.6656H100.5V52.9995H105.787V47.6656Z" fill="#98B8F2"/>
<path d="M105.787 52.9995H100.5V58.3333H105.787V52.9995Z" fill="#98B8F2"/>
<path d="M105.787 58.3333H100.5V63.6672H105.787V58.3333Z" fill="#98B8F2"/>
<path d="M105.787 63.6672H100.5V69.0011H105.787V63.6672Z" fill="#98B8F2"/>
<path d="M105.787 69.0011H100.5V74.3323H105.787V69.0011Z" fill="#98B8F2"/>
<path d="M105.787 74.3322H100.5V79.6661H105.787V74.3322Z" fill="#98B8F2"/>
<path d="M111.077 10.3339H105.787V15.6678H111.077V10.3339Z" fill="#98B8F2"/>
<path d="M111.077 15.6678H105.787V21.0016H111.077V15.6678Z" fill="#98B8F2"/>
<path d="M111.077 21.0016H105.787V26.3328H111.077V21.0016Z" fill="#98B8F2"/>
<path d="M111.077 26.3328H105.787V31.6667H111.077V26.3328Z" fill="#98B8F2"/>
<path d="M111.077 31.6667H105.787V37.0005H111.077V31.6667Z" fill="#98B8F2"/>
<path d="M111.077 37.0005H105.787V42.3344H111.077V37.0005Z" fill="#98B8F2"/>
<path d="M111.077 42.3344H105.787V47.6656H111.077V42.3344Z" fill="#98B8F2"/>
<path d="M111.077 47.6656H105.787V52.9995H111.077V47.6656Z" fill="#98B8F2"/>
<path d="M111.077 52.9995H105.787V58.3333H111.077V52.9995Z" fill="#98B8F2"/>
<path d="M111.077 58.3333H105.787V63.6672H111.077V58.3333Z" fill="#98B8F2"/>
<path d="M111.077 63.6672H105.787V69.0011H111.077V63.6672Z" fill="#98B8F2"/>
<path d="M111.077 69.0011H105.787V74.3323H111.077V69.0011Z" fill="#98B8F2"/>
<path d="M111.077 74.3322H105.787V79.6661H111.077V74.3322Z" fill="#98B8F2"/>
<path d="M116.367 10.3339H111.077V15.6678H116.367V10.3339Z" fill="#98B8F2"/>
<path d="M116.367 15.6678H111.077V21.0016H116.367V15.6678Z" fill="#98B8F2"/>
<path d="M116.367 21.0016H111.077V26.3328H116.367V21.0016Z" fill="#98B8F2"/>
<path d="M116.367 26.3328H111.077V31.6667H116.367V26.3328Z" fill="#98B8F2"/>
<path d="M116.367 31.6667H111.077V37.0005H116.367V31.6667Z" fill="#98B8F2"/>
<path d="M116.367 37.0005H111.077V42.3344H116.367V37.0005Z" fill="#98B8F2"/>
<path d="M116.367 42.3344H111.077V47.6656H116.367V42.3344Z" fill="#98B8F2"/>
<path d="M116.367 47.6656H111.077V52.9995H116.367V47.6656Z" fill="#98B8F2"/>
<path d="M116.367 52.9995H111.077V58.3333H116.367V52.9995Z" fill="#98B8F2"/>
<path d="M116.367 58.3333H111.077V63.6672H116.367V58.3333Z" fill="#98B8F2"/>
<path d="M116.367 63.6672H111.077V69.0011H116.367V63.6672Z" fill="#98B8F2"/>
<path d="M116.367 69.0011H111.077V74.3323H116.367V69.0011Z" fill="#98B8F2"/>
<path d="M116.367 74.3322H111.077V79.6661H116.367V74.3322Z" fill="#98B8F2"/>
<path d="M121.657 74.3322H116.367V79.6661H121.657V74.3322Z" fill="#98B8F2"/>
<path d="M121.657 69.0011H116.367V74.3323H121.657V69.0011Z" fill="#98B8F2"/>
<path d="M121.657 63.6672H116.367V69.0011H121.657V63.6672Z" fill="#98B8F2"/>
<path d="M121.657 58.3333H116.367V63.6672H121.657V58.3333Z" fill="#98B8F2"/>
<path d="M121.657 52.9995H116.367V58.3333H121.657V52.9995Z" fill="#98B8F2"/>
<path d="M121.657 47.6656H116.367V52.9995H121.657V47.6656Z" fill="#98B8F2"/>
<path d="M121.657 42.3344H116.367V47.6656H121.657V42.3344Z" fill="#98B8F2"/>
<path d="M121.657 37.0005H116.367V42.3344H121.657V37.0005Z" fill="#98B8F2"/>
<path d="M121.657 31.6667H116.367V37.0005H121.657V31.6667Z" fill="#98B8F2"/>
<path d="M121.657 26.3328H116.367V31.6667H121.657V26.3328Z" fill="#98B8F2"/>
<path d="M121.657 21.0016H116.367V26.3328H121.657V21.0016Z" fill="#98B8F2"/>
<path d="M121.657 15.6678H116.367V21.0016H121.657V15.6678Z" fill="#98B8F2"/>
<path d="M121.657 10.3339H116.367V15.6678H121.657V10.3339Z" fill="#98B8F2"/>
<path d="M126.948 10.3339H121.657V15.6678H126.948V10.3339Z" fill="#98B8F2"/>
<path d="M132.235 10.3339H126.948V15.6678H132.235V10.3339Z" fill="#98B8F2"/>
<path d="M132.235 15.6678H126.948V21.0016H132.235V15.6678Z" fill="#98B8F2"/>
<path d="M132.235 21.0016H126.948V26.3328H132.235V21.0016Z" fill="#98B8F2"/>
<path d="M132.235 26.3328H126.948V31.6667H132.235V26.3328Z" fill="#98B8F2"/>
<path d="M132.235 31.6667H126.948V37.0005H132.235V31.6667Z" fill="#98B8F2"/>
<path d="M132.235 37.0005H126.948V42.3344H132.235V37.0005Z" fill="#98B8F2"/>
<path d="M132.235 42.3344H126.948V47.6656H132.235V42.3344Z" fill="#98B8F2"/>
<path d="M132.235 47.6656H126.948V52.9995H132.235V47.6656Z" fill="#98B8F2"/>
<path d="M132.235 52.9995H126.948V58.3333H132.235V52.9995Z" fill="#98B8F2"/>
<path d="M132.235 58.3333H126.948V63.6672H132.235V58.3333Z" fill="#98B8F2"/>
<path d="M132.235 63.6672H126.948V69.0011H132.235V63.6672Z" fill="#98B8F2"/>
<path d="M132.235 69.0011H126.948V74.3323H132.235V69.0011Z" fill="#98B8F2"/>
<path d="M132.235 74.3322H126.948V79.6661H132.235V74.3322Z" fill="#98B8F2"/>
<path d="M137.525 10.3339H132.235V15.6678H137.525V10.3339Z" fill="#98B8F2"/>
<path d="M137.525 15.6678H132.235V21.0016H137.525V15.6678Z" fill="#98B8F2"/>
<path d="M137.525 21.0016H132.235V26.3328H137.525V21.0016Z" fill="#98B8F2"/>
<path d="M137.525 26.3328H132.235V31.6667H137.525V26.3328Z" fill="#98B8F2"/>
<path d="M137.525 31.6667H132.235V37.0005H137.525V31.6667Z" fill="#98B8F2"/>
<path d="M137.525 37.0005H132.235V42.3344H137.525V37.0005Z" fill="#98B8F2"/>
<path d="M137.525 42.3344H132.235V47.6656H137.525V42.3344Z" fill="#98B8F2"/>
<path d="M137.525 47.6656H132.235V52.9995H137.525V47.6656Z" fill="#98B8F2"/>
<path d="M137.525 52.9995H132.235V58.3333H137.525V52.9995Z" fill="#98B8F2"/>
<path d="M137.525 58.3333H132.235V63.6672H137.525V58.3333Z" fill="#98B8F2"/>
<path d="M137.525 63.6672H132.235V69.0011H137.525V63.6672Z" fill="#98B8F2"/>
<path d="M137.525 69.0011H132.235V74.3323H137.525V69.0011Z" fill="#98B8F2"/>
<path d="M137.525 74.3322H132.235V79.6661H137.525V74.3322Z" fill="#98B8F2"/>
<path d="M142.815 10.3339H137.525V15.6678H142.815V10.3339Z" fill="#98B8F2"/>
<path d="M142.815 15.6678H137.525V21.0016H142.815V15.6678Z" fill="#98B8F2"/>
<path d="M142.815 21.0016H137.525V26.3328H142.815V21.0016Z" fill="#98B8F2"/>
<path d="M142.815 26.3328H137.525V31.6667H142.815V26.3328Z" fill="#98B8F2"/>
<path d="M142.815 31.6667H137.525V37.0005H142.815V31.6667Z" fill="#98B8F2"/>
<path d="M142.815 37.0005H137.525V42.3344H142.815V37.0005Z" fill="#98B8F2"/>
<path d="M142.815 42.3344H137.525V47.6656H142.815V42.3344Z" fill="#98B8F2"/>
<path d="M142.815 47.6656H137.525V52.9995H142.815V47.6656Z" fill="#98B8F2"/>
<path d="M142.815 52.9995H137.525V58.3333H142.815V52.9995Z" fill="#98B8F2"/>
<path d="M142.815 58.3333H137.525V63.6672H142.815V58.3333Z" fill="#98B8F2"/>
<path d="M142.815 63.6672H137.525V69.0011H142.815V63.6672Z" fill="#98B8F2"/>
<path d="M142.815 69.0011H137.525V74.3323H142.815V69.0011Z" fill="#98B8F2"/>
<path d="M142.815 74.3322H137.525V79.6661H142.815V74.3322Z" fill="#98B8F2"/>
<path d="M148.105 10.3339H142.815V15.6678H148.105V10.3339Z" fill="#98B8F2"/>
<path d="M148.105 15.6678H142.815V21.0016H148.105V15.6678Z" fill="#98B8F2"/>
<path d="M148.105 21.0016H142.815V26.3328H148.105V21.0016Z" fill="#98B8F2"/>
<path d="M148.105 26.3328H142.815V31.6667H148.105V26.3328Z" fill="#98B8F2"/>
<path d="M148.105 31.6667H142.815V37.0005H148.105V31.6667Z" fill="#98B8F2"/>
<path d="M148.105 37.0005H142.815V42.3344H148.105V37.0005Z" fill="#98B8F2"/>
<path d="M148.105 42.3344H142.815V47.6656H148.105V42.3344Z" fill="#98B8F2"/>
<path d="M148.105 52.9995H142.815V58.3333H148.105V52.9995Z" fill="#98B8F2"/>
<path d="M148.105 58.3333H142.815V63.6672H148.105V58.3333Z" fill="#98B8F2"/>
<path d="M148.105 63.6672H142.815V69.0011H148.105V63.6672Z" fill="#98B8F2"/>
<path d="M148.105 69.0011H142.815V74.3323H148.105V69.0011Z" fill="#98B8F2"/>
<path d="M148.105 74.3322H142.815V79.6661H148.105V74.3322Z" fill="#98B8F2"/>
<path d="M153.392 10.3339H148.105V15.6678H153.392V10.3339Z" fill="#98B8F2"/>
<path d="M153.392 15.6678H148.105V21.0016H153.392V15.6678Z" fill="#98B8F2"/>
<path d="M153.392 21.0016H148.105V26.3328H153.392V21.0016Z" fill="#98B8F2"/>
<path d="M153.392 26.3328H148.105V31.6667H153.392V26.3328Z" fill="#98B8F2"/>
<path d="M153.392 31.6667H148.105V37.0005H153.392V31.6667Z" fill="#98B8F2"/>
<path d="M153.392 37.0005H148.105V42.3344H153.392V37.0005Z" fill="#98B8F2"/>
<path d="M153.392 42.3344H148.105V47.6656H153.392V42.3344Z" fill="#98B8F2"/>
<path d="M153.392 52.9995H148.105V58.3333H153.392V52.9995Z" fill="#98B8F2"/>
<path d="M153.392 58.3333H148.105V63.6672H153.392V58.3333Z" fill="#98B8F2"/>
<path d="M153.392 63.6672H148.105V69.0011H153.392V63.6672Z" fill="#98B8F2"/>
<path d="M153.392 69.0011H148.105V74.3323H153.392V69.0011Z" fill="#98B8F2"/>
<path d="M153.392 74.3322H148.105V79.6661H153.392V74.3322Z" fill="#98B8F2"/>
<path d="M158.682 10.3339H153.392V15.6678H158.682V10.3339Z" fill="#98B8F2"/>
<path d="M158.682 15.6678H153.392V21.0016H158.682V15.6678Z" fill="#98B8F2"/>
<path d="M158.682 21.0016H153.392V26.3328H158.682V21.0016Z" fill="#98B8F2"/>
<path d="M158.682 26.3328H153.392V31.6667H158.682V26.3328Z" fill="#98B8F2"/>
<path d="M158.682 31.6667H153.392V37.0005H158.682V31.6667Z" fill="#98B8F2"/>
<path d="M158.682 37.0005H153.392V42.3344H158.682V37.0005Z" fill="#98B8F2"/>
<path d="M158.682 42.3344H153.392V47.6656H158.682V42.3344Z" fill="#98B8F2"/>
<path d="M158.682 52.9995H153.392V58.3333H158.682V52.9995Z" fill="#98B8F2"/>
<path d="M158.682 58.3333H153.392V63.6672H158.682V58.3333Z" fill="#98B8F2"/>
<path d="M158.682 63.6672H153.392V69.0011H158.682V63.6672Z" fill="#98B8F2"/>
<path d="M158.682 74.3322H153.392V79.6661H158.682V74.3322Z" fill="#98B8F2"/>
<path d="M158.682 69.0011H153.392V74.3323H158.682V69.0011Z" fill="#98B8F2"/>
<path d="M163.972 10.3339H158.682V15.6678H163.972V10.3339Z" fill="#98B8F2"/>
<path d="M163.972 15.6678H158.682V21.0016H163.972V15.6678Z" fill="#98B8F2"/>
<path d="M163.972 21.0016H158.682V26.3328H163.972V21.0016Z" fill="#98B8F2"/>
<path d="M163.972 26.3328H158.682V31.6667H163.972V26.3328Z" fill="#98B8F2"/>
<path d="M163.972 31.6667H158.682V37.0005H163.972V31.6667Z" fill="#98B8F2"/>
<path d="M163.972 37.0005H158.682V42.3344H163.972V37.0005Z" fill="#98B8F2"/>
<path d="M163.972 42.3344H158.682V47.6656H163.972V42.3344Z" fill="#98B8F2"/>
<path d="M163.972 52.9995H158.682V58.3333H163.972V52.9995Z" fill="#98B8F2"/>
<path d="M163.972 58.3333H158.682V63.6672H163.972V58.3333Z" fill="#98B8F2"/>
<path d="M163.972 63.6672H158.682V69.0011H163.972V63.6672Z" fill="#98B8F2"/>
<path d="M163.972 69.0011H158.682V74.3323H163.972V69.0011Z" fill="#98B8F2"/>
<path d="M169.262 10.3339H163.972V15.6678H169.262V10.3339Z" fill="#98B8F2"/>
<path d="M169.262 15.6678H163.972V21.0016H169.262V15.6678Z" fill="#98B8F2"/>
<path d="M169.262 21.0016H163.972V26.3328H169.262V21.0016Z" fill="#98B8F2"/>
<path d="M169.262 26.3328H163.972V31.6667H169.262V26.3328Z" fill="#98B8F2"/>
<path d="M169.262 31.6667H163.972V37.0005H169.262V31.6667Z" fill="#98B8F2"/>
<path d="M169.262 37.0005H163.972V42.3344H169.262V37.0005Z" fill="#98B8F2"/>
<path d="M169.262 42.3344H163.972V47.6656H169.262V42.3344Z" fill="#98B8F2"/>
<path d="M169.262 52.9995H163.972V58.3333H169.262V52.9995Z" fill="#98B8F2"/>
<path d="M169.262 58.3333H163.972V63.6672H169.262V58.3333Z" fill="#98B8F2"/>
<path d="M169.262 63.6672H163.972V69.0011H169.262V63.6672Z" fill="#98B8F2"/>
<path d="M169.262 69.0011H163.972V74.3323H169.262V69.0011Z" fill="#98B8F2"/>
<path d="M174.552 10.3339H169.262V15.6678H174.552V10.3339Z" fill="#98B8F2"/>
<path d="M174.552 15.6678H169.262V21.0016H174.552V15.6678Z" fill="#98B8F2"/>
<path d="M179.84 15.6678H174.552V21.0016H179.84V15.6678Z" fill="#98B8F2"/>
<path d="M179.84 21.0016H174.552V26.3328H179.84V21.0016Z" fill="#98B8F2"/>
<path d="M174.552 21.0016H169.262V26.3328H174.552V21.0016Z" fill="#98B8F2"/>
<path d="M174.552 26.3328H169.262V31.6667H174.552V26.3328Z" fill="#98B8F2"/>
<path d="M174.552 31.6667H169.262V37.0005H174.552V31.6667Z" fill="#98B8F2"/>
<path d="M174.552 37.0005H169.262V42.3344H174.552V37.0005Z" fill="#98B8F2"/>
<path d="M174.552 42.3344H169.262V47.6656H174.552V42.3344Z" fill="#98B8F2"/>
<path d="M174.552 69.0011H169.262V74.3323H174.552V69.0011Z" fill="#98B8F2"/>
<path d="M174.552 63.6672H169.262V69.0011H174.552V63.6672Z" fill="#98B8F2"/>
<path d="M174.552 58.3333H169.262V63.6672H174.552V58.3333Z" fill="#98B8F2"/>
<path d="M174.552 52.9995H169.262V58.3333H174.552V52.9995Z" fill="#98B8F2"/>
<path d="M174.552 47.6656H169.262V52.9995H174.552V47.6656Z" fill="#98B8F2"/>
<path d="M169.262 47.6656H163.972V52.9995H169.262V47.6656Z" fill="#98B8F2"/>
<path d="M163.972 47.6656H158.682V52.9995H163.972V47.6656Z" fill="#98B8F2"/>
<path d="M158.682 47.6656H153.392V52.9995H158.682V47.6656Z" fill="#98B8F2"/>
<path d="M153.392 47.6656H148.105V52.9995H153.392V47.6656Z" fill="#98B8F2"/>
<path d="M148.105 47.6656H142.815V52.9995H148.105V47.6656Z" fill="#98B8F2"/>
<path d="M21.1574 10.3339H15.8674V15.6678H21.1574V10.3339Z" fill="black"/>
<path d="M15.8675 74.3322H10.5775V79.6661H15.8675V74.3322Z" fill="black"/>
<path d="M15.8675 21.0016H10.5775V26.3328H15.8675V21.0016Z" fill="black"/>
<path d="M15.8675 15.6678H10.5775V21.0016H15.8675V15.6678Z" fill="black"/>
<path d="M15.8675 10.3339H10.5775V15.6678H15.8675V10.3339Z" fill="black"/>
<path d="M10.5773 74.3322H5.28729V79.6661H10.5773V74.3322Z" fill="black"/>
<path d="M10.5773 69.0011H5.28729V74.3323H10.5773V69.0011Z" fill="black"/>
<path d="M10.5773 63.6672H5.28729V69.0011H10.5773V63.6672Z" fill="black"/>
<path d="M10.5773 58.3333H5.28729V63.6672H10.5773V58.3333Z" fill="black"/>
<path d="M10.5773 52.9995H5.28729V58.3333H10.5773V52.9995Z" fill="black"/>
<path d="M10.5773 47.6656H5.28729V52.9995H10.5773V47.6656Z" fill="black"/>
<path d="M10.5773 26.3328H5.28729V31.6667H10.5773V26.3328Z" fill="black"/>
<path d="M10.5773 21.0016H5.28729V26.3328H10.5773V21.0016Z" fill="black"/>
<path d="M5.28734 47.6656H0V52.9995H5.28734V47.6656Z" fill="black"/>
<path d="M5.28734 42.3344H0V47.6656H5.28734V42.3344Z" fill="black"/>
<path d="M5.28734 37.0005H0V42.3344H5.28734V37.0005Z" fill="black"/>
<path d="M5.28734 31.6667H0V37.0005H5.28734V31.6667Z" fill="black"/>
<path d="M37.025 79.6661H31.7349V85H37.025V79.6661Z" fill="black"/>
<path d="M31.7349 79.6661H26.4476V85H31.7349V79.6661Z" fill="black"/>
<path d="M31.7349 74.3322H26.4476V79.6661H31.7349V74.3322Z" fill="black"/>
<path d="M26.4475 74.3322H21.1575V79.6661H26.4475V74.3322Z" fill="black"/>
<path d="M26.4475 10.3339H21.1575V15.6678H26.4475V10.3339Z" fill="black"/>
<path d="M21.1574 74.3322H15.8674V79.6661H21.1574V74.3322Z" fill="black"/>
<path d="M52.895 79.6661H47.605V85H52.895V79.6661Z" fill="black"/>
<path d="M47.605 79.6661H42.3149V85H47.605V79.6661Z" fill="black"/>
<path d="M42.3149 79.6661H37.0248V85H42.3149V79.6661Z" fill="black"/>
<path d="M63.4724 79.6661H58.1824V85H63.4724V79.6661Z" fill="black"/>
<path d="M58.1823 79.6661H52.895V85H58.1823V79.6661Z" fill="black"/>
<path d="M74.0525 79.6661H68.7625V85H74.0525V79.6661Z" fill="black"/>
<path d="M79.3398 79.6661H74.0525V85H79.3398V79.6661Z" fill="black"/>
<path d="M68.7625 79.6661H63.4724V85H68.7625V79.6661Z" fill="black"/>
<path d="M84.6299 79.6661H79.3398V85H84.6299V79.6661Z" fill="black"/>
<path d="M89.9199 79.6661H84.6299V85H89.9199V79.6661Z" fill="black"/>
<path d="M105.787 79.6661H100.5V85H105.787V79.6661Z" fill="black"/>
<path d="M100.5 79.6661H95.21V85H100.5V79.6661Z" fill="black"/>
<path d="M95.2099 79.6661H89.9199V85H95.2099V79.6661Z" fill="black"/>
<path d="M111.077 79.6661H105.787V85H111.077V79.6661Z" fill="black"/>
<path d="M116.367 79.6661H111.077V85H116.367V79.6661Z" fill="black"/>
<path d="M121.657 79.6661H116.367V85H121.657V79.6661Z" fill="black"/>
<path d="M126.948 79.6661H121.657V85H126.948V79.6661Z" fill="black"/>
<path d="M174.552 74.3322H169.262V79.6661H174.552V74.3322Z" fill="black"/>
<path d="M179.84 5H174.552V10.3339H179.84V5Z" fill="black"/>
<path d="M179.84 74.3322H174.552V79.6661H179.84V74.3322Z" fill="black"/>
<path d="M179.84 10.3339H174.552V15.6678H179.84V10.3339Z" fill="black"/>
<path d="M132.235 79.6661H126.948V85H132.235V79.6661Z" fill="black"/>
<path d="M137.525 79.6661H132.235V85H137.525V79.6661Z" fill="black"/>
<path d="M142.815 79.6661H137.525V85H142.815V79.6661Z" fill="black"/>
<path d="M148.105 79.6661H142.815V85H148.105V79.6661Z" fill="black"/>
<path d="M153.392 79.6661H148.105V85H153.392V79.6661Z" fill="black"/>
<path d="M158.682 79.6661H153.392V85H158.682V79.6661Z" fill="black"/>
<path d="M163.972 74.3322H158.682V79.6661H163.972V74.3322Z" fill="black"/>
<path d="M169.262 74.3322H163.972V79.6661H169.262V74.3322Z" fill="black"/>
<path d="M190.42 10.3339H185.13V15.6678H190.42V10.3339Z" fill="black"/>
<path d="M185.13 74.3322H179.84V79.6661H185.13V74.3322Z" fill="black"/>
<path d="M190.42 21.0016H185.13V26.3328H190.42V21.0016Z" fill="black"/>
<path d="M190.42 15.6678H185.13V21.0016H190.42V15.6678Z" fill="black"/>
<path d="M190.42 74.3322H185.13V79.6661H190.42V74.3322Z" fill="black"/>
<path d="M185.13 10.3339H179.84V15.6678H185.13V10.3339Z" fill="black"/>
<path d="M190.42 69.0011H185.13V74.3323H190.42V69.0011Z" fill="black"/>
<path d="M195.71 21.0016H190.42V26.3328H195.71V21.0016Z" fill="black"/>
<path d="M195.71 58.3333H190.42V63.6672H195.71V58.3333Z" fill="black"/>
<path d="M195.71 26.3328H190.42V31.6667H195.71V26.3328Z" fill="black"/>
<path d="M195.71 69.0011H190.42V74.3323H195.71V69.0011Z" fill="black"/>
<path d="M195.71 63.6672H190.42V69.0011H195.71V63.6672Z" fill="black"/>
<path d="M195.71 31.6667H190.42V37.0005H195.71V31.6667Z" fill="black"/>
<path d="M201 31.6667H195.71V37.0005H201V31.6667Z" fill="black"/>
<path d="M201 52.9995H195.71V58.3333H201V52.9995Z" fill="black"/>
<path d="M201 47.6656H195.71V52.9995H201V47.6656Z" fill="black"/>
<path d="M201 58.3333H195.71V63.6672H201V58.3333Z" fill="black"/>
<path d="M201 42.3344H195.71V47.6656H201V42.3344Z" fill="black"/>
<path d="M201 37.0005H195.71V42.3344H201V37.0005Z" fill="black"/>
<path d="M37.025 5H31.7349V10.3339H37.025V5Z" fill="black"/>
<path d="M31.7349 5H26.4476V10.3339H31.7349V5Z" fill="black"/>
<path d="M52.895 5H47.605V10.3339H52.895V5Z" fill="black"/>
<path d="M47.605 5H42.3149V10.3339H47.605V5Z" fill="black"/>
<path d="M42.3149 5H37.0248V10.3339H42.3149V5Z" fill="black"/>
<path d="M63.4724 5H58.1824V10.3339H63.4724V5Z" fill="black"/>
<path d="M58.1823 5H52.895V10.3339H58.1823V5Z" fill="black"/>
<path d="M74.0525 5H68.7625V10.3339H74.0525V5Z" fill="black"/>
<path d="M79.3398 5H74.0525V10.3339H79.3398V5Z" fill="black"/>
<path d="M84.6299 5H79.3398V10.3339H84.6299V5Z" fill="black"/>
<path d="M89.9199 5H84.6299V10.3339H89.9199V5Z" fill="black"/>
<path d="M95.2099 5H89.9199V10.3339H95.2099V5Z" fill="black"/>
<path d="M105.787 5H100.5V10.3339H105.787V5Z" fill="black"/>
<path d="M100.5 5H95.21V10.3339H100.5V5Z" fill="black"/>
<path d="M68.7625 5H63.4724V10.3339H68.7625V5Z" fill="black"/>
<path d="M116.367 5H111.077V10.3339H116.367V5Z" fill="black"/>
<path d="M111.077 5H105.787V10.3339H111.077V5Z" fill="black"/>
<path d="M121.657 5H116.367V10.3339H121.657V5Z" fill="black"/>
<path d="M132.235 5H126.948V10.3339H132.235V5Z" fill="black"/>
<path d="M126.948 5H121.657V10.3339H126.948V5Z" fill="black"/>
<path d="M174.552 5H169.262V10.3339H174.552V5Z" fill="black"/>
<path d="M137.525 5H132.235V10.3339H137.525V5Z" fill="black"/>
<path d="M148.105 5H142.815V10.3339H148.105V5Z" fill="black"/>
<path d="M142.815 5H137.525V10.3339H142.815V5Z" fill="black"/>
<path d="M153.392 5H148.105V10.3339H153.392V5Z" fill="black"/>
<path d="M158.682 5H153.392V10.3339H158.682V5Z" fill="black"/>
<path d="M163.972 5H158.682V10.3339H163.972V5Z" fill="black"/>
<path d="M169.262 5H163.972V10.3339H169.262V5Z" fill="black"/>
<path d="M26.4475 5H21.1575V10.3339H26.4475V5Z" fill="black"/>
<path d="M77 45.5H75.5V47H68V53H62V38H75.5V39.5H77V45.5ZM71 44V41H68V44H71ZM95 53H80V38H86V50H95V53ZM113 53H107V47H104V53H98V39.5H99.5V38H111.5V39.5H113V53ZM107 44V41H104V44H107ZM131 45.5H129.5V47H126.5V53H120.5V47H117.5V45.5H116V38H122V44H125V38H131V45.5Z" fill="black"/>
<path d="M179.84 21.3328H174.552V26.6667H179.84V21.3328Z" fill="#98B8F2"/>
<path d="M179.84 26.6667H174.552V32.0005H179.84V26.6667Z" fill="#98B8F2"/>
<path d="M179.84 32.0005H174.552V37.3344H179.84V32.0005Z" fill="#98B8F2"/>
<path d="M179.84 37.3344H174.552V42.6656H179.84V37.3344Z" fill="#98B8F2"/>
<path d="M179.84 42.6656H174.552V47.9995H179.84V42.6656Z" fill="#98B8F2"/>
<path d="M179.84 47.9995H174.552V53.3333H179.84V47.9995Z" fill="#98B8F2"/>
<path d="M179.84 53.3333H174.552V58.6672H179.84V53.3333Z" fill="#98B8F2"/>
<path d="M179.84 58.6672H174.552V64.0011H179.84V58.6672Z" fill="#98B8F2"/>
<path d="M179.84 64.0011H174.552V69.3323H179.84V64.0011Z" fill="#98B8F2"/>
<path d="M185.13 10.6678H179.84V16.0016H185.13V10.6678Z" fill="#98B8F2"/>
<path d="M185.13 26.6667H179.84V32.0005H185.13V26.6667Z" fill="#98B8F2"/>
<path d="M185.13 32.0005H179.84V37.3344H185.13V32.0005Z" fill="#98B8F2"/>
<path d="M185.13 37.3344H179.84V42.6656H185.13V37.3344Z" fill="#98B8F2"/>
<path d="M185.13 42.6656H179.84V47.9995H185.13V42.6656Z" fill="#98B8F2"/>
<path d="M185.13 47.9995H179.84V53.3333H185.13V47.9995Z" fill="#98B8F2"/>
<path d="M185.13 53.3333H179.84V58.6672H185.13V53.3333Z" fill="#98B8F2"/>
<path d="M185.13 64.0011H179.84V69.3323H185.13V64.0011Z" fill="#98B8F2"/>
<path d="M185.13 58.6672H179.84V64.0011H185.13V58.6672Z" fill="#98B8F2"/>
<path d="M190.42 37.3344H185.13V42.6656H190.42V37.3344Z" fill="#98B8F2"/>
<path d="M190.42 42.6656H185.13V47.9995H190.42V42.6656Z" fill="#98B8F2"/>
<path d="M190.42 58.6672H185.13V64.0011H190.42V58.6672Z" fill="#98B8F2"/>
<path d="M190.42 53.3333H185.13V58.6672H190.42V53.3333Z" fill="#98B8F2"/>
<path d="M190.42 47.9995H185.13V53.3333H190.42V47.9995Z" fill="#98B8F2"/>
<path d="M195.71 47.9995H190.42V53.3333H195.71V47.9995Z" fill="#98B8F2"/>
<path d="M195.71 42.6656H190.42V47.9995H195.71V42.6656Z" fill="#98B8F2"/>
<path d="M195.71 37.3344H190.42V42.6656H195.71V37.3344Z" fill="#98B8F2"/>
<path d="M195.71 32.0005H190.42V37.3344H195.71V32.0005Z" fill="#98B8F2"/>
<path d="M190.42 32.0005H185.13V37.3344H190.42V32.0005Z" fill="#98B8F2"/>
<path d="M190.42 26.6667H185.13V32.0005H190.42V26.6667Z" fill="#98B8F2"/>
<path d="M190.42 21.3328H185.13V26.6667H190.42V21.3328Z" fill="#98B8F2"/>
<path d="M185.13 21.3328H179.84V26.6667H185.13V21.3328Z" fill="#98B8F2"/>
<path d="M185.13 16.0016H179.84V21.3328H185.13V16.0016Z" fill="#98B8F2"/>
<path d="M126.948 10.6678H121.657V16.0016H126.948V10.6678Z" fill="#98B8F2"/>
<path d="M126.948 16.0016H121.657V21.3328H126.948V16.0016Z" fill="#98B8F2"/>
<path d="M126.948 21.3328H121.657V26.6667H126.948V21.3328Z" fill="#98B8F2"/>
<path d="M126.948 26.6667H121.657V32.0005H126.948V26.6667Z" fill="#98B8F2"/>
<path d="M126.948 32.0005H121.657V37.3344H126.948V32.0005Z" fill="#98B8F2"/>
<path d="M126.948 37.3344H121.657V42.6656H126.948V37.3344Z" fill="#98B8F2"/>
<path d="M126.948 42.6656H121.657V47.9995H126.948V42.6656Z" fill="#98B8F2"/>
<path d="M126.948 47.9995H121.657V53.3333H126.948V47.9995Z" fill="#98B8F2"/>
<path d="M126.948 53.3333H121.657V58.6672H126.948V53.3333Z" fill="#98B8F2"/>
<path d="M126.948 58.6672H121.657V64.0011H126.948V58.6672Z" fill="#98B8F2"/>
<path d="M126.948 64.0011H121.657V69.3323H126.948V64.0011Z" fill="#98B8F2"/>
<path d="M126.948 69.3322H121.657V74.6661H126.948V69.3322Z" fill="#98B8F2"/>
<path d="M74.0525 5.33389H68.7625V10.6678H74.0525V5.33389Z" fill="#98B8F2"/>
<path d="M74.0525 10.6678H68.7625V16.0016H74.0525V10.6678Z" fill="#98B8F2"/>
<path d="M74.0525 16.0016H68.7625V21.3328H74.0525V16.0016Z" fill="#98B8F2"/>
<path d="M74.0525 21.3328H68.7625V26.6667H74.0525V21.3328Z" fill="#98B8F2"/>
<path d="M74.0525 26.6667H68.7625V32.0005H74.0525V26.6667Z" fill="#98B8F2"/>
<path d="M74.0525 32.0005H68.7625V37.3344H74.0525V32.0005Z" fill="#98B8F2"/>
<path d="M74.0525 37.3344H68.7625V42.6656H74.0525V37.3344Z" fill="#98B8F2"/>
<path d="M74.0525 42.6656H68.7625V47.9995H74.0525V42.6656Z" fill="#98B8F2"/>
<path d="M74.0525 47.9995H68.7625V53.3333H74.0525V47.9995Z" fill="#98B8F2"/>
<path d="M74.0525 53.3333H68.7625V58.6672H74.0525V53.3333Z" fill="#98B8F2"/>
<path d="M74.0525 58.6672H68.7625V64.0011H74.0525V58.6672Z" fill="#98B8F2"/>
<path d="M74.0525 64.0011H68.7625V69.3323H74.0525V64.0011Z" fill="#98B8F2"/>
<path d="M21.1574 10.6678H15.8674V16.0016H21.1574V10.6678Z" fill="#98B8F2"/>
<path d="M21.1574 16.0016H15.8674V21.3328H21.1574V16.0016Z" fill="#98B8F2"/>
<path d="M21.1574 21.3328H15.8674V26.6667H21.1574V21.3328Z" fill="#98B8F2"/>
<path d="M21.1574 26.6667H15.8674V32.0005H21.1574V26.6667Z" fill="#98B8F2"/>
<path d="M21.1574 32.0005H15.8674V37.3344H21.1574V32.0005Z" fill="#98B8F2"/>
<path d="M21.1574 37.3344H15.8674V42.6656H21.1574V37.3344Z" fill="#98B8F2"/>
<path d="M21.1574 42.6656H15.8674V47.9995H21.1574V42.6656Z" fill="#98B8F2"/>
<path d="M21.1574 47.9995H15.8674V53.3333H21.1574V47.9995Z" fill="#98B8F2"/>
<path d="M21.1574 53.3333H15.8674V58.6672H21.1574V53.3333Z" fill="#98B8F2"/>
<path d="M21.1574 58.6672H15.8674V64.0011H21.1574V58.6672Z" fill="#98B8F2"/>
<path d="M10.5773 26.6667H5.28729V32.0005H10.5773V26.6667Z" fill="#98B8F2"/>
<path d="M10.5773 32.0005H5.28729V37.3344H10.5773V32.0005Z" fill="#98B8F2"/>
<path d="M10.5773 37.3344H5.28729V42.6656H10.5773V37.3344Z" fill="#98B8F2"/>
<path d="M15.8675 21.3328H10.5775V26.6667H15.8675V21.3328Z" fill="#98B8F2"/>
<path d="M15.8675 26.6667H10.5775V32.0005H15.8675V26.6667Z" fill="#98B8F2"/>
<path d="M15.8675 32.0005H10.5775V37.3344H15.8675V32.0005Z" fill="#98B8F2"/>
<path d="M15.8675 37.3344H10.5775V42.6656H15.8675V37.3344Z" fill="#98B8F2"/>
<path d="M15.8675 42.6656H10.5775V47.9995H15.8675V42.6656Z" fill="#98B8F2"/>
<path d="M15.8675 47.9995H10.5775V53.3333H15.8675V47.9995Z" fill="#98B8F2"/>
<path d="M15.8675 53.3333H10.5775V58.6672H15.8675V53.3333Z" fill="#98B8F2"/>
<path d="M15.8675 58.6672H10.5775V64.0011H15.8675V58.6672Z" fill="#98B8F2"/>
<path d="M15.8675 64.0011H10.5775V69.3323H15.8675V64.0011Z" fill="#98B8F2"/>
<path d="M21.1574 64.0011H15.8674V69.3323H21.1574V64.0011Z" fill="#98B8F2"/>
<path d="M26.4475 10.6678H21.1575V16.0016H26.4475V10.6678Z" fill="#98B8F2"/>
<path d="M26.4475 16.0016H21.1575V21.3328H26.4475V16.0016Z" fill="#98B8F2"/>
<path d="M26.4475 21.3328H21.1575V26.6667H26.4475V21.3328Z" fill="#98B8F2"/>
<path d="M26.4475 26.6667H21.1575V32.0005H26.4475V26.6667Z" fill="#98B8F2"/>
<path d="M26.4475 32.0005H21.1575V37.3344H26.4475V32.0005Z" fill="#98B8F2"/>
<path d="M26.4475 37.3344H21.1575V42.6656H26.4475V37.3344Z" fill="#98B8F2"/>
<path d="M26.4475 42.6656H21.1575V47.9995H26.4475V42.6656Z" fill="#98B8F2"/>
<path d="M26.4475 47.9995H21.1575V53.3333H26.4475V47.9995Z" fill="#98B8F2"/>
<path d="M26.4475 53.3333H21.1575V58.6672H26.4475V53.3333Z" fill="#98B8F2"/>
<path d="M26.4475 58.6672H21.1575V64.0011H26.4475V58.6672Z" fill="#98B8F2"/>
<path d="M26.4475 64.0011H21.1575V69.3323H26.4475V64.0011Z" fill="#98B8F2"/>
<path d="M31.7349 5.33389H26.4476V10.6678H31.7349V5.33389Z" fill="#98B8F2"/>
<path d="M31.7349 10.6678H26.4476V16.0016H31.7349V10.6678Z" fill="#98B8F2"/>
<path d="M31.7349 16.0016H26.4476V21.3328H31.7349V16.0016Z" fill="#98B8F2"/>
<path d="M31.7349 21.3328H26.4476V26.6667H31.7349V21.3328Z" fill="#98B8F2"/>
<path d="M31.7349 26.6667H26.4476V32.0005H31.7349V26.6667Z" fill="#98B8F2"/>
<path d="M31.7349 32.0005H26.4476V37.3344H31.7349V32.0005Z" fill="#98B8F2"/>
<path d="M31.7349 37.3344H26.4476V42.6656H31.7349V37.3344Z" fill="#98B8F2"/>
<path d="M31.7349 42.6656H26.4476V47.9995H31.7349V42.6656Z" fill="#98B8F2"/>
<path d="M31.7349 47.9995H26.4476V53.3333H31.7349V47.9995Z" fill="#98B8F2"/>
<path d="M31.7349 53.3333H26.4476V58.6672H31.7349V53.3333Z" fill="#98B8F2"/>
<path d="M31.7349 58.6672H26.4476V64.0011H31.7349V58.6672Z" fill="#98B8F2"/>
<path d="M31.7349 64.0011H26.4476V69.3323H31.7349V64.0011Z" fill="#98B8F2"/>
<path d="M37.025 5.33389H31.7349V10.6678H37.025V5.33389Z" fill="#98B8F2"/>
<path d="M37.025 10.6678H31.7349V16.0016H37.025V10.6678Z" fill="#98B8F2"/>
<path d="M37.025 16.0016H31.7349V21.3328H37.025V16.0016Z" fill="#98B8F2"/>
<path d="M37.025 21.3328H31.7349V26.6667H37.025V21.3328Z" fill="#98B8F2"/>
<path d="M37.025 26.6667H31.7349V32.0005H37.025V26.6667Z" fill="#98B8F2"/>
<path d="M37.025 32.0005H31.7349V37.3344H37.025V32.0005Z" fill="#98B8F2"/>
<path d="M37.025 37.3344H31.7349V42.6656H37.025V37.3344Z" fill="#98B8F2"/>
<path d="M37.025 42.6656H31.7349V47.9995H37.025V42.6656Z" fill="#98B8F2"/>
<path d="M37.025 47.9995H31.7349V53.3333H37.025V47.9995Z" fill="#98B8F2"/>
<path d="M37.025 53.3333H31.7349V58.6672H37.025V53.3333Z" fill="#98B8F2"/>
<path d="M37.025 58.6672H31.7349V64.0011H37.025V58.6672Z" fill="#98B8F2"/>
<path d="M37.025 64.0011H31.7349V69.3323H37.025V64.0011Z" fill="#98B8F2"/>
<path d="M37.025 69.3322H31.7349V74.6661H37.025V69.3322Z" fill="#98B8F2"/>
<path d="M42.3149 5.33389H37.0248V10.6678H42.3149V5.33389Z" fill="#98B8F2"/>
<path d="M42.3149 10.6678H37.0248V16.0016H42.3149V10.6678Z" fill="#98B8F2"/>
<path d="M42.3149 16.0016H37.0248V21.3328H42.3149V16.0016Z" fill="#98B8F2"/>
<path d="M42.3149 21.3328H37.0248V26.6667H42.3149V21.3328Z" fill="#98B8F2"/>
<path d="M42.3149 26.6667H37.0248V32.0005H42.3149V26.6667Z" fill="#98B8F2"/>
<path d="M42.3149 32.0005H37.0248V37.3344H42.3149V32.0005Z" fill="#98B8F2"/>
<path d="M42.3149 37.3344H37.0248V42.6656H42.3149V37.3344Z" fill="#98B8F2"/>
<path d="M42.3149 42.6656H37.0248V47.9995H42.3149V42.6656Z" fill="#98B8F2"/>
<path d="M42.3149 47.9995H37.0248V53.3333H42.3149V47.9995Z" fill="#98B8F2"/>
<path d="M42.3149 53.3333H37.0248V58.6672H42.3149V53.3333Z" fill="#98B8F2"/>
<path d="M42.3149 58.6672H37.0248V64.0011H42.3149V58.6672Z" fill="#98B8F2"/>
<path d="M42.3149 64.0011H37.0248V69.3323H42.3149V64.0011Z" fill="#98B8F2"/>
<path d="M42.3149 69.3322H37.0248V74.6661H42.3149V69.3322Z" fill="#98B8F2"/>
<path d="M47.605 5.33389H42.3149V10.6678H47.605V5.33389Z" fill="#98B8F2"/>
<path d="M47.605 10.6678H42.3149V16.0016H47.605V10.6678Z" fill="#98B8F2"/>
<path d="M47.605 16.0016H42.3149V21.3328H47.605V16.0016Z" fill="#98B8F2"/>
<path d="M47.605 21.3328H42.3149V26.6667H47.605V21.3328Z" fill="#98B8F2"/>
<path d="M47.605 26.6667H42.3149V32.0005H47.605V26.6667Z" fill="#98B8F2"/>
<path d="M47.605 32.0005H42.3149V37.3344H47.605V32.0005Z" fill="#98B8F2"/>
<path d="M47.605 37.3344H42.3149V42.6656H47.605V37.3344Z" fill="#98B8F2"/>
<path d="M47.605 42.6656H42.3149V47.9995H47.605V42.6656Z" fill="#98B8F2"/>
<path d="M47.605 47.9995H42.3149V53.3333H47.605V47.9995Z" fill="#98B8F2"/>
<path d="M47.605 53.3333H42.3149V58.6672H47.605V53.3333Z" fill="#98B8F2"/>
<path d="M47.605 58.6672H42.3149V64.0011H47.605V58.6672Z" fill="#98B8F2"/>
<path d="M47.605 64.0011H42.3149V69.3323H47.605V64.0011Z" fill="#98B8F2"/>
<path d="M47.605 69.3322H42.3149V74.6661H47.605V69.3322Z" fill="#98B8F2"/>
<path d="M52.895 5.33389H47.605V10.6678H52.895V5.33389Z" fill="#98B8F2"/>
<path d="M52.895 10.6678H47.605V16.0016H52.895V10.6678Z" fill="#98B8F2"/>
<path d="M52.895 16.0016H47.605V21.3328H52.895V16.0016Z" fill="#98B8F2"/>
<path d="M52.895 21.3328H47.605V26.6667H52.895V21.3328Z" fill="#98B8F2"/>
<path d="M52.895 26.6667H47.605V32.0005H52.895V26.6667Z" fill="#98B8F2"/>
<path d="M52.895 32.0005H47.605V37.3344H52.895V32.0005Z" fill="#98B8F2"/>
<path d="M52.895 37.3344H47.605V42.6656H52.895V37.3344Z" fill="#98B8F2"/>
<path d="M52.895 42.6656H47.605V47.9995H52.895V42.6656Z" fill="#98B8F2"/>
<path d="M52.895 47.9995H47.605V53.3333H52.895V47.9995Z" fill="#98B8F2"/>
<path d="M52.895 53.3333H47.605V58.6672H52.895V53.3333Z" fill="#98B8F2"/>
<path d="M52.895 58.6672H47.605V64.0011H52.895V58.6672Z" fill="#98B8F2"/>
<path d="M52.895 64.0011H47.605V69.3323H52.895V64.0011Z" fill="#98B8F2"/>
<path d="M52.895 69.3322H47.605V74.6661H52.895V69.3322Z" fill="#98B8F2"/>
<path d="M58.1823 5.33389H52.895V10.6678H58.1823V5.33389Z" fill="#98B8F2"/>
<path d="M58.1823 10.6678H52.895V16.0016H58.1823V10.6678Z" fill="#98B8F2"/>
<path d="M58.1823 16.0016H52.895V21.3328H58.1823V16.0016Z" fill="#98B8F2"/>
<path d="M58.1823 21.3328H52.895V26.6667H58.1823V21.3328Z" fill="#98B8F2"/>
<path d="M58.1823 26.6667H52.895V32.0005H58.1823V26.6667Z" fill="#98B8F2"/>
<path d="M58.1823 32.0005H52.895V37.3344H58.1823V32.0005Z" fill="#98B8F2"/>
<path d="M58.1823 37.3344H52.895V42.6656H58.1823V37.3344Z" fill="#98B8F2"/>
<path d="M58.1823 42.6656H52.895V47.9995H58.1823V42.6656Z" fill="#98B8F2"/>
<path d="M58.1823 47.9995H52.895V53.3333H58.1823V47.9995Z" fill="#98B8F2"/>
<path d="M58.1823 53.3333H52.895V58.6672H58.1823V53.3333Z" fill="#98B8F2"/>
<path d="M58.1823 58.6672H52.895V64.0011H58.1823V58.6672Z" fill="#98B8F2"/>
<path d="M58.1823 64.0011H52.895V69.3323H58.1823V64.0011Z" fill="#98B8F2"/>
<path d="M58.1823 69.3322H52.895V74.6661H58.1823V69.3322Z" fill="#98B8F2"/>
<path d="M63.4724 5.33389H58.1824V10.6678H63.4724V5.33389Z" fill="#98B8F2"/>
<path d="M63.4724 10.6678H58.1824V16.0016H63.4724V10.6678Z" fill="#98B8F2"/>
<path d="M63.4724 16.0016H58.1824V21.3328H63.4724V16.0016Z" fill="#98B8F2"/>
<path d="M63.4724 21.3328H58.1824V26.6667H63.4724V21.3328Z" fill="#98B8F2"/>
<path d="M63.4724 26.6667H58.1824V32.0005H63.4724V26.6667Z" fill="#98B8F2"/>
<path d="M63.4724 32.0005H58.1824V37.3344H63.4724V32.0005Z" fill="#98B8F2"/>
<path d="M63.4724 37.3344H58.1824V42.6656H63.4724V37.3344Z" fill="#98B8F2"/>
<path d="M63.4724 42.6656H58.1824V47.9995H63.4724V42.6656Z" fill="#98B8F2"/>
<path d="M63.4724 47.9995H58.1824V53.3333H63.4724V47.9995Z" fill="#98B8F2"/>
<path d="M63.4724 53.3333H58.1824V58.6672H63.4724V53.3333Z" fill="#98B8F2"/>
<path d="M63.4724 58.6672H58.1824V64.0011H63.4724V58.6672Z" fill="#98B8F2"/>
<path d="M63.4724 64.0011H58.1824V69.3323H63.4724V64.0011Z" fill="#98B8F2"/>
<path d="M63.4724 69.3322H58.1824V74.6661H63.4724V69.3322Z" fill="#98B8F2"/>
<path d="M68.7625 5.33389H63.4724V10.6678H68.7625V5.33389Z" fill="#98B8F2"/>
<path d="M68.7625 10.6678H63.4724V16.0016H68.7625V10.6678Z" fill="#98B8F2"/>
<path d="M68.7625 16.0016H63.4724V21.3328H68.7625V16.0016Z" fill="#98B8F2"/>
<path d="M68.7625 21.3328H63.4724V26.6667H68.7625V21.3328Z" fill="#98B8F2"/>
<path d="M68.7625 26.6667H63.4724V32.0005H68.7625V26.6667Z" fill="#98B8F2"/>
<path d="M68.7625 32.0005H63.4724V37.3344H68.7625V32.0005Z" fill="#98B8F2"/>
<path d="M68.7625 37.3344H63.4724V42.6656H68.7625V37.3344Z" fill="#98B8F2"/>
<path d="M68.7625 42.6656H63.4724V47.9995H68.7625V42.6656Z" fill="#98B8F2"/>
<path d="M68.7625 47.9995H63.4724V53.3333H68.7625V47.9995Z" fill="#98B8F2"/>
<path d="M68.7625 53.3333H63.4724V58.6672H68.7625V53.3333Z" fill="#98B8F2"/>
<path d="M68.7625 58.6672H63.4724V64.0011H68.7625V58.6672Z" fill="#98B8F2"/>
<path d="M68.7625 64.0011H63.4724V69.3323H68.7625V64.0011Z" fill="#98B8F2"/>
<path d="M68.7625 69.3322H63.4724V74.6661H68.7625V69.3322Z" fill="#98B8F2"/>
<path d="M74.0525 69.3322H68.7625V74.6661H74.0525V69.3322Z" fill="#98B8F2"/>
<path d="M79.3398 5.33389H74.0525V10.6678H79.3398V5.33389Z" fill="#98B8F2"/>
<path d="M79.3398 10.6678H74.0525V16.0016H79.3398V10.6678Z" fill="#98B8F2"/>
<path d="M79.3398 16.0016H74.0525V21.3328H79.3398V16.0016Z" fill="#98B8F2"/>
<path d="M79.3398 21.3328H74.0525V26.6667H79.3398V21.3328Z" fill="#98B8F2"/>
<path d="M79.3398 26.6667H74.0525V32.0005H79.3398V26.6667Z" fill="#98B8F2"/>
<path d="M79.3398 32.0005H74.0525V37.3344H79.3398V32.0005Z" fill="#98B8F2"/>
<path d="M79.3398 37.3344H74.0525V42.6656H79.3398V37.3344Z" fill="#98B8F2"/>
<path d="M79.3398 42.6656H74.0525V47.9995H79.3398V42.6656Z" fill="#98B8F2"/>
<path d="M79.3398 47.9995H74.0525V53.3333H79.3398V47.9995Z" fill="#98B8F2"/>
<path d="M79.3398 53.3333H74.0525V58.6672H79.3398V53.3333Z" fill="#98B8F2"/>
<path d="M79.3398 58.6672H74.0525V64.0011H79.3398V58.6672Z" fill="#98B8F2"/>
<path d="M79.3398 64.0011H74.0525V69.3323H79.3398V64.0011Z" fill="#98B8F2"/>
<path d="M79.3398 69.3322H74.0525V74.6661H79.3398V69.3322Z" fill="#98B8F2"/>
<path d="M84.6299 5.33389H79.3398V10.6678H84.6299V5.33389Z" fill="#98B8F2"/>
<path d="M84.6299 10.6678H79.3398V16.0016H84.6299V10.6678Z" fill="#98B8F2"/>
<path d="M84.6299 16.0016H79.3398V21.3328H84.6299V16.0016Z" fill="#98B8F2"/>
<path d="M84.6299 21.3328H79.3398V26.6667H84.6299V21.3328Z" fill="#98B8F2"/>
<path d="M84.6299 26.6667H79.3398V32.0005H84.6299V26.6667Z" fill="#98B8F2"/>
<path d="M84.6299 32.0005H79.3398V37.3344H84.6299V32.0005Z" fill="#98B8F2"/>
<path d="M84.6299 37.3344H79.3398V42.6656H84.6299V37.3344Z" fill="#98B8F2"/>
<path d="M84.6299 42.6656H79.3398V47.9995H84.6299V42.6656Z" fill="#98B8F2"/>
<path d="M84.6299 47.9995H79.3398V53.3333H84.6299V47.9995Z" fill="#98B8F2"/>
<path d="M84.6299 53.3333H79.3398V58.6672H84.6299V53.3333Z" fill="#98B8F2"/>
<path d="M84.6299 58.6672H79.3398V64.0011H84.6299V58.6672Z" fill="#98B8F2"/>
<path d="M84.6299 64.0011H79.3398V69.3323H84.6299V64.0011Z" fill="#98B8F2"/>
<path d="M84.6299 69.3322H79.3398V74.6661H84.6299V69.3322Z" fill="#98B8F2"/>
<path d="M89.9199 5.33389H84.6299V10.6678H89.9199V5.33389Z" fill="#98B8F2"/>
<path d="M89.9199 10.6678H84.6299V16.0016H89.9199V10.6678Z" fill="#98B8F2"/>
<path d="M89.9199 16.0016H84.6299V21.3328H89.9199V16.0016Z" fill="#98B8F2"/>
<path d="M89.9199 21.3328H84.6299V26.6667H89.9199V21.3328Z" fill="#98B8F2"/>
<path d="M89.9199 26.6667H84.6299V32.0005H89.9199V26.6667Z" fill="#98B8F2"/>
<path d="M89.9199 32.0005H84.6299V37.3344H89.9199V32.0005Z" fill="#98B8F2"/>
<path d="M89.9199 37.3344H84.6299V42.6656H89.9199V37.3344Z" fill="#98B8F2"/>
<path d="M89.9199 42.6656H84.6299V47.9995H89.9199V42.6656Z" fill="#98B8F2"/>
<path d="M89.9199 47.9995H84.6299V53.3333H89.9199V47.9995Z" fill="#98B8F2"/>
<path d="M89.9199 53.3333H84.6299V58.6672H89.9199V53.3333Z" fill="#98B8F2"/>
<path d="M89.9199 58.6672H84.6299V64.0011H89.9199V58.6672Z" fill="#98B8F2"/>
<path d="M89.9199 64.0011H84.6299V69.3323H89.9199V64.0011Z" fill="#98B8F2"/>
<path d="M89.9199 69.3322H84.6299V74.6661H89.9199V69.3322Z" fill="#98B8F2"/>
<path d="M95.2099 5.33389H89.9199V10.6678H95.2099V5.33389Z" fill="#98B8F2"/>
<path d="M95.2099 10.6678H89.9199V16.0016H95.2099V10.6678Z" fill="#98B8F2"/>
<path d="M95.2099 16.0016H89.9199V21.3328H95.2099V16.0016Z" fill="#98B8F2"/>
<path d="M95.2099 21.3328H89.9199V26.6667H95.2099V21.3328Z" fill="#98B8F2"/>
<path d="M95.2099 26.6667H89.9199V32.0005H95.2099V26.6667Z" fill="#98B8F2"/>
<path d="M95.2099 32.0005H89.9199V37.3344H95.2099V32.0005Z" fill="#98B8F2"/>
<path d="M95.2099 37.3344H89.9199V42.6656H95.2099V37.3344Z" fill="#98B8F2"/>
<path d="M95.2099 42.6656H89.9199V47.9995H95.2099V42.6656Z" fill="#98B8F2"/>
<path d="M95.2099 47.9995H89.9199V53.3333H95.2099V47.9995Z" fill="#98B8F2"/>
<path d="M95.2099 53.3333H89.9199V58.6672H95.2099V53.3333Z" fill="#98B8F2"/>
<path d="M95.2099 58.6672H89.9199V64.0011H95.2099V58.6672Z" fill="#98B8F2"/>
<path d="M95.2099 64.0011H89.9199V69.3323H95.2099V64.0011Z" fill="#98B8F2"/>
<path d="M95.2099 69.3322H89.9199V74.6661H95.2099V69.3322Z" fill="#98B8F2"/>
<path d="M100.5 5.33389H95.21V10.6678H100.5V5.33389Z" fill="#98B8F2"/>
<path d="M100.5 10.6678H95.21V16.0016H100.5V10.6678Z" fill="#98B8F2"/>
<path d="M100.5 16.0016H95.21V21.3328H100.5V16.0016Z" fill="#98B8F2"/>
<path d="M100.5 21.3328H95.21V26.6667H100.5V21.3328Z" fill="#98B8F2"/>
<path d="M100.5 26.6667H95.21V32.0005H100.5V26.6667Z" fill="#98B8F2"/>
<path d="M100.5 32.0005H95.21V37.3344H100.5V32.0005Z" fill="#98B8F2"/>
<path d="M100.5 37.3344H95.21V42.6656H100.5V37.3344Z" fill="#98B8F2"/>
<path d="M100.5 42.6656H95.21V47.9995H100.5V42.6656Z" fill="#98B8F2"/>
<path d="M100.5 47.9995H95.21V53.3333H100.5V47.9995Z" fill="#98B8F2"/>
<path d="M100.5 53.3333H95.21V58.6672H100.5V53.3333Z" fill="#98B8F2"/>
<path d="M100.5 58.6672H95.21V64.0011H100.5V58.6672Z" fill="#98B8F2"/>
<path d="M100.5 64.0011H95.21V69.3323H100.5V64.0011Z" fill="#98B8F2"/>
<path d="M100.5 69.3322H95.21V74.6661H100.5V69.3322Z" fill="#98B8F2"/>
<path d="M105.787 5.33389H100.5V10.6678H105.787V5.33389Z" fill="#98B8F2"/>
<path d="M105.787 10.6678H100.5V16.0016H105.787V10.6678Z" fill="#98B8F2"/>
<path d="M105.787 16.0016H100.5V21.3328H105.787V16.0016Z" fill="#98B8F2"/>
<path d="M105.787 21.3328H100.5V26.6667H105.787V21.3328Z" fill="#98B8F2"/>
<path d="M105.787 26.6667H100.5V32.0005H105.787V26.6667Z" fill="#98B8F2"/>
<path d="M105.787 32.0005H100.5V37.3344H105.787V32.0005Z" fill="#98B8F2"/>
<path d="M105.787 37.3344H100.5V42.6656H105.787V37.3344Z" fill="#98B8F2"/>
<path d="M105.787 42.6656H100.5V47.9995H105.787V42.6656Z" fill="#98B8F2"/>
<path d="M105.787 47.9995H100.5V53.3333H105.787V47.9995Z" fill="#98B8F2"/>
<path d="M105.787 53.3333H100.5V58.6672H105.787V53.3333Z" fill="#98B8F2"/>
<path d="M105.787 58.6672H100.5V64.0011H105.787V58.6672Z" fill="#98B8F2"/>
<path d="M105.787 64.0011H100.5V69.3323H105.787V64.0011Z" fill="#98B8F2"/>
<path d="M105.787 69.3322H100.5V74.6661H105.787V69.3322Z" fill="#98B8F2"/>
<path d="M111.077 5.33389H105.787V10.6678H111.077V5.33389Z" fill="#98B8F2"/>
<path d="M111.077 10.6678H105.787V16.0016H111.077V10.6678Z" fill="#98B8F2"/>
<path d="M111.077 16.0016H105.787V21.3328H111.077V16.0016Z" fill="#98B8F2"/>
<path d="M111.077 21.3328H105.787V26.6667H111.077V21.3328Z" fill="#98B8F2"/>
<path d="M111.077 26.6667H105.787V32.0005H111.077V26.6667Z" fill="#98B8F2"/>
<path d="M111.077 32.0005H105.787V37.3344H111.077V32.0005Z" fill="#98B8F2"/>
<path d="M111.077 37.3344H105.787V42.6656H111.077V37.3344Z" fill="#98B8F2"/>
<path d="M111.077 42.6656H105.787V47.9995H111.077V42.6656Z" fill="#98B8F2"/>
<path d="M111.077 47.9995H105.787V53.3333H111.077V47.9995Z" fill="#98B8F2"/>
<path d="M111.077 53.3333H105.787V58.6672H111.077V53.3333Z" fill="#98B8F2"/>
<path d="M111.077 58.6672H105.787V64.0011H111.077V58.6672Z" fill="#98B8F2"/>
<path d="M111.077 64.0011H105.787V69.3323H111.077V64.0011Z" fill="#98B8F2"/>
<path d="M111.077 69.3322H105.787V74.6661H111.077V69.3322Z" fill="#98B8F2"/>
<path d="M116.367 5.33389H111.077V10.6678H116.367V5.33389Z" fill="#98B8F2"/>
<path d="M116.367 10.6678H111.077V16.0016H116.367V10.6678Z" fill="#98B8F2"/>
<path d="M116.367 16.0016H111.077V21.3328H116.367V16.0016Z" fill="#98B8F2"/>
<path d="M116.367 21.3328H111.077V26.6667H116.367V21.3328Z" fill="#98B8F2"/>
<path d="M116.367 26.6667H111.077V32.0005H116.367V26.6667Z" fill="#98B8F2"/>
<path d="M116.367 32.0005H111.077V37.3344H116.367V32.0005Z" fill="#98B8F2"/>
<path d="M116.367 37.3344H111.077V42.6656H116.367V37.3344Z" fill="#98B8F2"/>
<path d="M116.367 42.6656H111.077V47.9995H116.367V42.6656Z" fill="#98B8F2"/>
<path d="M116.367 47.9995H111.077V53.3333H116.367V47.9995Z" fill="#98B8F2"/>
<path d="M116.367 53.3333H111.077V58.6672H116.367V53.3333Z" fill="#98B8F2"/>
<path d="M116.367 58.6672H111.077V64.0011H116.367V58.6672Z" fill="#98B8F2"/>
<path d="M116.367 64.0011H111.077V69.3323H116.367V64.0011Z" fill="#98B8F2"/>
<path d="M116.367 69.3322H111.077V74.6661H116.367V69.3322Z" fill="#98B8F2"/>
<path d="M121.657 69.3322H116.367V74.6661H121.657V69.3322Z" fill="#98B8F2"/>
<path d="M121.657 64.0011H116.367V69.3323H121.657V64.0011Z" fill="#98B8F2"/>
<path d="M121.657 58.6672H116.367V64.0011H121.657V58.6672Z" fill="#98B8F2"/>
<path d="M121.657 53.3333H116.367V58.6672H121.657V53.3333Z" fill="#98B8F2"/>
<path d="M121.657 47.9995H116.367V53.3333H121.657V47.9995Z" fill="#98B8F2"/>
<path d="M121.657 42.6656H116.367V47.9995H121.657V42.6656Z" fill="#98B8F2"/>
<path d="M121.657 37.3344H116.367V42.6656H121.657V37.3344Z" fill="#98B8F2"/>
<path d="M121.657 32.0005H116.367V37.3344H121.657V32.0005Z" fill="#98B8F2"/>
<path d="M121.657 26.6667H116.367V32.0005H121.657V26.6667Z" fill="#98B8F2"/>
<path d="M121.657 21.3328H116.367V26.6667H121.657V21.3328Z" fill="#98B8F2"/>
<path d="M121.657 16.0016H116.367V21.3328H121.657V16.0016Z" fill="#98B8F2"/>
<path d="M121.657 10.6678H116.367V16.0016H121.657V10.6678Z" fill="#98B8F2"/>
<path d="M121.657 5.33389H116.367V10.6678H121.657V5.33389Z" fill="#98B8F2"/>
<path d="M126.948 5.33389H121.657V10.6678H126.948V5.33389Z" fill="#98B8F2"/>
<path d="M132.235 5.33389H126.948V10.6678H132.235V5.33389Z" fill="#98B8F2"/>
<path d="M132.235 10.6678H126.948V16.0016H132.235V10.6678Z" fill="#98B8F2"/>
<path d="M132.235 16.0016H126.948V21.3328H132.235V16.0016Z" fill="#98B8F2"/>
<path d="M132.235 21.3328H126.948V26.6667H132.235V21.3328Z" fill="#98B8F2"/>
<path d="M132.235 26.6667H126.948V32.0005H132.235V26.6667Z" fill="#98B8F2"/>
<path d="M132.235 32.0005H126.948V37.3344H132.235V32.0005Z" fill="#98B8F2"/>
<path d="M132.235 37.3344H126.948V42.6656H132.235V37.3344Z" fill="#98B8F2"/>
<path d="M132.235 42.6656H126.948V47.9995H132.235V42.6656Z" fill="#98B8F2"/>
<path d="M132.235 47.9995H126.948V53.3333H132.235V47.9995Z" fill="#98B8F2"/>
<path d="M132.235 53.3333H126.948V58.6672H132.235V53.3333Z" fill="#98B8F2"/>
<path d="M132.235 58.6672H126.948V64.0011H132.235V58.6672Z" fill="#98B8F2"/>
<path d="M132.235 64.0011H126.948V69.3323H132.235V64.0011Z" fill="#98B8F2"/>
<path d="M132.235 69.3322H126.948V74.6661H132.235V69.3322Z" fill="#98B8F2"/>
<path d="M137.525 5.33389H132.235V10.6678H137.525V5.33389Z" fill="#98B8F2"/>
<path d="M137.525 10.6678H132.235V16.0016H137.525V10.6678Z" fill="#98B8F2"/>
<path d="M137.525 16.0016H132.235V21.3328H137.525V16.0016Z" fill="#98B8F2"/>
<path d="M137.525 21.3328H132.235V26.6667H137.525V21.3328Z" fill="#98B8F2"/>
<path d="M137.525 26.6667H132.235V32.0005H137.525V26.6667Z" fill="#98B8F2"/>
<path d="M137.525 32.0005H132.235V37.3344H137.525V32.0005Z" fill="#98B8F2"/>
<path d="M137.525 37.3344H132.235V42.6656H137.525V37.3344Z" fill="#98B8F2"/>
<path d="M137.525 42.6656H132.235V47.9995H137.525V42.6656Z" fill="#98B8F2"/>
<path d="M137.525 47.9995H132.235V53.3333H137.525V47.9995Z" fill="#98B8F2"/>
<path d="M137.525 53.3333H132.235V58.6672H137.525V53.3333Z" fill="#98B8F2"/>
<path d="M137.525 58.6672H132.235V64.0011H137.525V58.6672Z" fill="#98B8F2"/>
<path d="M137.525 64.0011H132.235V69.3323H137.525V64.0011Z" fill="#98B8F2"/>
<path d="M137.525 69.3322H132.235V74.6661H137.525V69.3322Z" fill="#98B8F2"/>
<path d="M142.815 5.33389H137.525V10.6678H142.815V5.33389Z" fill="#98B8F2"/>
<path d="M142.815 10.6678H137.525V16.0016H142.815V10.6678Z" fill="#98B8F2"/>
<path d="M142.815 16.0016H137.525V21.3328H142.815V16.0016Z" fill="#98B8F2"/>
<path d="M142.815 21.3328H137.525V26.6667H142.815V21.3328Z" fill="#98B8F2"/>
<path d="M142.815 26.6667H137.525V32.0005H142.815V26.6667Z" fill="#98B8F2"/>
<path d="M142.815 32.0005H137.525V37.3344H142.815V32.0005Z" fill="#98B8F2"/>
<path d="M142.815 37.3344H137.525V42.6656H142.815V37.3344Z" fill="#98B8F2"/>
<path d="M142.815 42.6656H137.525V47.9995H142.815V42.6656Z" fill="#98B8F2"/>
<path d="M142.815 47.9995H137.525V53.3333H142.815V47.9995Z" fill="#98B8F2"/>
<path d="M142.815 53.3333H137.525V58.6672H142.815V53.3333Z" fill="#98B8F2"/>
<path d="M142.815 58.6672H137.525V64.0011H142.815V58.6672Z" fill="#98B8F2"/>
<path d="M142.815 64.0011H137.525V69.3323H142.815V64.0011Z" fill="#98B8F2"/>
<path d="M142.815 69.3322H137.525V74.6661H142.815V69.3322Z" fill="#98B8F2"/>
<path d="M148.105 5.33389H142.815V10.6678H148.105V5.33389Z" fill="#98B8F2"/>
<path d="M148.105 10.6678H142.815V16.0016H148.105V10.6678Z" fill="#98B8F2"/>
<path d="M148.105 16.0016H142.815V21.3328H148.105V16.0016Z" fill="#98B8F2"/>
<path d="M148.105 21.3328H142.815V26.6667H148.105V21.3328Z" fill="#98B8F2"/>
<path d="M148.105 26.6667H142.815V32.0005H148.105V26.6667Z" fill="#98B8F2"/>
<path d="M148.105 32.0005H142.815V37.3344H148.105V32.0005Z" fill="#98B8F2"/>
<path d="M148.105 37.3344H142.815V42.6656H148.105V37.3344Z" fill="#98B8F2"/>
<path d="M148.105 47.9995H142.815V53.3333H148.105V47.9995Z" fill="#98B8F2"/>
<path d="M148.105 53.3333H142.815V58.6672H148.105V53.3333Z" fill="#98B8F2"/>
<path d="M148.105 58.6672H142.815V64.0011H148.105V58.6672Z" fill="#98B8F2"/>
<path d="M148.105 64.0011H142.815V69.3323H148.105V64.0011Z" fill="#98B8F2"/>
<path d="M148.105 69.3322H142.815V74.6661H148.105V69.3322Z" fill="#98B8F2"/>
<path d="M153.392 5.33389H148.105V10.6678H153.392V5.33389Z" fill="#98B8F2"/>
<path d="M153.392 10.6678H148.105V16.0016H153.392V10.6678Z" fill="#98B8F2"/>
<path d="M153.392 16.0016H148.105V21.3328H153.392V16.0016Z" fill="#98B8F2"/>
<path d="M153.392 21.3328H148.105V26.6667H153.392V21.3328Z" fill="#98B8F2"/>
<path d="M153.392 26.6667H148.105V32.0005H153.392V26.6667Z" fill="#98B8F2"/>
<path d="M153.392 32.0005H148.105V37.3344H153.392V32.0005Z" fill="#98B8F2"/>
<path d="M153.392 37.3344H148.105V42.6656H153.392V37.3344Z" fill="#98B8F2"/>
<path d="M153.392 47.9995H148.105V53.3333H153.392V47.9995Z" fill="#98B8F2"/>
<path d="M153.392 53.3333H148.105V58.6672H153.392V53.3333Z" fill="#98B8F2"/>
<path d="M153.392 58.6672H148.105V64.0011H153.392V58.6672Z" fill="#98B8F2"/>
<path d="M153.392 64.0011H148.105V69.3323H153.392V64.0011Z" fill="#98B8F2"/>
<path d="M153.392 69.3322H148.105V74.6661H153.392V69.3322Z" fill="#98B8F2"/>
<path d="M158.682 5.33389H153.392V10.6678H158.682V5.33389Z" fill="#98B8F2"/>
<path d="M158.682 10.6678H153.392V16.0016H158.682V10.6678Z" fill="#98B8F2"/>
<path d="M158.682 16.0016H153.392V21.3328H158.682V16.0016Z" fill="#98B8F2"/>
<path d="M158.682 21.3328H153.392V26.6667H158.682V21.3328Z" fill="#98B8F2"/>
<path d="M158.682 26.6667H153.392V32.0005H158.682V26.6667Z" fill="#98B8F2"/>
<path d="M158.682 32.0005H153.392V37.3344H158.682V32.0005Z" fill="#98B8F2"/>
<path d="M158.682 37.3344H153.392V42.6656H158.682V37.3344Z" fill="#98B8F2"/>
<path d="M158.682 47.9995H153.392V53.3333H158.682V47.9995Z" fill="#98B8F2"/>
<path d="M158.682 53.3333H153.392V58.6672H158.682V53.3333Z" fill="#98B8F2"/>
<path d="M158.682 58.6672H153.392V64.0011H158.682V58.6672Z" fill="#98B8F2"/>
<path d="M158.682 69.3322H153.392V74.6661H158.682V69.3322Z" fill="#98B8F2"/>
<path d="M158.682 64.0011H153.392V69.3323H158.682V64.0011Z" fill="#98B8F2"/>
<path d="M163.972 5.33389H158.682V10.6678H163.972V5.33389Z" fill="#98B8F2"/>
<path d="M163.972 10.6678H158.682V16.0016H163.972V10.6678Z" fill="#98B8F2"/>
<path d="M163.972 16.0016H158.682V21.3328H163.972V16.0016Z" fill="#98B8F2"/>
<path d="M163.972 21.3328H158.682V26.6667H163.972V21.3328Z" fill="#98B8F2"/>
<path d="M163.972 26.6667H158.682V32.0005H163.972V26.6667Z" fill="#98B8F2"/>
<path d="M163.972 32.0005H158.682V37.3344H163.972V32.0005Z" fill="#98B8F2"/>
<path d="M163.972 37.3344H158.682V42.6656H163.972V37.3344Z" fill="#98B8F2"/>
<path d="M163.972 47.9995H158.682V53.3333H163.972V47.9995Z" fill="#98B8F2"/>
<path d="M163.972 53.3333H158.682V58.6672H163.972V53.3333Z" fill="#98B8F2"/>
<path d="M163.972 58.6672H158.682V64.0011H163.972V58.6672Z" fill="#98B8F2"/>
<path d="M163.972 64.0011H158.682V69.3323H163.972V64.0011Z" fill="#98B8F2"/>
<path d="M169.262 5.33389H163.972V10.6678H169.262V5.33389Z" fill="#98B8F2"/>
<path d="M169.262 10.6678H163.972V16.0016H169.262V10.6678Z" fill="#98B8F2"/>
<path d="M169.262 16.0016H163.972V21.3328H169.262V16.0016Z" fill="#98B8F2"/>
<path d="M169.262 21.3328H163.972V26.6667H169.262V21.3328Z" fill="#98B8F2"/>
<path d="M169.262 26.6667H163.972V32.0005H169.262V26.6667Z" fill="#98B8F2"/>
<path d="M169.262 32.0005H163.972V37.3344H169.262V32.0005Z" fill="#98B8F2"/>
<path d="M169.262 37.3344H163.972V42.6656H169.262V37.3344Z" fill="#98B8F2"/>
<path d="M169.262 47.9995H163.972V53.3333H169.262V47.9995Z" fill="#98B8F2"/>
<path d="M169.262 53.3333H163.972V58.6672H169.262V53.3333Z" fill="#98B8F2"/>
<path d="M169.262 58.6672H163.972V64.0011H169.262V58.6672Z" fill="#98B8F2"/>
<path d="M169.262 64.0011H163.972V69.3323H169.262V64.0011Z" fill="#98B8F2"/>
<path d="M174.552 5.33389H169.262V10.6678H174.552V5.33389Z" fill="#98B8F2"/>
<path d="M174.552 10.6678H169.262V16.0016H174.552V10.6678Z" fill="#98B8F2"/>
<path d="M179.84 10.6678H174.552V16.0016H179.84V10.6678Z" fill="#98B8F2"/>
<path d="M179.84 16.0016H174.552V21.3328H179.84V16.0016Z" fill="#98B8F2"/>
<path d="M174.552 16.0016H169.262V21.3328H174.552V16.0016Z" fill="#98B8F2"/>
<path d="M174.552 21.3328H169.262V26.6667H174.552V21.3328Z" fill="#98B8F2"/>
<path d="M174.552 26.6667H169.262V32.0005H174.552V26.6667Z" fill="#98B8F2"/>
<path d="M174.552 32.0005H169.262V37.3344H174.552V32.0005Z" fill="#98B8F2"/>
<path d="M174.552 37.3344H169.262V42.6656H174.552V37.3344Z" fill="#98B8F2"/>
<path d="M174.552 64.0011H169.262V69.3323H174.552V64.0011Z" fill="#98B8F2"/>
<path d="M174.552 58.6672H169.262V64.0011H174.552V58.6672Z" fill="#98B8F2"/>
<path d="M174.552 53.3333H169.262V58.6672H174.552V53.3333Z" fill="#98B8F2"/>
<path d="M174.552 47.9995H169.262V53.3333H174.552V47.9995Z" fill="#98B8F2"/>
<path d="M174.552 42.6656H169.262V47.9995H174.552V42.6656Z" fill="#98B8F2"/>
<path d="M169.262 42.6656H163.972V47.9995H169.262V42.6656Z" fill="#98B8F2"/>
<path d="M163.972 42.6656H158.682V47.9995H163.972V42.6656Z" fill="#98B8F2"/>
<path d="M158.682 42.6656H153.392V47.9995H158.682V42.6656Z" fill="#98B8F2"/>
<path d="M153.392 42.6656H148.105V47.9995H153.392V42.6656Z" fill="#98B8F2"/>
<path d="M148.105 42.6656H142.815V47.9995H148.105V42.6656Z" fill="#98B8F2"/>
<path d="M21.1574 5.33389H15.8674V10.6678H21.1574V5.33389Z" fill="black"/>
<path d="M15.8675 69.3322H10.5775V74.6661H15.8675V69.3322Z" fill="black"/>
<path d="M15.8675 16.0016H10.5775V21.3328H15.8675V16.0016Z" fill="black"/>
<path d="M15.8675 10.6678H10.5775V16.0016H15.8675V10.6678Z" fill="black"/>
<path d="M15.8675 5.33389H10.5775V10.6678H15.8675V5.33389Z" fill="black"/>
<path d="M10.5773 69.3322H5.28729V74.6661H10.5773V69.3322Z" fill="black"/>
<path d="M10.5773 64.0011H5.28729V69.3323H10.5773V64.0011Z" fill="black"/>
<path d="M10.5773 58.6672H5.28729V64.0011H10.5773V58.6672Z" fill="black"/>
<path d="M10.5773 53.3333H5.28729V58.6672H10.5773V53.3333Z" fill="black"/>
<path d="M10.5773 47.9995H5.28729V53.3333H10.5773V47.9995Z" fill="black"/>
<path d="M10.5773 42.6656H5.28729V47.9995H10.5773V42.6656Z" fill="black"/>
<path d="M10.5773 21.3328H5.28729V26.6667H10.5773V21.3328Z" fill="black"/>
<path d="M10.5773 16.0016H5.28729V21.3328H10.5773V16.0016Z" fill="black"/>
<path d="M5.28734 42.6656H0V47.9995H5.28734V42.6656Z" fill="black"/>
<path d="M5.28734 37.3344H0V42.6656H5.28734V37.3344Z" fill="black"/>
<path d="M5.28734 32.0005H0V37.3344H5.28734V32.0005Z" fill="black"/>
<path d="M5.28734 26.6667H0V32.0005H5.28734V26.6667Z" fill="black"/>
<path d="M37.025 74.6661H31.7349V80H37.025V74.6661Z" fill="black"/>
<path d="M31.7349 74.6661H26.4476V80H31.7349V74.6661Z" fill="black"/>
<path d="M31.7349 69.3322H26.4476V74.6661H31.7349V69.3322Z" fill="black"/>
<path d="M26.4475 69.3322H21.1575V74.6661H26.4475V69.3322Z" fill="black"/>
<path d="M26.4475 5.33389H21.1575V10.6678H26.4475V5.33389Z" fill="black"/>
<path d="M21.1574 69.3322H15.8674V74.6661H21.1574V69.3322Z" fill="black"/>
<path d="M52.895 74.6661H47.605V80H52.895V74.6661Z" fill="black"/>
<path d="M47.605 74.6661H42.3149V80H47.605V74.6661Z" fill="black"/>
<path d="M42.3149 74.6661H37.0248V80H42.3149V74.6661Z" fill="black"/>
<path d="M63.4724 74.6661H58.1824V80H63.4724V74.6661Z" fill="black"/>
<path d="M58.1823 74.6661H52.895V80H58.1823V74.6661Z" fill="black"/>
<path d="M74.0525 74.6661H68.7625V80H74.0525V74.6661Z" fill="black"/>
<path d="M79.3398 74.6661H74.0525V80H79.3398V74.6661Z" fill="black"/>
<path d="M68.7625 74.6661H63.4724V80H68.7625V74.6661Z" fill="black"/>
<path d="M84.6299 74.6661H79.3398V80H84.6299V74.6661Z" fill="black"/>
<path d="M89.9199 74.6661H84.6299V80H89.9199V74.6661Z" fill="black"/>
<path d="M105.787 74.6661H100.5V80H105.787V74.6661Z" fill="black"/>
<path d="M100.5 74.6661H95.21V80H100.5V74.6661Z" fill="black"/>
<path d="M95.2099 74.6661H89.9199V80H95.2099V74.6661Z" fill="black"/>
<path d="M111.077 74.6661H105.787V80H111.077V74.6661Z" fill="black"/>
<path d="M116.367 74.6661H111.077V80H116.367V74.6661Z" fill="black"/>
<path d="M121.657 74.6661H116.367V80H121.657V74.6661Z" fill="black"/>
<path d="M126.948 74.6661H121.657V80H126.948V74.6661Z" fill="black"/>
<path d="M174.552 69.3322H169.262V74.6661H174.552V69.3322Z" fill="black"/>
<path d="M179.84 0H174.552V5.33388H179.84V0Z" fill="black"/>
<path d="M179.84 69.3322H174.552V74.6661H179.84V69.3322Z" fill="black"/>
<path d="M179.84 5.33389H174.552V10.6678H179.84V5.33389Z" fill="black"/>
<path d="M132.235 74.6661H126.948V80H132.235V74.6661Z" fill="black"/>
<path d="M137.525 74.6661H132.235V80H137.525V74.6661Z" fill="black"/>
<path d="M142.815 74.6661H137.525V80H142.815V74.6661Z" fill="black"/>
<path d="M148.105 74.6661H142.815V80H148.105V74.6661Z" fill="black"/>
<path d="M153.392 74.6661H148.105V80H153.392V74.6661Z" fill="black"/>
<path d="M158.682 74.6661H153.392V80H158.682V74.6661Z" fill="black"/>
<path d="M163.972 69.3322H158.682V74.6661H163.972V69.3322Z" fill="black"/>
<path d="M169.262 69.3322H163.972V74.6661H169.262V69.3322Z" fill="black"/>
<path d="M190.42 5.33389H185.13V10.6678H190.42V5.33389Z" fill="black"/>
<path d="M185.13 69.3322H179.84V74.6661H185.13V69.3322Z" fill="black"/>
<path d="M190.42 16.0016H185.13V21.3328H190.42V16.0016Z" fill="black"/>
<path d="M190.42 10.6678H185.13V16.0016H190.42V10.6678Z" fill="black"/>
<path d="M190.42 69.3322H185.13V74.6661H190.42V69.3322Z" fill="black"/>
<path d="M185.13 5.33389H179.84V10.6678H185.13V5.33389Z" fill="black"/>
<path d="M190.42 64.0011H185.13V69.3323H190.42V64.0011Z" fill="black"/>
<path d="M195.71 16.0016H190.42V21.3328H195.71V16.0016Z" fill="black"/>
<path d="M195.71 53.3333H190.42V58.6672H195.71V53.3333Z" fill="black"/>
<path d="M195.71 21.3328H190.42V26.6667H195.71V21.3328Z" fill="black"/>
<path d="M195.71 64.0011H190.42V69.3323H195.71V64.0011Z" fill="black"/>
<path d="M195.71 58.6672H190.42V64.0011H195.71V58.6672Z" fill="black"/>
<path d="M195.71 26.6667H190.42V32.0005H195.71V26.6667Z" fill="black"/>
<path d="M201 26.6667H195.71V32.0005H201V26.6667Z" fill="black"/>
<path d="M201 47.9995H195.71V53.3333H201V47.9995Z" fill="black"/>
<path d="M201 42.6656H195.71V47.9995H201V42.6656Z" fill="black"/>
<path d="M201 53.3333H195.71V58.6672H201V53.3333Z" fill="black"/>
<path d="M201 37.3344H195.71V42.6656H201V37.3344Z" fill="black"/>
<path d="M201 32.0005H195.71V37.3344H201V32.0005Z" fill="black"/>
<path d="M37.025 0H31.7349V5.33388H37.025V0Z" fill="black"/>
<path d="M31.7349 0H26.4476V5.33388H31.7349V0Z" fill="black"/>
<path d="M52.895 0H47.605V5.33388H52.895V0Z" fill="black"/>
<path d="M47.605 0H42.3149V5.33388H47.605V0Z" fill="black"/>
<path d="M42.3149 0H37.0248V5.33388H42.3149V0Z" fill="black"/>
<path d="M63.4724 0H58.1824V5.33388H63.4724V0Z" fill="black"/>
<path d="M58.1823 0H52.895V5.33388H58.1823V0Z" fill="black"/>
<path d="M74.0525 0H68.7625V5.33388H74.0525V0Z" fill="black"/>
<path d="M79.3398 0H74.0525V5.33388H79.3398V0Z" fill="black"/>
<path d="M84.6299 0H79.3398V5.33388H84.6299V0Z" fill="black"/>
<path d="M89.9199 0H84.6299V5.33388H89.9199V0Z" fill="black"/>
<path d="M95.2099 0H89.9199V5.33388H95.2099V0Z" fill="black"/>
<path d="M105.787 0H100.5V5.33388H105.787V0Z" fill="black"/>
<path d="M100.5 0H95.21V5.33388H100.5V0Z" fill="black"/>
<path d="M68.7625 0H63.4724V5.33388H68.7625V0Z" fill="black"/>
<path d="M116.367 0H111.077V5.33388H116.367V0Z" fill="black"/>
<path d="M111.077 0H105.787V5.33388H111.077V0Z" fill="black"/>
<path d="M121.657 0H116.367V5.33388H121.657V0Z" fill="black"/>
<path d="M132.235 0H126.948V5.33388H132.235V0Z" fill="black"/>
<path d="M126.948 0H121.657V5.33388H126.948V0Z" fill="black"/>
<path d="M174.552 0H169.262V5.33388H174.552V0Z" fill="black"/>
<path d="M137.525 0H132.235V5.33388H137.525V0Z" fill="black"/>
<path d="M148.105 0H142.815V5.33388H148.105V0Z" fill="black"/>
<path d="M142.815 0H137.525V5.33388H142.815V0Z" fill="black"/>
<path d="M153.392 0H148.105V5.33388H153.392V0Z" fill="black"/>
<path d="M158.682 0H153.392V5.33388H158.682V0Z" fill="black"/>
<path d="M163.972 0H158.682V5.33388H163.972V0Z" fill="black"/>
<path d="M169.262 0H163.972V5.33388H169.262V0Z" fill="black"/>
<path d="M26.4475 0H21.1575V5.33388H26.4475V0Z" fill="black"/>
<path d="M77 46.5H75.5V48H62V33H75.5V34.5H77V39H75.5V42H77V46.5ZM71 39V36H68V39H71ZM71 45V42H68V45H71ZM95 48H89V42H86V48H80V34.5H81.5V33H93.5V34.5H95V48ZM89 39V36H86V39H89ZM113 48H99.5V46.5H98V34.5H99.5V33H113V36H104V45H113V48ZM131 48H125V42H122V48H116V33H122V39H125V33H131V39H129.5V42H131V48Z" fill="black"/>
</svg>
