<svg width="361" height="144" viewBox="0 0 361 144" fill="none" xmlns="http://www.w3.org/2000/svg">
<path d="M86.3333 71H38.3333V65.6667H33V23H38.3333V17.6667H86.3333V28.3333H54.3333V60.3333H65V49.6667H59.6667V39H86.3333V71ZM150.333 71H129V49.6667H118.333V71H97V23H102.333V17.6667H145V23H150.333V71ZM129 39V28.3333H118.333V39H129ZM246.333 71H225V28.3333H214.333V71H193V28.3333H182.333V71H161V17.6667H241V23H246.333V71ZM310.333 71H262.333V65.6667H257V23H262.333V17.6667H310.333V28.3333H278.333V39H294.333V49.6667H278.333V60.3333H310.333V71ZM102.333 129.667H97V135H54.3333V129.667H49V87H54.3333V81.6667H97V87H102.333V129.667ZM81 124.333V92.3333H70.3333V124.333H81ZM166.333 129.667H161V135H113V81.6667H134.333V124.333H145V81.6667H166.333V129.667ZM230.333 135H182.333V129.667H177V87H182.333V81.6667H230.333V92.3333H198.333V103H214.333V113.667H198.333V124.333H230.333V135ZM294.333 135H273V113.667H262.333V135H241V81.6667H289V87H294.333V103H289V113.667H294.333V135ZM273 103V92.3333H262.333V103H273Z" fill="#FF0000"/>
<path d="M78.5 72H24.5V66H18.5V18H24.5V12H78.5V24H42.5V60H54.5V48H48.5V36H78.5V72ZM150.5 72H126.5V48H114.5V72H90.5V18H96.5V12H144.5V18H150.5V72ZM126.5 36V24H114.5V36H126.5ZM258.5 72H234.5V24H222.5V72H198.5V24H186.5V72H162.5V12H252.5V18H258.5V72ZM330.5 72H276.5V66H270.5V18H276.5V12H330.5V24H294.5V36H312.5V48H294.5V60H330.5V72ZM96.5 138H90.5V144H42.5V138H36.5V90H42.5V84H90.5V90H96.5V138ZM72.5 132V96H60.5V132H72.5ZM168.5 138H162.5V144H108.5V84H132.5V132H144.5V84H168.5V138ZM240.5 144H186.5V138H180.5V90H186.5V84H240.5V96H204.5V108H222.5V120H204.5V132H240.5V144ZM312.5 144H288.5V120H276.5V144H252.5V84H306.5V90H312.5V108H306.5V120H312.5V144ZM288.5 108V96H276.5V108H288.5Z" fill="#F6E8E7"/>
</svg>
