<svg width="713" height="102" viewBox="0 0 713 102" fill="none" xmlns="http://www.w3.org/2000/svg">
<path d="M40.5 36H36.5V40H0.5V-1.90735e-06H36.5V4H40.5V36ZM24.5 32V8H16.5V32H24.5ZM88.5 36H84.5V40H52.5V36H48.5V-1.90735e-06H64.5V32H72.5V-1.90735e-06H88.5V36ZM136.5 36H132.5V40H96.5V-1.90735e-06H132.5V4H136.5V16H132.5V24H136.5V36ZM120.5 16V8H112.5V16H120.5ZM120.5 32V24H112.5V32H120.5ZM184.5 40H144.5V-1.90735e-06H160.5V32H184.5V40ZM208.5 40H192.5V-1.90735e-06H208.5V40ZM256.5 40H240.5V8H232.5V40H216.5V-1.90735e-06H252.5V4H256.5V40ZM328.5 8H316.5V40H300.5V8H288.5V-1.90735e-06H328.5V8ZM376.5 40H360.5V24H352.5V40H336.5V-1.90735e-06H372.5V4H376.5V16H372.5V24H376.5V40ZM360.5 16V8H352.5V16H360.5ZM424.5 40H408.5V24H400.5V40H384.5V4H388.5V-1.90735e-06H420.5V4H424.5V40ZM408.5 16V8H400.5V16H408.5ZM472.5 40H456.5V8H448.5V40H432.5V-1.90735e-06H468.5V4H472.5V40ZM520.5 36H516.5V40H480.5V32H504.5V24H484.5V20H480.5V4H484.5V-1.90735e-06H520.5V8H496.5V16H516.5V20H520.5V36ZM568.5 20H564.5V24H544.5V40H528.5V-1.90735e-06H564.5V4H568.5V20ZM552.5 16V8H544.5V16H552.5ZM616.5 36H612.5V40H580.5V36H576.5V4H580.5V-1.90735e-06H612.5V4H616.5V36ZM600.5 32V8H592.5V32H600.5ZM664.5 40H648.5V24H640.5V40H624.5V-1.90735e-06H660.5V4H664.5V16H660.5V24H664.5V40ZM648.5 16V8H640.5V16H648.5ZM712.5 8H700.5V40H684.5V8H672.5V-1.90735e-06H712.5V8ZM316.5 98H312.5V102H280.5V98H276.5V66H280.5V62H312.5V66H316.5V98ZM300.5 94V70H292.5V94H300.5ZM364.5 98H360.5V102H328.5V98H324.5V62H340.5V94H348.5V62H364.5V98ZM388.5 102H372.5V62H388.5V102ZM436.5 102H396.5V82H400.5V78H420.5V70H396.5V62H436.5V82H432.5V86H412.5V94H436.5V102Z" fill="white"/>
</svg>
