<svg width="86" height="16" viewBox="0 0 86 16" fill="none" xmlns="http://www.w3.org/2000/svg">
<path d="M15.8457 15H0.845703V-7.15256e-07H6.8457V12H15.8457V15ZM24.8457 15H18.8457V-7.15256e-07H24.8457V15ZM42.8457 13.5H41.3457V15H27.8457V-7.15256e-07H33.8457V12H36.8457V-7.15256e-07H42.8457V13.5ZM60.8457 15H47.3457V13.5H45.8457V1.5H47.3457V-7.15256e-07H60.8457V3H51.8457V6H56.3457V9H51.8457V12H60.8457V15ZM78.8457 13.5H77.3457V15H63.8457V12H72.8457V9H65.3457V7.5H63.8457V1.5H65.3457V-7.15256e-07H78.8457V3H69.8457V6H77.3457V7.5H78.8457V13.5ZM83.3838 14.0244C83.3838 13.8018 83.4131 13.6143 83.4717 13.4619C83.5303 13.3037 83.6094 13.1777 83.709 13.084C83.8086 12.9844 83.9258 12.9141 84.0605 12.873C84.1953 12.8262 84.3418 12.8027 84.5 12.8027C84.6523 12.8027 84.7959 12.8262 84.9307 12.873C85.0713 12.9141 85.1914 12.9844 85.291 13.084C85.3906 13.1777 85.4697 13.3037 85.5283 13.4619C85.5869 13.6143 85.6162 13.8018 85.6162 14.0244C85.6162 14.2412 85.5869 14.4287 85.5283 14.5869C85.4697 14.7393 85.3906 14.8652 85.291 14.9648C85.1914 15.0645 85.0713 15.1377 84.9307 15.1846C84.7959 15.2314 84.6523 15.2549 84.5 15.2549C84.3418 15.2549 84.1953 15.2314 84.0605 15.1846C83.9258 15.1377 83.8086 15.0645 83.709 14.9648C83.6094 14.8652 83.5303 14.7393 83.4717 14.5869C83.4131 14.4287 83.3838 14.2412 83.3838 14.0244ZM83.3838 6.3252C83.3838 6.09668 83.4131 5.90625 83.4717 5.75391C83.5303 5.5957 83.6094 5.46973 83.709 5.37598C83.8086 5.27637 83.9258 5.20605 84.0605 5.16504C84.1953 5.12402 84.3418 5.10352 84.5 5.10352C84.6523 5.10352 84.7959 5.12402 84.9307 5.16504C85.0713 5.20605 85.1914 5.27637 85.291 5.37598C85.3906 5.46973 85.4697 5.5957 85.5283 5.75391C85.5869 5.90625 85.6162 6.09668 85.6162 6.3252C85.6162 6.54199 85.5869 6.72656 85.5283 6.87891C85.4697 7.03125 85.3906 7.15723 85.291 7.25684C85.1914 7.35645 85.0713 7.42969 84.9307 7.47656C84.7959 7.52344 84.6523 7.54688 84.5 7.54688C84.3418 7.54688 84.1953 7.52344 84.0605 7.47656C83.9258 7.42969 83.8086 7.35645 83.709 7.25684C83.6094 7.15723 83.5303 7.03125 83.4717 6.87891C83.4131 6.72656 83.3838 6.54199 83.3838 6.3252Z" fill="white"/>
</svg>
