<svg width="611" height="38" viewBox="0 0 611 38" fill="none" xmlns="http://www.w3.org/2000/svg">
<path d="M202.833 20H197.5V9.33333H194.833V20H189.5V9.33333H186.833V20H181.5V6.66667H201.5V8H202.833V20ZM218.833 18.6667H217.5V20H206.833V18.6667H205.5V8H206.833V6.66667H217.5V8H218.833V18.6667ZM213.5 17.3333V9.33333H210.833V17.3333H213.5ZM234.833 20H229.5V14.6667H226.833V20H221.5V6.66667H233.5V8H234.833V12H233.5V14.6667H234.833V20ZM229.5 12V9.33333H226.833V12H229.5ZM250.833 20H238.833V18.6667H237.5V8H238.833V6.66667H250.833V9.33333H242.833V12H246.833V14.6667H242.833V17.3333H250.833V20ZM266.833 20H261.5V6.66667H266.833V20ZM282.833 20H277.5V9.33333H274.833V20H269.5V6.66667H281.5V8H282.833V20ZM298.833 9.33333H290.833V12H294.833V14.6667H290.833V20H285.5V8H286.833V6.66667H298.833V9.33333ZM314.833 18.6667H313.5V20H302.833V18.6667H301.5V8H302.833V6.66667H313.5V8H314.833V18.6667ZM309.5 17.3333V9.33333H306.833V17.3333H309.5ZM338.833 18.6667H337.5V20H326.833V18.6667H325.5V8H326.833V6.66667H337.5V8H338.833V18.6667ZM333.5 17.3333V9.33333H330.833V17.3333H333.5ZM354.833 20H349.5V9.33333H346.833V20H341.5V6.66667H353.5V8H354.833V20ZM378.833 20H365.5V6.66667H370.833V17.3333H378.833V20ZM394.833 18.6667H393.5V20H382.833V18.6667H381.5V6.66667H386.833V17.3333H389.5V6.66667H394.833V18.6667ZM410.833 20H405.5V14.6667H402.833V20H397.5V8H398.833V6.66667H409.5V8H410.833V20ZM405.5 12V9.33333H402.833V12H405.5ZM426.833 18.6667H425.5V20H413.5V17.3333H421.5V14.6667H414.833V13.3333H413.5V8H414.833V6.66667H426.833V9.33333H418.833V12H425.5V13.3333H426.833V18.6667Z" fill="#98B8F2"/>
<path d="M183 29L426 29" stroke="#98B8F2" stroke-width="3"/>
</svg>
