<svg width="611" height="38" viewBox="0 0 611 38" fill="none" xmlns="http://www.w3.org/2000/svg">
<path d="M162.833 20H157.5V9.33333H154.833V20H149.5V9.33333H146.833V20H141.5V6.66667H161.5V8H162.833V20ZM178.833 18.6667H177.5V20H166.833V18.6667H165.5V8H166.833V6.66667H177.5V8H178.833V18.6667ZM173.5 17.3333V9.33333H170.833V17.3333H173.5ZM194.833 20H189.5V14.6667H186.833V20H181.5V6.66667H193.5V8H194.833V12H193.5V14.6667H194.833V20ZM189.5 12V9.33333H186.833V12H189.5ZM210.833 20H198.833V18.6667H197.5V8H198.833V6.66667H210.833V9.33333H202.833V12H206.833V14.6667H202.833V17.3333H210.833V20ZM226.833 20H221.5V6.66667H226.833V20ZM242.833 20H237.5V9.33333H234.833V20H229.5V6.66667H241.5V8H242.833V20ZM258.833 9.33333H250.833V12H254.833V14.6667H250.833V20H245.5V8H246.833V6.66667H258.833V9.33333ZM274.833 18.6667H273.5V20H262.833V18.6667H261.5V8H262.833V6.66667H273.5V8H274.833V18.6667ZM269.5 17.3333V9.33333H266.833V17.3333H269.5ZM298.833 18.6667H297.5V20H286.833V18.6667H285.5V8H286.833V6.66667H297.5V8H298.833V18.6667ZM293.5 17.3333V9.33333H290.833V17.3333H293.5ZM314.833 20H309.5V9.33333H306.833V20H301.5V6.66667H313.5V8H314.833V20ZM338.833 18.6667H337.5V20H325.5V6.66667H337.5V8H338.833V18.6667ZM333.5 17.3333V9.33333H330.833V17.3333H333.5ZM354.833 18.6667H353.5V20H342.833V18.6667H341.5V6.66667H346.833V17.3333H349.5V6.66667H354.833V18.6667ZM370.833 18.6667H369.5V20H357.5V6.66667H369.5V8H370.833V12H369.5V14.6667H370.833V18.6667ZM365.5 12V9.33333H362.833V12H365.5ZM365.5 17.3333V14.6667H362.833V17.3333H365.5ZM386.833 20H373.5V6.66667H378.833V17.3333H386.833V20ZM394.833 20H389.5V6.66667H394.833V20ZM410.833 20H405.5V9.33333H402.833V20H397.5V6.66667H409.5V8H410.833V20ZM434.833 18.6667H433.5V20H421.5V6.66667H433.5V8H434.833V12H433.5V14.6667H434.833V18.6667ZM429.5 12V9.33333H426.833V12H429.5ZM429.5 17.3333V14.6667H426.833V17.3333H429.5ZM450.833 18.6667H449.5V20H438.833V18.6667H437.5V6.66667H442.833V17.3333H445.5V6.66667H450.833V18.6667ZM466.833 18.6667H465.5V20H453.5V17.3333H461.5V14.6667H454.833V13.3333H453.5V8H454.833V6.66667H466.833V9.33333H458.833V12H465.5V13.3333H466.833V18.6667Z" fill="#98B8F2"/>
<path d="M144 28L463 28" stroke="#98B8F2" stroke-width="3"/>
</svg>
