<svg width="253" height="38" viewBox="0 0 253 38" fill="none" xmlns="http://www.w3.org/2000/svg">
<path d="M23.8333 20H18.5V9.33333H15.8333V20H10.5V9.33333H7.83333V20H2.5V6.66667H22.5V8H23.8333V20ZM39.8333 18.6667H38.5V20H27.8333V18.6667H26.5V8H27.8333V6.66667H38.5V8H39.8333V18.6667ZM34.5 17.3333V9.33333H31.8333V17.3333H34.5ZM55.8333 20H50.5V14.6667H47.8333V20H42.5V6.66667H54.5V8H55.8333V12H54.5V14.6667H55.8333V20ZM50.5 12V9.33333H47.8333V12H50.5ZM71.8333 20H59.8333V18.6667H58.5V8H59.8333V6.66667H71.8333V9.33333H63.8333V12H67.8333V14.6667H63.8333V17.3333H71.8333V20ZM87.8333 20H82.5V6.66667H87.8333V20ZM103.833 20H98.5V9.33333H95.8333V20H90.5V6.66667H102.5V8H103.833V20ZM119.833 9.33333H111.833V12H115.833V14.6667H111.833V20H106.5V8H107.833V6.66667H119.833V9.33333ZM135.833 18.6667H134.5V20H123.833V18.6667H122.5V8H123.833V6.66667H134.5V8H135.833V18.6667ZM130.5 17.3333V9.33333H127.833V17.3333H130.5ZM159.833 18.6667H158.5V20H147.833V18.6667H146.5V8H147.833V6.66667H158.5V8H159.833V18.6667ZM154.5 17.3333V9.33333H151.833V17.3333H154.5ZM175.833 20H170.5V9.33333H167.833V20H162.5V6.66667H174.5V8H175.833V20ZM199.833 20H186.5V6.66667H191.833V17.3333H199.833V20ZM215.833 18.6667H214.5V20H203.833V18.6667H202.5V6.66667H207.833V17.3333H210.5V6.66667H215.833V18.6667ZM231.833 20H226.5V14.6667H223.833V20H218.5V8H219.833V6.66667H230.5V8H231.833V20ZM226.5 12V9.33333H223.833V12H226.5ZM247.833 18.6667H246.5V20H234.5V17.3333H242.5V14.6667H235.833V13.3333H234.5V8H235.833V6.66667H247.833V9.33333H239.833V12H246.5V13.3333H247.833V18.6667Z" fill="#98B8F2"/>
<path d="M2 29L245 29" stroke="#98B8F2" stroke-width="3"/>
</svg>
