<svg width="329" height="38" viewBox="0 0 329 38" fill="none" xmlns="http://www.w3.org/2000/svg">
<path d="M21.8333 20H16.5V9.33333H13.8333V20H8.5V9.33333H5.83333V20H0.5V6.66667H20.5V8H21.8333V20ZM37.8333 18.6667H36.5V20H25.8333V18.6667H24.5V8H25.8333V6.66667H36.5V8H37.8333V18.6667ZM32.5 17.3333V9.33333H29.8333V17.3333H32.5ZM53.8333 20H48.5V14.6667H45.8333V20H40.5V6.66667H52.5V8H53.8333V12H52.5V14.6667H53.8333V20ZM48.5 12V9.33333H45.8333V12H48.5ZM69.8333 20H57.8333V18.6667H56.5V8H57.8333V6.66667H69.8333V9.33333H61.8333V12H65.8333V14.6667H61.8333V17.3333H69.8333V20ZM85.8333 20H80.5V6.66667H85.8333V20ZM101.833 20H96.5V9.33333H93.8333V20H88.5V6.66667H100.5V8H101.833V20ZM117.833 9.33333H109.833V12H113.833V14.6667H109.833V20H104.5V8H105.833V6.66667H117.833V9.33333ZM133.833 18.6667H132.5V20H121.833V18.6667H120.5V8H121.833V6.66667H132.5V8H133.833V18.6667ZM128.5 17.3333V9.33333H125.833V17.3333H128.5ZM157.833 18.6667H156.5V20H145.833V18.6667H144.5V8H145.833V6.66667H156.5V8H157.833V18.6667ZM152.5 17.3333V9.33333H149.833V17.3333H152.5ZM173.833 20H168.5V9.33333H165.833V20H160.5V6.66667H172.5V8H173.833V20ZM197.833 18.6667H196.5V20H184.5V6.66667H196.5V8H197.833V18.6667ZM192.5 17.3333V9.33333H189.833V17.3333H192.5ZM213.833 18.6667H212.5V20H201.833V18.6667H200.5V6.66667H205.833V17.3333H208.5V6.66667H213.833V18.6667ZM229.833 18.6667H228.5V20H216.5V6.66667H228.5V8H229.833V12H228.5V14.6667H229.833V18.6667ZM224.5 12V9.33333H221.833V12H224.5ZM224.5 17.3333V14.6667H221.833V17.3333H224.5ZM245.833 20H232.5V6.66667H237.833V17.3333H245.833V20ZM253.833 20H248.5V6.66667H253.833V20ZM269.833 20H264.5V9.33333H261.833V20H256.5V6.66667H268.5V8H269.833V20ZM293.833 18.6667H292.5V20H280.5V6.66667H292.5V8H293.833V12H292.5V14.6667H293.833V18.6667ZM288.5 12V9.33333H285.833V12H288.5ZM288.5 17.3333V14.6667H285.833V17.3333H288.5ZM309.833 18.6667H308.5V20H297.833V18.6667H296.5V6.66667H301.833V17.3333H304.5V6.66667H309.833V18.6667ZM325.833 18.6667H324.5V20H312.5V17.3333H320.5V14.6667H313.833V13.3333H312.5V8H313.833V6.66667H325.833V9.33333H317.833V12H324.5V13.3333H325.833V18.6667Z" fill="white"/>
<path d="M0 28L319 28" stroke="#98B8F2" stroke-width="3"/>
</svg>
