<svg width="251" height="38" viewBox="0 0 251 38" fill="none" xmlns="http://www.w3.org/2000/svg">
<path d="M22.8333 20H17.5V9.33333H14.8333V20H9.5V9.33333H6.83333V20H1.5V6.66667H21.5V8H22.8333V20ZM38.8333 18.6667H37.5V20H26.8333V18.6667H25.5V8H26.8333V6.66667H37.5V8H38.8333V18.6667ZM33.5 17.3333V9.33333H30.8333V17.3333H33.5ZM54.8333 20H49.5V14.6667H46.8333V20H41.5V6.66667H53.5V8H54.8333V12H53.5V14.6667H54.8333V20ZM49.5 12V9.33333H46.8333V12H49.5ZM70.8333 20H58.8333V18.6667H57.5V8H58.8333V6.66667H70.8333V9.33333H62.8333V12H66.8333V14.6667H62.8333V17.3333H70.8333V20ZM86.8333 20H81.5V6.66667H86.8333V20ZM102.833 20H97.5V9.33333H94.8333V20H89.5V6.66667H101.5V8H102.833V20ZM118.833 9.33333H110.833V12H114.833V14.6667H110.833V20H105.5V8H106.833V6.66667H118.833V9.33333ZM134.833 18.6667H133.5V20H122.833V18.6667H121.5V8H122.833V6.66667H133.5V8H134.833V18.6667ZM129.5 17.3333V9.33333H126.833V17.3333H129.5ZM158.833 18.6667H157.5V20H146.833V18.6667H145.5V8H146.833V6.66667H157.5V8H158.833V18.6667ZM153.5 17.3333V9.33333H150.833V17.3333H153.5ZM174.833 20H169.5V9.33333H166.833V20H161.5V6.66667H173.5V8H174.833V20ZM198.833 18.6667H197.5V20H185.5V6.66667H197.5V8H198.833V18.6667ZM193.5 17.3333V9.33333H190.833V17.3333H193.5ZM214.833 20H209.5V14.6667H206.833V20H201.5V8H202.833V6.66667H213.5V8H214.833V20ZM209.5 12V9.33333H206.833V12H209.5ZM230.833 20H225.5V14.6667H222.833V20H217.5V6.66667H229.5V8H230.833V12H229.5V14.6667H230.833V20ZM225.5 12V9.33333H222.833V12H225.5ZM246.833 9.33333H242.833V20H237.5V9.33333H233.5V6.66667H246.833V9.33333Z" fill="white"/>
<path d="M2.5 28.5H242.5" stroke="#98B8F2" stroke-width="3"/>
</svg>
