<svg width="201" height="48" viewBox="0 0 201 48" fill="none" xmlns="http://www.w3.org/2000/svg">
<g clip-path="url(#clip0)">
<path d="M179.84 13.2341H174.552V16.3949H179.84V13.2341Z" fill="#98B8F2"/>
<path d="M179.84 16.395H174.552V19.5558H179.84V16.395Z" fill="#98B8F2"/>
<path d="M179.84 19.5558H174.552V22.7166H179.84V19.5558Z" fill="#98B8F2"/>
<path d="M179.84 22.7167H174.552V25.8759H179.84V22.7167Z" fill="#98B8F2"/>
<path d="M179.84 25.8759H174.552V29.0367H179.84V25.8759Z" fill="#98B8F2"/>
<path d="M179.84 29.0366H174.552V32.1974H179.84V29.0366Z" fill="#98B8F2"/>
<path d="M179.84 32.1975H174.552V35.3583H179.84V32.1975Z" fill="#98B8F2"/>
<path d="M179.84 35.3583H174.552V38.5191H179.84V35.3583Z" fill="#98B8F2"/>
<path d="M179.84 38.519H174.552V41.6782H179.84V38.519Z" fill="#98B8F2"/>
<path d="M185.13 6.91418H179.84V10.075H185.13V6.91418Z" fill="#98B8F2"/>
<path d="M185.13 16.395H179.84V19.5558H185.13V16.395Z" fill="#98B8F2"/>
<path d="M185.13 19.5558H179.84V22.7166H185.13V19.5558Z" fill="#98B8F2"/>
<path d="M185.13 22.7167H179.84V25.8759H185.13V22.7167Z" fill="#98B8F2"/>
<path d="M185.13 25.8759H179.84V29.0367H185.13V25.8759Z" fill="#98B8F2"/>
<path d="M185.13 29.0366H179.84V32.1974H185.13V29.0366Z" fill="#98B8F2"/>
<path d="M185.13 32.1975H179.84V35.3583H185.13V32.1975Z" fill="#98B8F2"/>
<path d="M185.13 38.519H179.84V41.6782H185.13V38.519Z" fill="#98B8F2"/>
<path d="M185.13 35.3583H179.84V38.5191H185.13V35.3583Z" fill="#98B8F2"/>
<path d="M190.42 22.7167H185.13V25.8759H190.42V22.7167Z" fill="#98B8F2"/>
<path d="M190.42 25.8759H185.13V29.0367H190.42V25.8759Z" fill="#98B8F2"/>
<path d="M190.42 35.3583H185.13V38.5191H190.42V35.3583Z" fill="#98B8F2"/>
<path d="M190.42 32.1975H185.13V35.3583H190.42V32.1975Z" fill="#98B8F2"/>
<path d="M190.42 29.0366H185.13V32.1974H190.42V29.0366Z" fill="#98B8F2"/>
<path d="M195.71 29.0366H190.42V32.1974H195.71V29.0366Z" fill="#98B8F2"/>
<path d="M195.71 25.8759H190.42V29.0367H195.71V25.8759Z" fill="#98B8F2"/>
<path d="M195.71 22.7167H190.42V25.8759H195.71V22.7167Z" fill="#98B8F2"/>
<path d="M195.71 19.5558H190.42V22.7166H195.71V19.5558Z" fill="#98B8F2"/>
<path d="M190.42 19.5558H185.13V22.7166H190.42V19.5558Z" fill="#98B8F2"/>
<path d="M190.42 16.395H185.13V19.5558H190.42V16.395Z" fill="#98B8F2"/>
<path d="M190.42 13.2341H185.13V16.3949H190.42V13.2341Z" fill="#98B8F2"/>
<path d="M185.13 13.2341H179.84V16.3949H185.13V13.2341Z" fill="#98B8F2"/>
<path d="M185.13 10.075H179.84V13.2342H185.13V10.075Z" fill="#98B8F2"/>
<path d="M126.947 6.91418H121.657V10.075H126.947V6.91418Z" fill="#98B8F2"/>
<path d="M126.947 10.075H121.657V13.2342H126.947V10.075Z" fill="#98B8F2"/>
<path d="M126.947 13.2341H121.657V16.3949H126.947V13.2341Z" fill="#98B8F2"/>
<path d="M126.947 16.395H121.657V19.5558H126.947V16.395Z" fill="#98B8F2"/>
<path d="M126.947 19.5558H121.657V22.7166H126.947V19.5558Z" fill="#98B8F2"/>
<path d="M126.947 22.7167H121.657V25.8759H126.947V22.7167Z" fill="#98B8F2"/>
<path d="M126.947 25.8759H121.657V29.0367H126.947V25.8759Z" fill="#98B8F2"/>
<path d="M126.947 29.0366H121.657V32.1974H126.947V29.0366Z" fill="#98B8F2"/>
<path d="M126.947 32.1975H121.657V35.3583H126.947V32.1975Z" fill="#98B8F2"/>
<path d="M126.947 35.3583H121.657V38.5191H126.947V35.3583Z" fill="#98B8F2"/>
<path d="M126.947 38.519H121.657V41.6782H126.947V38.519Z" fill="#98B8F2"/>
<path d="M126.947 41.6783H121.657V44.8392H126.947V41.6783Z" fill="#98B8F2"/>
<path d="M74.0525 3.7533H68.7625V6.91411H74.0525V3.7533Z" fill="#98B8F2"/>
<path d="M74.0525 6.91418H68.7625V10.075H74.0525V6.91418Z" fill="#98B8F2"/>
<path d="M74.0525 10.075H68.7625V13.2342H74.0525V10.075Z" fill="#98B8F2"/>
<path d="M74.0525 13.2341H68.7625V16.3949H74.0525V13.2341Z" fill="#98B8F2"/>
<path d="M74.0525 16.395H68.7625V19.5558H74.0525V16.395Z" fill="#98B8F2"/>
<path d="M74.0525 19.5558H68.7625V22.7166H74.0525V19.5558Z" fill="#98B8F2"/>
<path d="M74.0525 22.7167H68.7625V25.8759H74.0525V22.7167Z" fill="#98B8F2"/>
<path d="M74.0525 25.8759H68.7625V29.0367H74.0525V25.8759Z" fill="#98B8F2"/>
<path d="M74.0525 29.0366H68.7625V32.1974H74.0525V29.0366Z" fill="#98B8F2"/>
<path d="M74.0525 32.1975H68.7625V35.3583H74.0525V32.1975Z" fill="#98B8F2"/>
<path d="M74.0525 35.3583H68.7625V38.5191H74.0525V35.3583Z" fill="#98B8F2"/>
<path d="M74.0525 38.519H68.7625V41.6782H74.0525V38.519Z" fill="#98B8F2"/>
<path d="M21.1574 6.91418H15.8674V10.075H21.1574V6.91418Z" fill="#98B8F2"/>
<path d="M21.1574 10.075H15.8674V13.2342H21.1574V10.075Z" fill="#98B8F2"/>
<path d="M21.1574 13.2341H15.8674V16.3949H21.1574V13.2341Z" fill="#98B8F2"/>
<path d="M21.1574 16.395H15.8674V19.5558H21.1574V16.395Z" fill="#98B8F2"/>
<path d="M21.1574 19.5558H15.8674V22.7166H21.1574V19.5558Z" fill="#98B8F2"/>
<path d="M21.1574 22.7167H15.8674V25.8759H21.1574V22.7167Z" fill="#98B8F2"/>
<path d="M21.1574 25.8759H15.8674V29.0367H21.1574V25.8759Z" fill="#98B8F2"/>
<path d="M21.1574 29.0366H15.8674V32.1974H21.1574V29.0366Z" fill="#98B8F2"/>
<path d="M21.1574 32.1975H15.8674V35.3583H21.1574V32.1975Z" fill="#98B8F2"/>
<path d="M21.1574 35.3583H15.8674V38.5191H21.1574V35.3583Z" fill="#98B8F2"/>
<path d="M10.5773 16.395H5.28729V19.5558H10.5773V16.395Z" fill="#98B8F2"/>
<path d="M10.5773 19.5558H5.28729V22.7166H10.5773V19.5558Z" fill="#98B8F2"/>
<path d="M10.5773 22.7167H5.28729V25.8759H10.5773V22.7167Z" fill="#98B8F2"/>
<path d="M15.8675 13.2341H10.5774V16.3949H15.8675V13.2341Z" fill="#98B8F2"/>
<path d="M15.8675 16.395H10.5774V19.5558H15.8675V16.395Z" fill="#98B8F2"/>
<path d="M15.8675 19.5558H10.5774V22.7166H15.8675V19.5558Z" fill="#98B8F2"/>
<path d="M15.8675 22.7167H10.5774V25.8759H15.8675V22.7167Z" fill="#98B8F2"/>
<path d="M15.8675 25.8759H10.5774V29.0367H15.8675V25.8759Z" fill="#98B8F2"/>
<path d="M15.8675 29.0366H10.5774V32.1974H15.8675V29.0366Z" fill="#98B8F2"/>
<path d="M15.8675 32.1975H10.5774V35.3583H15.8675V32.1975Z" fill="#98B8F2"/>
<path d="M15.8675 35.3583H10.5774V38.5191H15.8675V35.3583Z" fill="#98B8F2"/>
<path d="M15.8675 38.519H10.5774V41.6782H15.8675V38.519Z" fill="#98B8F2"/>
<path d="M21.1574 38.519H15.8674V41.6782H21.1574V38.519Z" fill="#98B8F2"/>
<path d="M26.4475 6.91418H21.1575V10.075H26.4475V6.91418Z" fill="#98B8F2"/>
<path d="M26.4475 10.075H21.1575V13.2342H26.4475V10.075Z" fill="#98B8F2"/>
<path d="M26.4475 13.2341H21.1575V16.3949H26.4475V13.2341Z" fill="#98B8F2"/>
<path d="M26.4475 16.395H21.1575V19.5558H26.4475V16.395Z" fill="#98B8F2"/>
<path d="M26.4475 19.5558H21.1575V22.7166H26.4475V19.5558Z" fill="#98B8F2"/>
<path d="M26.4475 22.7167H21.1575V25.8759H26.4475V22.7167Z" fill="#98B8F2"/>
<path d="M26.4475 25.8759H21.1575V29.0367H26.4475V25.8759Z" fill="#98B8F2"/>
<path d="M26.4475 29.0366H21.1575V32.1974H26.4475V29.0366Z" fill="#98B8F2"/>
<path d="M26.4475 32.1975H21.1575V35.3583H26.4475V32.1975Z" fill="#98B8F2"/>
<path d="M26.4475 35.3583H21.1575V38.5191H26.4475V35.3583Z" fill="#98B8F2"/>
<path d="M26.4475 38.519H21.1575V41.6782H26.4475V38.519Z" fill="#98B8F2"/>
<path d="M31.7349 3.7533H26.4476V6.91411H31.7349V3.7533Z" fill="#98B8F2"/>
<path d="M31.7349 6.91418H26.4476V10.075H31.7349V6.91418Z" fill="#98B8F2"/>
<path d="M31.7349 10.075H26.4476V13.2342H31.7349V10.075Z" fill="#98B8F2"/>
<path d="M31.7349 13.2341H26.4476V16.3949H31.7349V13.2341Z" fill="#98B8F2"/>
<path d="M31.7349 16.395H26.4476V19.5558H31.7349V16.395Z" fill="#98B8F2"/>
<path d="M31.7349 19.5558H26.4476V22.7166H31.7349V19.5558Z" fill="#98B8F2"/>
<path d="M31.7349 22.7167H26.4476V25.8759H31.7349V22.7167Z" fill="#98B8F2"/>
<path d="M31.7349 25.8759H26.4476V29.0367H31.7349V25.8759Z" fill="#98B8F2"/>
<path d="M31.7349 29.0366H26.4476V32.1974H31.7349V29.0366Z" fill="#98B8F2"/>
<path d="M31.7349 32.1975H26.4476V35.3583H31.7349V32.1975Z" fill="#98B8F2"/>
<path d="M31.7349 35.3583H26.4476V38.5191H31.7349V35.3583Z" fill="#98B8F2"/>
<path d="M31.7349 38.519H26.4476V41.6782H31.7349V38.519Z" fill="#98B8F2"/>
<path d="M37.0249 3.7533H31.7349V6.91411H37.0249V3.7533Z" fill="#98B8F2"/>
<path d="M37.0249 6.91418H31.7349V10.075H37.0249V6.91418Z" fill="#98B8F2"/>
<path d="M37.0249 10.075H31.7349V13.2342H37.0249V10.075Z" fill="#98B8F2"/>
<path d="M37.0249 13.2341H31.7349V16.3949H37.0249V13.2341Z" fill="#98B8F2"/>
<path d="M37.0249 16.395H31.7349V19.5558H37.0249V16.395Z" fill="#98B8F2"/>
<path d="M37.0249 19.5558H31.7349V22.7166H37.0249V19.5558Z" fill="#98B8F2"/>
<path d="M37.0249 22.7167H31.7349V25.8759H37.0249V22.7167Z" fill="#98B8F2"/>
<path d="M37.0249 25.8759H31.7349V29.0367H37.0249V25.8759Z" fill="#98B8F2"/>
<path d="M37.0249 29.0366H31.7349V32.1974H37.0249V29.0366Z" fill="#98B8F2"/>
<path d="M37.0249 32.1975H31.7349V35.3583H37.0249V32.1975Z" fill="#98B8F2"/>
<path d="M37.0249 35.3583H31.7349V38.5191H37.0249V35.3583Z" fill="#98B8F2"/>
<path d="M37.0249 38.519H31.7349V41.6782H37.0249V38.519Z" fill="#98B8F2"/>
<path d="M37.0249 41.6783H31.7349V44.8392H37.0249V41.6783Z" fill="#98B8F2"/>
<path d="M42.3149 3.7533H37.0249V6.91411H42.3149V3.7533Z" fill="#98B8F2"/>
<path d="M42.3149 6.91418H37.0249V10.075H42.3149V6.91418Z" fill="#98B8F2"/>
<path d="M42.3149 10.075H37.0249V13.2342H42.3149V10.075Z" fill="#98B8F2"/>
<path d="M42.3149 13.2341H37.0249V16.3949H42.3149V13.2341Z" fill="#98B8F2"/>
<path d="M42.3149 16.395H37.0249V19.5558H42.3149V16.395Z" fill="#98B8F2"/>
<path d="M42.3149 19.5558H37.0249V22.7166H42.3149V19.5558Z" fill="#98B8F2"/>
<path d="M42.3149 22.7167H37.0249V25.8759H42.3149V22.7167Z" fill="#98B8F2"/>
<path d="M42.3149 25.8759H37.0249V29.0367H42.3149V25.8759Z" fill="#98B8F2"/>
<path d="M42.3149 29.0366H37.0249V32.1974H42.3149V29.0366Z" fill="#98B8F2"/>
<path d="M42.3149 32.1975H37.0249V35.3583H42.3149V32.1975Z" fill="#98B8F2"/>
<path d="M42.3149 35.3583H37.0249V38.5191H42.3149V35.3583Z" fill="#98B8F2"/>
<path d="M42.3149 38.519H37.0249V41.6782H42.3149V38.519Z" fill="#98B8F2"/>
<path d="M42.3149 41.6783H37.0249V44.8392H42.3149V41.6783Z" fill="#98B8F2"/>
<path d="M47.605 3.7533H42.3149V6.91411H47.605V3.7533Z" fill="#98B8F2"/>
<path d="M47.605 6.91418H42.3149V10.075H47.605V6.91418Z" fill="#98B8F2"/>
<path d="M47.605 10.075H42.3149V13.2342H47.605V10.075Z" fill="#98B8F2"/>
<path d="M47.605 13.2341H42.3149V16.3949H47.605V13.2341Z" fill="#98B8F2"/>
<path d="M47.605 16.395H42.3149V19.5558H47.605V16.395Z" fill="#98B8F2"/>
<path d="M47.605 19.5558H42.3149V22.7166H47.605V19.5558Z" fill="#98B8F2"/>
<path d="M47.605 22.7167H42.3149V25.8759H47.605V22.7167Z" fill="#98B8F2"/>
<path d="M47.605 25.8759H42.3149V29.0367H47.605V25.8759Z" fill="#98B8F2"/>
<path d="M47.605 29.0366H42.3149V32.1974H47.605V29.0366Z" fill="#98B8F2"/>
<path d="M47.605 32.1975H42.3149V35.3583H47.605V32.1975Z" fill="#98B8F2"/>
<path d="M47.605 35.3583H42.3149V38.5191H47.605V35.3583Z" fill="#98B8F2"/>
<path d="M47.605 38.519H42.3149V41.6782H47.605V38.519Z" fill="#98B8F2"/>
<path d="M47.605 41.6783H42.3149V44.8392H47.605V41.6783Z" fill="#98B8F2"/>
<path d="M52.8951 3.7533H47.605V6.91411H52.8951V3.7533Z" fill="#98B8F2"/>
<path d="M52.8951 6.91418H47.605V10.075H52.8951V6.91418Z" fill="#98B8F2"/>
<path d="M52.8951 10.075H47.605V13.2342H52.8951V10.075Z" fill="#98B8F2"/>
<path d="M52.8951 13.2341H47.605V16.3949H52.8951V13.2341Z" fill="#98B8F2"/>
<path d="M52.8951 16.395H47.605V19.5558H52.8951V16.395Z" fill="#98B8F2"/>
<path d="M52.8951 19.5558H47.605V22.7166H52.8951V19.5558Z" fill="#98B8F2"/>
<path d="M52.8951 22.7167H47.605V25.8759H52.8951V22.7167Z" fill="#98B8F2"/>
<path d="M52.8951 25.8759H47.605V29.0367H52.8951V25.8759Z" fill="#98B8F2"/>
<path d="M52.8951 29.0366H47.605V32.1974H52.8951V29.0366Z" fill="#98B8F2"/>
<path d="M52.8951 32.1975H47.605V35.3583H52.8951V32.1975Z" fill="#98B8F2"/>
<path d="M52.8951 35.3583H47.605V38.5191H52.8951V35.3583Z" fill="#98B8F2"/>
<path d="M52.8951 38.519H47.605V41.6782H52.8951V38.519Z" fill="#98B8F2"/>
<path d="M52.8951 41.6783H47.605V44.8392H52.8951V41.6783Z" fill="#98B8F2"/>
<path d="M58.1823 3.7533H52.895V6.91411H58.1823V3.7533Z" fill="#98B8F2"/>
<path d="M58.1823 6.91418H52.895V10.075H58.1823V6.91418Z" fill="#98B8F2"/>
<path d="M58.1823 10.075H52.895V13.2342H58.1823V10.075Z" fill="#98B8F2"/>
<path d="M58.1823 13.2341H52.895V16.3949H58.1823V13.2341Z" fill="#98B8F2"/>
<path d="M58.1823 16.395H52.895V19.5558H58.1823V16.395Z" fill="#98B8F2"/>
<path d="M58.1823 19.5558H52.895V22.7166H58.1823V19.5558Z" fill="#98B8F2"/>
<path d="M58.1823 22.7167H52.895V25.8759H58.1823V22.7167Z" fill="#98B8F2"/>
<path d="M58.1823 25.8759H52.895V29.0367H58.1823V25.8759Z" fill="#98B8F2"/>
<path d="M58.1823 29.0366H52.895V32.1974H58.1823V29.0366Z" fill="#98B8F2"/>
<path d="M58.1823 32.1975H52.895V35.3583H58.1823V32.1975Z" fill="#98B8F2"/>
<path d="M58.1823 35.3583H52.895V38.5191H58.1823V35.3583Z" fill="#98B8F2"/>
<path d="M58.1823 38.519H52.895V41.6782H58.1823V38.519Z" fill="#98B8F2"/>
<path d="M58.1823 41.6783H52.895V44.8392H58.1823V41.6783Z" fill="#98B8F2"/>
<path d="M63.4724 3.7533H58.1824V6.91411H63.4724V3.7533Z" fill="#98B8F2"/>
<path d="M63.4724 6.91418H58.1824V10.075H63.4724V6.91418Z" fill="#98B8F2"/>
<path d="M63.4724 10.075H58.1824V13.2342H63.4724V10.075Z" fill="#98B8F2"/>
<path d="M63.4724 13.2341H58.1824V16.3949H63.4724V13.2341Z" fill="#98B8F2"/>
<path d="M63.4724 16.395H58.1824V19.5558H63.4724V16.395Z" fill="#98B8F2"/>
<path d="M63.4724 19.5558H58.1824V22.7166H63.4724V19.5558Z" fill="#98B8F2"/>
<path d="M63.4724 22.7167H58.1824V25.8759H63.4724V22.7167Z" fill="#98B8F2"/>
<path d="M63.4724 25.8759H58.1824V29.0367H63.4724V25.8759Z" fill="#98B8F2"/>
<path d="M63.4724 29.0366H58.1824V32.1974H63.4724V29.0366Z" fill="#98B8F2"/>
<path d="M63.4724 32.1975H58.1824V35.3583H63.4724V32.1975Z" fill="#98B8F2"/>
<path d="M63.4724 35.3583H58.1824V38.5191H63.4724V35.3583Z" fill="#98B8F2"/>
<path d="M63.4724 38.519H58.1824V41.6782H63.4724V38.519Z" fill="#98B8F2"/>
<path d="M63.4724 41.6783H58.1824V44.8392H63.4724V41.6783Z" fill="#98B8F2"/>
<path d="M68.7624 3.7533H63.4724V6.91411H68.7624V3.7533Z" fill="#98B8F2"/>
<path d="M68.7624 6.91418H63.4724V10.075H68.7624V6.91418Z" fill="#98B8F2"/>
<path d="M68.7624 10.075H63.4724V13.2342H68.7624V10.075Z" fill="#98B8F2"/>
<path d="M68.7624 13.2341H63.4724V16.3949H68.7624V13.2341Z" fill="#98B8F2"/>
<path d="M68.7624 16.395H63.4724V19.5558H68.7624V16.395Z" fill="#98B8F2"/>
<path d="M68.7624 19.5558H63.4724V22.7166H68.7624V19.5558Z" fill="#98B8F2"/>
<path d="M68.7624 22.7167H63.4724V25.8759H68.7624V22.7167Z" fill="#98B8F2"/>
<path d="M68.7624 25.8759H63.4724V29.0367H68.7624V25.8759Z" fill="#98B8F2"/>
<path d="M68.7624 29.0366H63.4724V32.1974H68.7624V29.0366Z" fill="#98B8F2"/>
<path d="M68.7624 32.1975H63.4724V35.3583H68.7624V32.1975Z" fill="#98B8F2"/>
<path d="M68.7624 35.3583H63.4724V38.5191H68.7624V35.3583Z" fill="#98B8F2"/>
<path d="M68.7624 38.519H63.4724V41.6782H68.7624V38.519Z" fill="#98B8F2"/>
<path d="M68.7624 41.6783H63.4724V44.8392H68.7624V41.6783Z" fill="#98B8F2"/>
<path d="M74.0525 41.6783H68.7625V44.8392H74.0525V41.6783Z" fill="#98B8F2"/>
<path d="M79.3398 3.7533H74.0525V6.91411H79.3398V3.7533Z" fill="#98B8F2"/>
<path d="M79.3398 6.91418H74.0525V10.075H79.3398V6.91418Z" fill="#98B8F2"/>
<path d="M79.3398 10.075H74.0525V13.2342H79.3398V10.075Z" fill="#98B8F2"/>
<path d="M79.3398 13.2341H74.0525V16.3949H79.3398V13.2341Z" fill="#98B8F2"/>
<path d="M79.3398 16.395H74.0525V19.5558H79.3398V16.395Z" fill="#98B8F2"/>
<path d="M79.3398 19.5558H74.0525V22.7166H79.3398V19.5558Z" fill="#98B8F2"/>
<path d="M79.3398 22.7167H74.0525V25.8759H79.3398V22.7167Z" fill="#98B8F2"/>
<path d="M79.3398 25.8759H74.0525V29.0367H79.3398V25.8759Z" fill="#98B8F2"/>
<path d="M79.3398 29.0366H74.0525V32.1974H79.3398V29.0366Z" fill="#98B8F2"/>
<path d="M79.3398 32.1975H74.0525V35.3583H79.3398V32.1975Z" fill="#98B8F2"/>
<path d="M79.3398 35.3583H74.0525V38.5191H79.3398V35.3583Z" fill="#98B8F2"/>
<path d="M79.3398 38.519H74.0525V41.6782H79.3398V38.519Z" fill="#98B8F2"/>
<path d="M79.3398 41.6783H74.0525V44.8392H79.3398V41.6783Z" fill="#98B8F2"/>
<path d="M84.6299 3.7533H79.3398V6.91411H84.6299V3.7533Z" fill="#98B8F2"/>
<path d="M84.6299 6.91418H79.3398V10.075H84.6299V6.91418Z" fill="#98B8F2"/>
<path d="M84.6299 10.075H79.3398V13.2342H84.6299V10.075Z" fill="#98B8F2"/>
<path d="M84.6299 13.2341H79.3398V16.3949H84.6299V13.2341Z" fill="#98B8F2"/>
<path d="M84.6299 16.395H79.3398V19.5558H84.6299V16.395Z" fill="#98B8F2"/>
<path d="M84.6299 19.5558H79.3398V22.7166H84.6299V19.5558Z" fill="#98B8F2"/>
<path d="M84.6299 22.7167H79.3398V25.8759H84.6299V22.7167Z" fill="#98B8F2"/>
<path d="M84.6299 25.8759H79.3398V29.0367H84.6299V25.8759Z" fill="#98B8F2"/>
<path d="M84.6299 29.0366H79.3398V32.1974H84.6299V29.0366Z" fill="#98B8F2"/>
<path d="M84.6299 32.1975H79.3398V35.3583H84.6299V32.1975Z" fill="#98B8F2"/>
<path d="M84.6299 35.3583H79.3398V38.5191H84.6299V35.3583Z" fill="#98B8F2"/>
<path d="M84.6299 38.519H79.3398V41.6782H84.6299V38.519Z" fill="#98B8F2"/>
<path d="M84.6299 41.6783H79.3398V44.8392H84.6299V41.6783Z" fill="#98B8F2"/>
<path d="M89.9199 3.7533H84.6299V6.91411H89.9199V3.7533Z" fill="#98B8F2"/>
<path d="M89.9199 6.91418H84.6299V10.075H89.9199V6.91418Z" fill="#98B8F2"/>
<path d="M89.9199 10.075H84.6299V13.2342H89.9199V10.075Z" fill="#98B8F2"/>
<path d="M89.9199 13.2341H84.6299V16.3949H89.9199V13.2341Z" fill="#98B8F2"/>
<path d="M89.9199 16.395H84.6299V19.5558H89.9199V16.395Z" fill="#98B8F2"/>
<path d="M89.9199 19.5558H84.6299V22.7166H89.9199V19.5558Z" fill="#98B8F2"/>
<path d="M89.9199 22.7167H84.6299V25.8759H89.9199V22.7167Z" fill="#98B8F2"/>
<path d="M89.9199 25.8759H84.6299V29.0367H89.9199V25.8759Z" fill="#98B8F2"/>
<path d="M89.9199 29.0366H84.6299V32.1974H89.9199V29.0366Z" fill="#98B8F2"/>
<path d="M89.9199 32.1975H84.6299V35.3583H89.9199V32.1975Z" fill="#98B8F2"/>
<path d="M89.9199 35.3583H84.6299V38.5191H89.9199V35.3583Z" fill="#98B8F2"/>
<path d="M89.9199 38.519H84.6299V41.6782H89.9199V38.519Z" fill="#98B8F2"/>
<path d="M89.9199 41.6783H84.6299V44.8392H89.9199V41.6783Z" fill="#98B8F2"/>
<path d="M95.2099 3.7533H89.9199V6.91411H95.2099V3.7533Z" fill="#98B8F2"/>
<path d="M95.2099 6.91418H89.9199V10.075H95.2099V6.91418Z" fill="#98B8F2"/>
<path d="M95.2099 10.075H89.9199V13.2342H95.2099V10.075Z" fill="#98B8F2"/>
<path d="M95.2099 13.2341H89.9199V16.3949H95.2099V13.2341Z" fill="#98B8F2"/>
<path d="M95.2099 16.395H89.9199V19.5558H95.2099V16.395Z" fill="#98B8F2"/>
<path d="M95.2099 19.5558H89.9199V22.7166H95.2099V19.5558Z" fill="#98B8F2"/>
<path d="M95.2099 22.7167H89.9199V25.8759H95.2099V22.7167Z" fill="#98B8F2"/>
<path d="M95.2099 25.8759H89.9199V29.0367H95.2099V25.8759Z" fill="#98B8F2"/>
<path d="M95.2099 29.0366H89.9199V32.1974H95.2099V29.0366Z" fill="#98B8F2"/>
<path d="M95.2099 32.1975H89.9199V35.3583H95.2099V32.1975Z" fill="#98B8F2"/>
<path d="M95.2099 35.3583H89.9199V38.5191H95.2099V35.3583Z" fill="#98B8F2"/>
<path d="M95.2099 38.519H89.9199V41.6782H95.2099V38.519Z" fill="#98B8F2"/>
<path d="M95.2099 41.6783H89.9199V44.8392H95.2099V41.6783Z" fill="#98B8F2"/>
<path d="M100.5 3.7533H95.21V6.91411H100.5V3.7533Z" fill="#98B8F2"/>
<path d="M100.5 6.91418H95.21V10.075H100.5V6.91418Z" fill="#98B8F2"/>
<path d="M100.5 10.075H95.21V13.2342H100.5V10.075Z" fill="#98B8F2"/>
<path d="M100.5 13.2341H95.21V16.3949H100.5V13.2341Z" fill="#98B8F2"/>
<path d="M100.5 16.395H95.21V19.5558H100.5V16.395Z" fill="#98B8F2"/>
<path d="M100.5 19.5558H95.21V22.7166H100.5V19.5558Z" fill="#98B8F2"/>
<path d="M100.5 22.7167H95.21V25.8759H100.5V22.7167Z" fill="#98B8F2"/>
<path d="M100.5 25.8759H95.21V29.0367H100.5V25.8759Z" fill="#98B8F2"/>
<path d="M100.5 29.0366H95.21V32.1974H100.5V29.0366Z" fill="#98B8F2"/>
<path d="M100.5 32.1975H95.21V35.3583H100.5V32.1975Z" fill="#98B8F2"/>
<path d="M100.5 35.3583H95.21V38.5191H100.5V35.3583Z" fill="#98B8F2"/>
<path d="M100.5 38.519H95.21V41.6782H100.5V38.519Z" fill="#98B8F2"/>
<path d="M100.5 41.6783H95.21V44.8392H100.5V41.6783Z" fill="#98B8F2"/>
<path d="M105.787 3.7533H100.5V6.91411H105.787V3.7533Z" fill="#98B8F2"/>
<path d="M105.787 6.91418H100.5V10.075H105.787V6.91418Z" fill="#98B8F2"/>
<path d="M105.787 10.075H100.5V13.2342H105.787V10.075Z" fill="#98B8F2"/>
<path d="M105.787 13.2341H100.5V16.3949H105.787V13.2341Z" fill="#98B8F2"/>
<path d="M105.787 16.395H100.5V19.5558H105.787V16.395Z" fill="#98B8F2"/>
<path d="M105.787 19.5558H100.5V22.7166H105.787V19.5558Z" fill="#98B8F2"/>
<path d="M105.787 22.7167H100.5V25.8759H105.787V22.7167Z" fill="#98B8F2"/>
<path d="M105.787 25.8759H100.5V29.0367H105.787V25.8759Z" fill="#98B8F2"/>
<path d="M105.787 29.0366H100.5V32.1974H105.787V29.0366Z" fill="#98B8F2"/>
<path d="M105.787 32.1975H100.5V35.3583H105.787V32.1975Z" fill="#98B8F2"/>
<path d="M105.787 35.3583H100.5V38.5191H105.787V35.3583Z" fill="#98B8F2"/>
<path d="M105.787 38.519H100.5V41.6782H105.787V38.519Z" fill="#98B8F2"/>
<path d="M105.787 41.6783H100.5V44.8392H105.787V41.6783Z" fill="#98B8F2"/>
<path d="M111.077 3.7533H105.787V6.91411H111.077V3.7533Z" fill="#98B8F2"/>
<path d="M111.077 6.91418H105.787V10.075H111.077V6.91418Z" fill="#98B8F2"/>
<path d="M111.077 10.075H105.787V13.2342H111.077V10.075Z" fill="#98B8F2"/>
<path d="M111.077 13.2341H105.787V16.3949H111.077V13.2341Z" fill="#98B8F2"/>
<path d="M111.077 16.395H105.787V19.5558H111.077V16.395Z" fill="#98B8F2"/>
<path d="M111.077 19.5558H105.787V22.7166H111.077V19.5558Z" fill="#98B8F2"/>
<path d="M111.077 22.7167H105.787V25.8759H111.077V22.7167Z" fill="#98B8F2"/>
<path d="M111.077 25.8759H105.787V29.0367H111.077V25.8759Z" fill="#98B8F2"/>
<path d="M111.077 29.0366H105.787V32.1974H111.077V29.0366Z" fill="#98B8F2"/>
<path d="M111.077 32.1975H105.787V35.3583H111.077V32.1975Z" fill="#98B8F2"/>
<path d="M111.077 35.3583H105.787V38.5191H111.077V35.3583Z" fill="#98B8F2"/>
<path d="M111.077 38.519H105.787V41.6782H111.077V38.519Z" fill="#98B8F2"/>
<path d="M111.077 41.6783H105.787V44.8392H111.077V41.6783Z" fill="#98B8F2"/>
<path d="M116.367 3.7533H111.077V6.91411H116.367V3.7533Z" fill="#98B8F2"/>
<path d="M116.367 6.91418H111.077V10.075H116.367V6.91418Z" fill="#98B8F2"/>
<path d="M116.367 10.075H111.077V13.2342H116.367V10.075Z" fill="#98B8F2"/>
<path d="M116.367 13.2341H111.077V16.3949H116.367V13.2341Z" fill="#98B8F2"/>
<path d="M116.367 16.395H111.077V19.5558H116.367V16.395Z" fill="#98B8F2"/>
<path d="M116.367 19.5558H111.077V22.7166H116.367V19.5558Z" fill="#98B8F2"/>
<path d="M116.367 22.7167H111.077V25.8759H116.367V22.7167Z" fill="#98B8F2"/>
<path d="M116.367 25.8759H111.077V29.0367H116.367V25.8759Z" fill="#98B8F2"/>
<path d="M116.367 29.0366H111.077V32.1974H116.367V29.0366Z" fill="#98B8F2"/>
<path d="M116.367 32.1975H111.077V35.3583H116.367V32.1975Z" fill="#98B8F2"/>
<path d="M116.367 35.3583H111.077V38.5191H116.367V35.3583Z" fill="#98B8F2"/>
<path d="M116.367 38.519H111.077V41.6782H116.367V38.519Z" fill="#98B8F2"/>
<path d="M116.367 41.6783H111.077V44.8392H116.367V41.6783Z" fill="#98B8F2"/>
<path d="M121.657 41.6783H116.367V44.8392H121.657V41.6783Z" fill="#98B8F2"/>
<path d="M121.657 38.519H116.367V41.6782H121.657V38.519Z" fill="#98B8F2"/>
<path d="M121.657 35.3583H116.367V38.5191H121.657V35.3583Z" fill="#98B8F2"/>
<path d="M121.657 32.1975H116.367V35.3583H121.657V32.1975Z" fill="#98B8F2"/>
<path d="M121.657 29.0366H116.367V32.1974H121.657V29.0366Z" fill="#98B8F2"/>
<path d="M121.657 25.8759H116.367V29.0367H121.657V25.8759Z" fill="#98B8F2"/>
<path d="M121.657 22.7167H116.367V25.8759H121.657V22.7167Z" fill="#98B8F2"/>
<path d="M121.657 19.5558H116.367V22.7166H121.657V19.5558Z" fill="#98B8F2"/>
<path d="M121.657 16.395H116.367V19.5558H121.657V16.395Z" fill="#98B8F2"/>
<path d="M121.657 13.2341H116.367V16.3949H121.657V13.2341Z" fill="#98B8F2"/>
<path d="M121.657 10.075H116.367V13.2342H121.657V10.075Z" fill="#98B8F2"/>
<path d="M121.657 6.91418H116.367V10.075H121.657V6.91418Z" fill="#98B8F2"/>
<path d="M121.657 3.7533H116.367V6.91411H121.657V3.7533Z" fill="#98B8F2"/>
<path d="M126.947 3.7533H121.657V6.91411H126.947V3.7533Z" fill="#98B8F2"/>
<path d="M132.235 3.7533H126.948V6.91411H132.235V3.7533Z" fill="#98B8F2"/>
<path d="M132.235 6.91418H126.948V10.075H132.235V6.91418Z" fill="#98B8F2"/>
<path d="M132.235 10.075H126.948V13.2342H132.235V10.075Z" fill="#98B8F2"/>
<path d="M132.235 13.2341H126.948V16.3949H132.235V13.2341Z" fill="#98B8F2"/>
<path d="M132.235 16.395H126.948V19.5558H132.235V16.395Z" fill="#98B8F2"/>
<path d="M132.235 19.5558H126.948V22.7166H132.235V19.5558Z" fill="#98B8F2"/>
<path d="M132.235 22.7167H126.948V25.8759H132.235V22.7167Z" fill="#98B8F2"/>
<path d="M132.235 25.8759H126.948V29.0367H132.235V25.8759Z" fill="#98B8F2"/>
<path d="M132.235 29.0366H126.948V32.1974H132.235V29.0366Z" fill="#98B8F2"/>
<path d="M132.235 32.1975H126.948V35.3583H132.235V32.1975Z" fill="#98B8F2"/>
<path d="M132.235 35.3583H126.948V38.5191H132.235V35.3583Z" fill="#98B8F2"/>
<path d="M132.235 38.519H126.948V41.6782H132.235V38.519Z" fill="#98B8F2"/>
<path d="M132.235 41.6783H126.948V44.8392H132.235V41.6783Z" fill="#98B8F2"/>
<path d="M137.525 3.7533H132.235V6.91411H137.525V3.7533Z" fill="#98B8F2"/>
<path d="M137.525 6.91418H132.235V10.075H137.525V6.91418Z" fill="#98B8F2"/>
<path d="M137.525 10.075H132.235V13.2342H137.525V10.075Z" fill="#98B8F2"/>
<path d="M137.525 13.2341H132.235V16.3949H137.525V13.2341Z" fill="#98B8F2"/>
<path d="M137.525 16.395H132.235V19.5558H137.525V16.395Z" fill="#98B8F2"/>
<path d="M137.525 19.5558H132.235V22.7166H137.525V19.5558Z" fill="#98B8F2"/>
<path d="M137.525 22.7167H132.235V25.8759H137.525V22.7167Z" fill="#98B8F2"/>
<path d="M137.525 25.8759H132.235V29.0367H137.525V25.8759Z" fill="#98B8F2"/>
<path d="M137.525 29.0366H132.235V32.1974H137.525V29.0366Z" fill="#98B8F2"/>
<path d="M137.525 32.1975H132.235V35.3583H137.525V32.1975Z" fill="#98B8F2"/>
<path d="M137.525 35.3583H132.235V38.5191H137.525V35.3583Z" fill="#98B8F2"/>
<path d="M137.525 38.519H132.235V41.6782H137.525V38.519Z" fill="#98B8F2"/>
<path d="M137.525 41.6783H132.235V44.8392H137.525V41.6783Z" fill="#98B8F2"/>
<path d="M142.815 3.7533H137.525V6.91411H142.815V3.7533Z" fill="#98B8F2"/>
<path d="M142.815 6.91418H137.525V10.075H142.815V6.91418Z" fill="#98B8F2"/>
<path d="M142.815 10.075H137.525V13.2342H142.815V10.075Z" fill="#98B8F2"/>
<path d="M142.815 13.2341H137.525V16.3949H142.815V13.2341Z" fill="#98B8F2"/>
<path d="M142.815 16.395H137.525V19.5558H142.815V16.395Z" fill="#98B8F2"/>
<path d="M142.815 19.5558H137.525V22.7166H142.815V19.5558Z" fill="#98B8F2"/>
<path d="M142.815 22.7167H137.525V25.8759H142.815V22.7167Z" fill="#98B8F2"/>
<path d="M142.815 25.8759H137.525V29.0367H142.815V25.8759Z" fill="#98B8F2"/>
<path d="M142.815 29.0366H137.525V32.1974H142.815V29.0366Z" fill="#98B8F2"/>
<path d="M142.815 32.1975H137.525V35.3583H142.815V32.1975Z" fill="#98B8F2"/>
<path d="M142.815 35.3583H137.525V38.5191H142.815V35.3583Z" fill="#98B8F2"/>
<path d="M142.815 38.519H137.525V41.6782H142.815V38.519Z" fill="#98B8F2"/>
<path d="M142.815 41.6783H137.525V44.8392H142.815V41.6783Z" fill="#98B8F2"/>
<path d="M148.105 3.7533H142.815V6.91411H148.105V3.7533Z" fill="#98B8F2"/>
<path d="M148.105 6.91418H142.815V10.075H148.105V6.91418Z" fill="#98B8F2"/>
<path d="M148.105 10.075H142.815V13.2342H148.105V10.075Z" fill="#98B8F2"/>
<path d="M148.105 13.2341H142.815V16.3949H148.105V13.2341Z" fill="#98B8F2"/>
<path d="M148.105 16.395H142.815V19.5558H148.105V16.395Z" fill="#98B8F2"/>
<path d="M148.105 19.5558H142.815V22.7166H148.105V19.5558Z" fill="#98B8F2"/>
<path d="M148.105 22.7167H142.815V25.8759H148.105V22.7167Z" fill="#98B8F2"/>
<path d="M148.105 29.0366H142.815V32.1974H148.105V29.0366Z" fill="#98B8F2"/>
<path d="M148.105 32.1975H142.815V35.3583H148.105V32.1975Z" fill="#98B8F2"/>
<path d="M148.105 35.3583H142.815V38.5191H148.105V35.3583Z" fill="#98B8F2"/>
<path d="M148.105 38.519H142.815V41.6782H148.105V38.519Z" fill="#98B8F2"/>
<path d="M148.105 41.6783H142.815V44.8392H148.105V41.6783Z" fill="#98B8F2"/>
<path d="M153.392 3.7533H148.105V6.91411H153.392V3.7533Z" fill="#98B8F2"/>
<path d="M153.392 6.91418H148.105V10.075H153.392V6.91418Z" fill="#98B8F2"/>
<path d="M153.392 10.075H148.105V13.2342H153.392V10.075Z" fill="#98B8F2"/>
<path d="M153.392 13.2341H148.105V16.3949H153.392V13.2341Z" fill="#98B8F2"/>
<path d="M153.392 16.395H148.105V19.5558H153.392V16.395Z" fill="#98B8F2"/>
<path d="M153.392 19.5558H148.105V22.7166H153.392V19.5558Z" fill="#98B8F2"/>
<path d="M153.392 22.7167H148.105V25.8759H153.392V22.7167Z" fill="#98B8F2"/>
<path d="M153.392 29.0366H148.105V32.1974H153.392V29.0366Z" fill="#98B8F2"/>
<path d="M153.392 32.1975H148.105V35.3583H153.392V32.1975Z" fill="#98B8F2"/>
<path d="M153.392 35.3583H148.105V38.5191H153.392V35.3583Z" fill="#98B8F2"/>
<path d="M153.392 38.519H148.105V41.6782H153.392V38.519Z" fill="#98B8F2"/>
<path d="M153.392 41.6783H148.105V44.8392H153.392V41.6783Z" fill="#98B8F2"/>
<path d="M158.682 3.7533H153.392V6.91411H158.682V3.7533Z" fill="#98B8F2"/>
<path d="M158.682 6.91418H153.392V10.075H158.682V6.91418Z" fill="#98B8F2"/>
<path d="M158.682 10.075H153.392V13.2342H158.682V10.075Z" fill="#98B8F2"/>
<path d="M158.682 13.2341H153.392V16.3949H158.682V13.2341Z" fill="#98B8F2"/>
<path d="M158.682 16.395H153.392V19.5558H158.682V16.395Z" fill="#98B8F2"/>
<path d="M158.682 19.5558H153.392V22.7166H158.682V19.5558Z" fill="#98B8F2"/>
<path d="M158.682 22.7167H153.392V25.8759H158.682V22.7167Z" fill="#98B8F2"/>
<path d="M158.682 29.0366H153.392V32.1974H158.682V29.0366Z" fill="#98B8F2"/>
<path d="M158.682 32.1975H153.392V35.3583H158.682V32.1975Z" fill="#98B8F2"/>
<path d="M158.682 35.3583H153.392V38.5191H158.682V35.3583Z" fill="#98B8F2"/>
<path d="M158.682 41.6783H153.392V44.8392H158.682V41.6783Z" fill="#98B8F2"/>
<path d="M158.682 38.519H153.392V41.6782H158.682V38.519Z" fill="#98B8F2"/>
<path d="M163.972 3.7533H158.682V6.91411H163.972V3.7533Z" fill="#98B8F2"/>
<path d="M163.972 6.91418H158.682V10.075H163.972V6.91418Z" fill="#98B8F2"/>
<path d="M163.972 10.075H158.682V13.2342H163.972V10.075Z" fill="#98B8F2"/>
<path d="M163.972 13.2341H158.682V16.3949H163.972V13.2341Z" fill="#98B8F2"/>
<path d="M163.972 16.395H158.682V19.5558H163.972V16.395Z" fill="#98B8F2"/>
<path d="M163.972 19.5558H158.682V22.7166H163.972V19.5558Z" fill="#98B8F2"/>
<path d="M163.972 22.7167H158.682V25.8759H163.972V22.7167Z" fill="#98B8F2"/>
<path d="M163.972 29.0366H158.682V32.1974H163.972V29.0366Z" fill="#98B8F2"/>
<path d="M163.972 32.1975H158.682V35.3583H163.972V32.1975Z" fill="#98B8F2"/>
<path d="M163.972 35.3583H158.682V38.5191H163.972V35.3583Z" fill="#98B8F2"/>
<path d="M163.972 38.519H158.682V41.6782H163.972V38.519Z" fill="#98B8F2"/>
<path d="M169.262 3.7533H163.972V6.91411H169.262V3.7533Z" fill="#98B8F2"/>
<path d="M169.262 6.91418H163.972V10.075H169.262V6.91418Z" fill="#98B8F2"/>
<path d="M169.262 10.075H163.972V13.2342H169.262V10.075Z" fill="#98B8F2"/>
<path d="M169.262 13.2341H163.972V16.3949H169.262V13.2341Z" fill="#98B8F2"/>
<path d="M169.262 16.395H163.972V19.5558H169.262V16.395Z" fill="#98B8F2"/>
<path d="M169.262 19.5558H163.972V22.7166H169.262V19.5558Z" fill="#98B8F2"/>
<path d="M169.262 22.7167H163.972V25.8759H169.262V22.7167Z" fill="#98B8F2"/>
<path d="M169.262 29.0366H163.972V32.1974H169.262V29.0366Z" fill="#98B8F2"/>
<path d="M169.262 32.1975H163.972V35.3583H169.262V32.1975Z" fill="#98B8F2"/>
<path d="M169.262 35.3583H163.972V38.5191H169.262V35.3583Z" fill="#98B8F2"/>
<path d="M169.262 38.519H163.972V41.6782H169.262V38.519Z" fill="#98B8F2"/>
<path d="M174.553 3.7533H169.262V6.91411H174.553V3.7533Z" fill="#98B8F2"/>
<path d="M174.553 6.91418H169.262V10.075H174.553V6.91418Z" fill="#98B8F2"/>
<path d="M179.84 6.91418H174.552V10.075H179.84V6.91418Z" fill="#98B8F2"/>
<path d="M179.84 10.075H174.552V13.2342H179.84V10.075Z" fill="#98B8F2"/>
<path d="M174.553 10.075H169.262V13.2342H174.553V10.075Z" fill="#98B8F2"/>
<path d="M174.553 13.2341H169.262V16.3949H174.553V13.2341Z" fill="#98B8F2"/>
<path d="M174.553 16.395H169.262V19.5558H174.553V16.395Z" fill="#98B8F2"/>
<path d="M174.553 19.5558H169.262V22.7166H174.553V19.5558Z" fill="#98B8F2"/>
<path d="M174.553 22.7167H169.262V25.8759H174.553V22.7167Z" fill="#98B8F2"/>
<path d="M174.553 38.519H169.262V41.6782H174.553V38.519Z" fill="#98B8F2"/>
<path d="M174.553 35.3583H169.262V38.5191H174.553V35.3583Z" fill="#98B8F2"/>
<path d="M174.553 32.1975H169.262V35.3583H174.553V32.1975Z" fill="#98B8F2"/>
<path d="M174.553 29.0366H169.262V32.1974H174.553V29.0366Z" fill="#98B8F2"/>
<path d="M174.553 25.8759H169.262V29.0367H174.553V25.8759Z" fill="#98B8F2"/>
<path d="M169.262 25.8759H163.972V29.0367H169.262V25.8759Z" fill="#98B8F2"/>
<path d="M163.972 25.8759H158.682V29.0367H163.972V25.8759Z" fill="#98B8F2"/>
<path d="M158.682 25.8759H153.392V29.0367H158.682V25.8759Z" fill="#98B8F2"/>
<path d="M153.392 25.8759H148.105V29.0367H153.392V25.8759Z" fill="#98B8F2"/>
<path d="M148.105 25.8759H142.815V29.0367H148.105V25.8759Z" fill="#98B8F2"/>
<path d="M21.1574 3.7533H15.8674V6.91411H21.1574V3.7533Z" fill="black"/>
<path d="M15.8675 41.6783H10.5774V44.8392H15.8675V41.6783Z" fill="black"/>
<path d="M15.8675 10.075H10.5774V13.2342H15.8675V10.075Z" fill="black"/>
<path d="M15.8675 6.91418H10.5774V10.075H15.8675V6.91418Z" fill="black"/>
<path d="M15.8675 3.7533H10.5774V6.91411H15.8675V3.7533Z" fill="black"/>
<path d="M10.5773 41.6783H5.28729V44.8392H10.5773V41.6783Z" fill="black"/>
<path d="M10.5773 38.519H5.28729V41.6782H10.5773V38.519Z" fill="black"/>
<path d="M10.5773 35.3583H5.28729V38.5191H10.5773V35.3583Z" fill="black"/>
<path d="M10.5773 32.1975H5.28729V35.3583H10.5773V32.1975Z" fill="black"/>
<path d="M10.5773 29.0366H5.28729V32.1974H10.5773V29.0366Z" fill="black"/>
<path d="M10.5773 25.8759H5.28729V29.0367H10.5773V25.8759Z" fill="black"/>
<path d="M10.5773 13.2341H5.28729V16.3949H10.5773V13.2341Z" fill="black"/>
<path d="M10.5773 10.075H5.28729V13.2342H10.5773V10.075Z" fill="black"/>
<path d="M5.28734 25.8759H0V29.0367H5.28734V25.8759Z" fill="black"/>
<path d="M5.28734 22.7167H0V25.8759H5.28734V22.7167Z" fill="black"/>
<path d="M5.28734 19.5558H0V22.7166H5.28734V19.5558Z" fill="black"/>
<path d="M5.28734 16.395H0V19.5558H5.28734V16.395Z" fill="black"/>
<path d="M37.0249 44.8391H31.7349V47.9999H37.0249V44.8391Z" fill="black"/>
<path d="M31.7349 44.8391H26.4476V47.9999H31.7349V44.8391Z" fill="black"/>
<path d="M31.7349 41.6783H26.4476V44.8392H31.7349V41.6783Z" fill="black"/>
<path d="M26.4475 41.6783H21.1575V44.8392H26.4475V41.6783Z" fill="black"/>
<path d="M26.4475 3.7533H21.1575V6.91411H26.4475V3.7533Z" fill="black"/>
<path d="M21.1574 41.6783H15.8674V44.8392H21.1574V41.6783Z" fill="black"/>
<path d="M52.8951 44.8391H47.605V47.9999H52.8951V44.8391Z" fill="black"/>
<path d="M47.605 44.8391H42.3149V47.9999H47.605V44.8391Z" fill="black"/>
<path d="M42.3149 44.8391H37.0249V47.9999H42.3149V44.8391Z" fill="black"/>
<path d="M63.4724 44.8391H58.1824V47.9999H63.4724V44.8391Z" fill="black"/>
<path d="M58.1823 44.8391H52.895V47.9999H58.1823V44.8391Z" fill="black"/>
<path d="M74.0525 44.8391H68.7625V47.9999H74.0525V44.8391Z" fill="black"/>
<path d="M79.3398 44.8391H74.0525V47.9999H79.3398V44.8391Z" fill="black"/>
<path d="M68.7624 44.8391H63.4724V47.9999H68.7624V44.8391Z" fill="black"/>
<path d="M84.6299 44.8391H79.3398V47.9999H84.6299V44.8391Z" fill="black"/>
<path d="M89.9199 44.8391H84.6299V47.9999H89.9199V44.8391Z" fill="black"/>
<path d="M105.787 44.8391H100.5V47.9999H105.787V44.8391Z" fill="black"/>
<path d="M100.5 44.8391H95.21V47.9999H100.5V44.8391Z" fill="black"/>
<path d="M95.2099 44.8391H89.9199V47.9999H95.2099V44.8391Z" fill="black"/>
<path d="M111.077 44.8391H105.787V47.9999H111.077V44.8391Z" fill="black"/>
<path d="M116.367 44.8391H111.077V47.9999H116.367V44.8391Z" fill="black"/>
<path d="M121.657 44.8391H116.367V47.9999H121.657V44.8391Z" fill="black"/>
<path d="M126.947 44.8391H121.657V47.9999H126.947V44.8391Z" fill="black"/>
<path d="M174.553 41.6783H169.262V44.8392H174.553V41.6783Z" fill="black"/>
<path d="M179.84 0.592529H174.552V3.75335H179.84V0.592529Z" fill="black"/>
<path d="M179.84 41.6783H174.552V44.8392H179.84V41.6783Z" fill="black"/>
<path d="M179.84 3.7533H174.552V6.91411H179.84V3.7533Z" fill="black"/>
<path d="M132.235 44.8391H126.948V47.9999H132.235V44.8391Z" fill="black"/>
<path d="M137.525 44.8391H132.235V47.9999H137.525V44.8391Z" fill="black"/>
<path d="M142.815 44.8391H137.525V47.9999H142.815V44.8391Z" fill="black"/>
<path d="M148.105 44.8391H142.815V47.9999H148.105V44.8391Z" fill="black"/>
<path d="M153.392 44.8391H148.105V47.9999H153.392V44.8391Z" fill="black"/>
<path d="M158.682 44.8391H153.392V47.9999H158.682V44.8391Z" fill="black"/>
<path d="M163.972 41.6783H158.682V44.8392H163.972V41.6783Z" fill="black"/>
<path d="M169.262 41.6783H163.972V44.8392H169.262V41.6783Z" fill="black"/>
<path d="M190.42 3.7533H185.13V6.91411H190.42V3.7533Z" fill="black"/>
<path d="M185.13 41.6783H179.84V44.8392H185.13V41.6783Z" fill="black"/>
<path d="M190.42 10.075H185.13V13.2342H190.42V10.075Z" fill="black"/>
<path d="M190.42 6.91418H185.13V10.075H190.42V6.91418Z" fill="black"/>
<path d="M190.42 41.6783H185.13V44.8392H190.42V41.6783Z" fill="black"/>
<path d="M185.13 3.7533H179.84V6.91411H185.13V3.7533Z" fill="black"/>
<path d="M190.42 38.519H185.13V41.6782H190.42V38.519Z" fill="black"/>
<path d="M195.71 10.075H190.42V13.2342H195.71V10.075Z" fill="black"/>
<path d="M195.71 32.1975H190.42V35.3583H195.71V32.1975Z" fill="black"/>
<path d="M195.71 13.2341H190.42V16.3949H195.71V13.2341Z" fill="black"/>
<path d="M195.71 38.519H190.42V41.6782H195.71V38.519Z" fill="black"/>
<path d="M195.71 35.3583H190.42V38.5191H195.71V35.3583Z" fill="black"/>
<path d="M195.71 16.395H190.42V19.5558H195.71V16.395Z" fill="black"/>
<path d="M201 16.395H195.71V19.5558H201V16.395Z" fill="black"/>
<path d="M201 29.0366H195.71V32.1974H201V29.0366Z" fill="black"/>
<path d="M201 25.8759H195.71V29.0367H201V25.8759Z" fill="black"/>
<path d="M201 32.1975H195.71V35.3583H201V32.1975Z" fill="black"/>
<path d="M201 22.7167H195.71V25.8759H201V22.7167Z" fill="black"/>
<path d="M201 19.5558H195.71V22.7166H201V19.5558Z" fill="black"/>
<path d="M37.0249 0.592529H31.7349V3.75335H37.0249V0.592529Z" fill="black"/>
<path d="M31.7349 0.592529H26.4476V3.75335H31.7349V0.592529Z" fill="black"/>
<path d="M52.8951 0.592529H47.605V3.75335H52.8951V0.592529Z" fill="black"/>
<path d="M47.605 0.592529H42.3149V3.75335H47.605V0.592529Z" fill="black"/>
<path d="M42.3149 0.592529H37.0249V3.75335H42.3149V0.592529Z" fill="black"/>
<path d="M63.4724 0.592529H58.1824V3.75335H63.4724V0.592529Z" fill="black"/>
<path d="M58.1823 0.592529H52.895V3.75335H58.1823V0.592529Z" fill="black"/>
<path d="M74.0525 0.592529H68.7625V3.75335H74.0525V0.592529Z" fill="black"/>
<path d="M79.3398 0.592529H74.0525V3.75335H79.3398V0.592529Z" fill="black"/>
<path d="M84.6299 0.592529H79.3398V3.75335H84.6299V0.592529Z" fill="black"/>
<path d="M89.9199 0.592529H84.6299V3.75335H89.9199V0.592529Z" fill="black"/>
<path d="M95.2099 0.592529H89.9199V3.75335H95.2099V0.592529Z" fill="black"/>
<path d="M105.787 0.592529H100.5V3.75335H105.787V0.592529Z" fill="black"/>
<path d="M100.5 0.592529H95.21V3.75335H100.5V0.592529Z" fill="black"/>
<path d="M68.7624 0.592529H63.4724V3.75335H68.7624V0.592529Z" fill="black"/>
<path d="M116.367 0.592529H111.077V3.75335H116.367V0.592529Z" fill="black"/>
<path d="M111.077 0.592529H105.787V3.75335H111.077V0.592529Z" fill="black"/>
<path d="M121.657 0.592529H116.367V3.75335H121.657V0.592529Z" fill="black"/>
<path d="M132.235 0.592529H126.948V3.75335H132.235V0.592529Z" fill="black"/>
<path d="M126.947 0.592529H121.657V3.75335H126.947V0.592529Z" fill="black"/>
<path d="M174.553 0.592529H169.262V3.75335H174.553V0.592529Z" fill="black"/>
<path d="M137.525 0.592529H132.235V3.75335H137.525V0.592529Z" fill="black"/>
<path d="M148.105 0.592529H142.815V3.75335H148.105V0.592529Z" fill="black"/>
<path d="M142.815 0.592529H137.525V3.75335H142.815V0.592529Z" fill="black"/>
<path d="M153.392 0.592529H148.105V3.75335H153.392V0.592529Z" fill="black"/>
<path d="M158.682 0.592529H153.392V3.75335H158.682V0.592529Z" fill="black"/>
<path d="M163.972 0.592529H158.682V3.75335H163.972V0.592529Z" fill="black"/>
<path d="M169.262 0.592529H163.972V3.75335H169.262V0.592529Z" fill="black"/>
<path d="M26.4475 0.592529H21.1575V3.75335H26.4475V0.592529Z" fill="black"/>
<path d="M77 28.8704H75.5V30.3704H68V36.3704H62V21.3704H75.5V22.8704H77V28.8704ZM71 27.3704V24.3704H68V27.3704H71ZM95 36.3704H80V21.3704H86V33.3704H95V36.3704ZM113 36.3704H107V30.3704H104V36.3704H98V22.8704H99.5V21.3704H111.5V22.8704H113V36.3704ZM107 27.3704V24.3704H104V27.3704H107ZM131 28.8704H129.5V30.3704H126.5V36.3704H120.5V30.3704H117.5V28.8704H116V21.3704H122V27.3704H125V21.3704H131V28.8704Z" fill="black"/>
</g>
<g clip-path="url(#clip1)">
<path d="M179.84 12.6416H174.552V15.8024H179.84V12.6416Z" fill="#98B8F2"/>
<path d="M179.84 15.8025H174.552V18.9633H179.84V15.8025Z" fill="#98B8F2"/>
<path d="M179.84 18.9633H174.552V22.1241H179.84V18.9633Z" fill="#98B8F2"/>
<path d="M179.84 22.1241H174.552V25.2834H179.84V22.1241Z" fill="#98B8F2"/>
<path d="M179.84 25.2833H174.552V28.4441H179.84V25.2833Z" fill="#98B8F2"/>
<path d="M179.84 28.4441H174.552V31.6049H179.84V28.4441Z" fill="#98B8F2"/>
<path d="M179.84 31.605H174.552V34.7658H179.84V31.605Z" fill="#98B8F2"/>
<path d="M179.84 34.7657H174.552V37.9266H179.84V34.7657Z" fill="#98B8F2"/>
<path d="M179.84 37.9265H174.552V41.0857H179.84V37.9265Z" fill="#98B8F2"/>
<path d="M185.13 6.32166H179.84V9.48247H185.13V6.32166Z" fill="#98B8F2"/>
<path d="M185.13 15.8025H179.84V18.9633H185.13V15.8025Z" fill="#98B8F2"/>
<path d="M185.13 18.9633H179.84V22.1241H185.13V18.9633Z" fill="#98B8F2"/>
<path d="M185.13 22.1241H179.84V25.2834H185.13V22.1241Z" fill="#98B8F2"/>
<path d="M185.13 25.2833H179.84V28.4441H185.13V25.2833Z" fill="#98B8F2"/>
<path d="M185.13 28.4441H179.84V31.6049H185.13V28.4441Z" fill="#98B8F2"/>
<path d="M185.13 31.605H179.84V34.7658H185.13V31.605Z" fill="#98B8F2"/>
<path d="M185.13 37.9265H179.84V41.0857H185.13V37.9265Z" fill="#98B8F2"/>
<path d="M185.13 34.7657H179.84V37.9266H185.13V34.7657Z" fill="#98B8F2"/>
<path d="M190.42 22.1241H185.13V25.2834H190.42V22.1241Z" fill="#98B8F2"/>
<path d="M190.42 25.2833H185.13V28.4441H190.42V25.2833Z" fill="#98B8F2"/>
<path d="M190.42 34.7657H185.13V37.9266H190.42V34.7657Z" fill="#98B8F2"/>
<path d="M190.42 31.605H185.13V34.7658H190.42V31.605Z" fill="#98B8F2"/>
<path d="M190.42 28.4441H185.13V31.6049H190.42V28.4441Z" fill="#98B8F2"/>
<path d="M195.71 28.4441H190.42V31.6049H195.71V28.4441Z" fill="#98B8F2"/>
<path d="M195.71 25.2833H190.42V28.4441H195.71V25.2833Z" fill="#98B8F2"/>
<path d="M195.71 22.1241H190.42V25.2834H195.71V22.1241Z" fill="#98B8F2"/>
<path d="M195.71 18.9633H190.42V22.1241H195.71V18.9633Z" fill="#98B8F2"/>
<path d="M190.42 18.9633H185.13V22.1241H190.42V18.9633Z" fill="#98B8F2"/>
<path d="M190.42 15.8025H185.13V18.9633H190.42V15.8025Z" fill="#98B8F2"/>
<path d="M190.42 12.6416H185.13V15.8024H190.42V12.6416Z" fill="#98B8F2"/>
<path d="M185.13 12.6416H179.84V15.8024H185.13V12.6416Z" fill="#98B8F2"/>
<path d="M185.13 9.48242H179.84V12.6416H185.13V9.48242Z" fill="#98B8F2"/>
<path d="M126.947 6.32166H121.657V9.48247H126.947V6.32166Z" fill="#98B8F2"/>
<path d="M126.947 9.48242H121.657V12.6416H126.947V9.48242Z" fill="#98B8F2"/>
<path d="M126.947 12.6416H121.657V15.8024H126.947V12.6416Z" fill="#98B8F2"/>
<path d="M126.947 15.8025H121.657V18.9633H126.947V15.8025Z" fill="#98B8F2"/>
<path d="M126.947 18.9633H121.657V22.1241H126.947V18.9633Z" fill="#98B8F2"/>
<path d="M126.947 22.1241H121.657V25.2834H126.947V22.1241Z" fill="#98B8F2"/>
<path d="M126.947 25.2833H121.657V28.4441H126.947V25.2833Z" fill="#98B8F2"/>
<path d="M126.947 28.4441H121.657V31.6049H126.947V28.4441Z" fill="#98B8F2"/>
<path d="M126.947 31.605H121.657V34.7658H126.947V31.605Z" fill="#98B8F2"/>
<path d="M126.947 34.7657H121.657V37.9266H126.947V34.7657Z" fill="#98B8F2"/>
<path d="M126.947 37.9265H121.657V41.0857H126.947V37.9265Z" fill="#98B8F2"/>
<path d="M126.947 41.0858H121.657V44.2466H126.947V41.0858Z" fill="#98B8F2"/>
<path d="M74.0525 3.16077H68.7625V6.32158H74.0525V3.16077Z" fill="#98B8F2"/>
<path d="M74.0525 6.32166H68.7625V9.48247H74.0525V6.32166Z" fill="#98B8F2"/>
<path d="M74.0525 9.48242H68.7625V12.6416H74.0525V9.48242Z" fill="#98B8F2"/>
<path d="M74.0525 12.6416H68.7625V15.8024H74.0525V12.6416Z" fill="#98B8F2"/>
<path d="M74.0525 15.8025H68.7625V18.9633H74.0525V15.8025Z" fill="#98B8F2"/>
<path d="M74.0525 18.9633H68.7625V22.1241H74.0525V18.9633Z" fill="#98B8F2"/>
<path d="M74.0525 22.1241H68.7625V25.2834H74.0525V22.1241Z" fill="#98B8F2"/>
<path d="M74.0525 25.2833H68.7625V28.4441H74.0525V25.2833Z" fill="#98B8F2"/>
<path d="M74.0525 28.4441H68.7625V31.6049H74.0525V28.4441Z" fill="#98B8F2"/>
<path d="M74.0525 31.605H68.7625V34.7658H74.0525V31.605Z" fill="#98B8F2"/>
<path d="M74.0525 34.7657H68.7625V37.9266H74.0525V34.7657Z" fill="#98B8F2"/>
<path d="M74.0525 37.9265H68.7625V41.0857H74.0525V37.9265Z" fill="#98B8F2"/>
<path d="M21.1574 6.32166H15.8674V9.48247H21.1574V6.32166Z" fill="#98B8F2"/>
<path d="M21.1574 9.48242H15.8674V12.6416H21.1574V9.48242Z" fill="#98B8F2"/>
<path d="M21.1574 12.6416H15.8674V15.8024H21.1574V12.6416Z" fill="#98B8F2"/>
<path d="M21.1574 15.8025H15.8674V18.9633H21.1574V15.8025Z" fill="#98B8F2"/>
<path d="M21.1574 18.9633H15.8674V22.1241H21.1574V18.9633Z" fill="#98B8F2"/>
<path d="M21.1574 22.1241H15.8674V25.2834H21.1574V22.1241Z" fill="#98B8F2"/>
<path d="M21.1574 25.2833H15.8674V28.4441H21.1574V25.2833Z" fill="#98B8F2"/>
<path d="M21.1574 28.4441H15.8674V31.6049H21.1574V28.4441Z" fill="#98B8F2"/>
<path d="M21.1574 31.605H15.8674V34.7658H21.1574V31.605Z" fill="#98B8F2"/>
<path d="M21.1574 34.7657H15.8674V37.9266H21.1574V34.7657Z" fill="#98B8F2"/>
<path d="M10.5773 15.8025H5.28729V18.9633H10.5773V15.8025Z" fill="#98B8F2"/>
<path d="M10.5773 18.9633H5.28729V22.1241H10.5773V18.9633Z" fill="#98B8F2"/>
<path d="M10.5773 22.1241H5.28729V25.2834H10.5773V22.1241Z" fill="#98B8F2"/>
<path d="M15.8675 12.6416H10.5774V15.8024H15.8675V12.6416Z" fill="#98B8F2"/>
<path d="M15.8675 15.8025H10.5774V18.9633H15.8675V15.8025Z" fill="#98B8F2"/>
<path d="M15.8675 18.9633H10.5774V22.1241H15.8675V18.9633Z" fill="#98B8F2"/>
<path d="M15.8675 22.1241H10.5774V25.2834H15.8675V22.1241Z" fill="#98B8F2"/>
<path d="M15.8675 25.2833H10.5774V28.4441H15.8675V25.2833Z" fill="#98B8F2"/>
<path d="M15.8675 28.4441H10.5774V31.6049H15.8675V28.4441Z" fill="#98B8F2"/>
<path d="M15.8675 31.605H10.5774V34.7658H15.8675V31.605Z" fill="#98B8F2"/>
<path d="M15.8675 34.7657H10.5774V37.9266H15.8675V34.7657Z" fill="#98B8F2"/>
<path d="M15.8675 37.9265H10.5774V41.0857H15.8675V37.9265Z" fill="#98B8F2"/>
<path d="M21.1574 37.9265H15.8674V41.0857H21.1574V37.9265Z" fill="#98B8F2"/>
<path d="M26.4475 6.32166H21.1575V9.48247H26.4475V6.32166Z" fill="#98B8F2"/>
<path d="M26.4475 9.48242H21.1575V12.6416H26.4475V9.48242Z" fill="#98B8F2"/>
<path d="M26.4475 12.6416H21.1575V15.8024H26.4475V12.6416Z" fill="#98B8F2"/>
<path d="M26.4475 15.8025H21.1575V18.9633H26.4475V15.8025Z" fill="#98B8F2"/>
<path d="M26.4475 18.9633H21.1575V22.1241H26.4475V18.9633Z" fill="#98B8F2"/>
<path d="M26.4475 22.1241H21.1575V25.2834H26.4475V22.1241Z" fill="#98B8F2"/>
<path d="M26.4475 25.2833H21.1575V28.4441H26.4475V25.2833Z" fill="#98B8F2"/>
<path d="M26.4475 28.4441H21.1575V31.6049H26.4475V28.4441Z" fill="#98B8F2"/>
<path d="M26.4475 31.605H21.1575V34.7658H26.4475V31.605Z" fill="#98B8F2"/>
<path d="M26.4475 34.7657H21.1575V37.9266H26.4475V34.7657Z" fill="#98B8F2"/>
<path d="M26.4475 37.9265H21.1575V41.0857H26.4475V37.9265Z" fill="#98B8F2"/>
<path d="M31.7349 3.16077H26.4476V6.32158H31.7349V3.16077Z" fill="#98B8F2"/>
<path d="M31.7349 6.32166H26.4476V9.48247H31.7349V6.32166Z" fill="#98B8F2"/>
<path d="M31.7349 9.48242H26.4476V12.6416H31.7349V9.48242Z" fill="#98B8F2"/>
<path d="M31.7349 12.6416H26.4476V15.8024H31.7349V12.6416Z" fill="#98B8F2"/>
<path d="M31.7349 15.8025H26.4476V18.9633H31.7349V15.8025Z" fill="#98B8F2"/>
<path d="M31.7349 18.9633H26.4476V22.1241H31.7349V18.9633Z" fill="#98B8F2"/>
<path d="M31.7349 22.1241H26.4476V25.2834H31.7349V22.1241Z" fill="#98B8F2"/>
<path d="M31.7349 25.2833H26.4476V28.4441H31.7349V25.2833Z" fill="#98B8F2"/>
<path d="M31.7349 28.4441H26.4476V31.6049H31.7349V28.4441Z" fill="#98B8F2"/>
<path d="M31.7349 31.605H26.4476V34.7658H31.7349V31.605Z" fill="#98B8F2"/>
<path d="M31.7349 34.7657H26.4476V37.9266H31.7349V34.7657Z" fill="#98B8F2"/>
<path d="M31.7349 37.9265H26.4476V41.0857H31.7349V37.9265Z" fill="#98B8F2"/>
<path d="M37.0249 3.16077H31.7349V6.32158H37.0249V3.16077Z" fill="#98B8F2"/>
<path d="M37.0249 6.32166H31.7349V9.48247H37.0249V6.32166Z" fill="#98B8F2"/>
<path d="M37.0249 9.48242H31.7349V12.6416H37.0249V9.48242Z" fill="#98B8F2"/>
<path d="M37.0249 12.6416H31.7349V15.8024H37.0249V12.6416Z" fill="#98B8F2"/>
<path d="M37.0249 15.8025H31.7349V18.9633H37.0249V15.8025Z" fill="#98B8F2"/>
<path d="M37.0249 18.9633H31.7349V22.1241H37.0249V18.9633Z" fill="#98B8F2"/>
<path d="M37.0249 22.1241H31.7349V25.2834H37.0249V22.1241Z" fill="#98B8F2"/>
<path d="M37.0249 25.2833H31.7349V28.4441H37.0249V25.2833Z" fill="#98B8F2"/>
<path d="M37.0249 28.4441H31.7349V31.6049H37.0249V28.4441Z" fill="#98B8F2"/>
<path d="M37.0249 31.605H31.7349V34.7658H37.0249V31.605Z" fill="#98B8F2"/>
<path d="M37.0249 34.7657H31.7349V37.9266H37.0249V34.7657Z" fill="#98B8F2"/>
<path d="M37.0249 37.9265H31.7349V41.0857H37.0249V37.9265Z" fill="#98B8F2"/>
<path d="M37.0249 41.0858H31.7349V44.2466H37.0249V41.0858Z" fill="#98B8F2"/>
<path d="M42.3149 3.16077H37.0249V6.32158H42.3149V3.16077Z" fill="#98B8F2"/>
<path d="M42.3149 6.32166H37.0249V9.48247H42.3149V6.32166Z" fill="#98B8F2"/>
<path d="M42.3149 9.48242H37.0249V12.6416H42.3149V9.48242Z" fill="#98B8F2"/>
<path d="M42.3149 12.6416H37.0249V15.8024H42.3149V12.6416Z" fill="#98B8F2"/>
<path d="M42.3149 15.8025H37.0249V18.9633H42.3149V15.8025Z" fill="#98B8F2"/>
<path d="M42.3149 18.9633H37.0249V22.1241H42.3149V18.9633Z" fill="#98B8F2"/>
<path d="M42.3149 22.1241H37.0249V25.2834H42.3149V22.1241Z" fill="#98B8F2"/>
<path d="M42.3149 25.2833H37.0249V28.4441H42.3149V25.2833Z" fill="#98B8F2"/>
<path d="M42.3149 28.4441H37.0249V31.6049H42.3149V28.4441Z" fill="#98B8F2"/>
<path d="M42.3149 31.605H37.0249V34.7658H42.3149V31.605Z" fill="#98B8F2"/>
<path d="M42.3149 34.7657H37.0249V37.9266H42.3149V34.7657Z" fill="#98B8F2"/>
<path d="M42.3149 37.9265H37.0249V41.0857H42.3149V37.9265Z" fill="#98B8F2"/>
<path d="M42.3149 41.0858H37.0249V44.2466H42.3149V41.0858Z" fill="#98B8F2"/>
<path d="M47.605 3.16077H42.3149V6.32158H47.605V3.16077Z" fill="#98B8F2"/>
<path d="M47.605 6.32166H42.3149V9.48247H47.605V6.32166Z" fill="#98B8F2"/>
<path d="M47.605 9.48242H42.3149V12.6416H47.605V9.48242Z" fill="#98B8F2"/>
<path d="M47.605 12.6416H42.3149V15.8024H47.605V12.6416Z" fill="#98B8F2"/>
<path d="M47.605 15.8025H42.3149V18.9633H47.605V15.8025Z" fill="#98B8F2"/>
<path d="M47.605 18.9633H42.3149V22.1241H47.605V18.9633Z" fill="#98B8F2"/>
<path d="M47.605 22.1241H42.3149V25.2834H47.605V22.1241Z" fill="#98B8F2"/>
<path d="M47.605 25.2833H42.3149V28.4441H47.605V25.2833Z" fill="#98B8F2"/>
<path d="M47.605 28.4441H42.3149V31.6049H47.605V28.4441Z" fill="#98B8F2"/>
<path d="M47.605 31.605H42.3149V34.7658H47.605V31.605Z" fill="#98B8F2"/>
<path d="M47.605 34.7657H42.3149V37.9266H47.605V34.7657Z" fill="#98B8F2"/>
<path d="M47.605 37.9265H42.3149V41.0857H47.605V37.9265Z" fill="#98B8F2"/>
<path d="M47.605 41.0858H42.3149V44.2466H47.605V41.0858Z" fill="#98B8F2"/>
<path d="M52.8951 3.16077H47.605V6.32158H52.8951V3.16077Z" fill="#98B8F2"/>
<path d="M52.8951 6.32166H47.605V9.48247H52.8951V6.32166Z" fill="#98B8F2"/>
<path d="M52.8951 9.48242H47.605V12.6416H52.8951V9.48242Z" fill="#98B8F2"/>
<path d="M52.8951 12.6416H47.605V15.8024H52.8951V12.6416Z" fill="#98B8F2"/>
<path d="M52.8951 15.8025H47.605V18.9633H52.8951V15.8025Z" fill="#98B8F2"/>
<path d="M52.8951 18.9633H47.605V22.1241H52.8951V18.9633Z" fill="#98B8F2"/>
<path d="M52.8951 22.1241H47.605V25.2834H52.8951V22.1241Z" fill="#98B8F2"/>
<path d="M52.8951 25.2833H47.605V28.4441H52.8951V25.2833Z" fill="#98B8F2"/>
<path d="M52.8951 28.4441H47.605V31.6049H52.8951V28.4441Z" fill="#98B8F2"/>
<path d="M52.8951 31.605H47.605V34.7658H52.8951V31.605Z" fill="#98B8F2"/>
<path d="M52.8951 34.7657H47.605V37.9266H52.8951V34.7657Z" fill="#98B8F2"/>
<path d="M52.8951 37.9265H47.605V41.0857H52.8951V37.9265Z" fill="#98B8F2"/>
<path d="M52.8951 41.0858H47.605V44.2466H52.8951V41.0858Z" fill="#98B8F2"/>
<path d="M58.1823 3.16077H52.895V6.32158H58.1823V3.16077Z" fill="#98B8F2"/>
<path d="M58.1823 6.32166H52.895V9.48247H58.1823V6.32166Z" fill="#98B8F2"/>
<path d="M58.1823 9.48242H52.895V12.6416H58.1823V9.48242Z" fill="#98B8F2"/>
<path d="M58.1823 12.6416H52.895V15.8024H58.1823V12.6416Z" fill="#98B8F2"/>
<path d="M58.1823 15.8025H52.895V18.9633H58.1823V15.8025Z" fill="#98B8F2"/>
<path d="M58.1823 18.9633H52.895V22.1241H58.1823V18.9633Z" fill="#98B8F2"/>
<path d="M58.1823 22.1241H52.895V25.2834H58.1823V22.1241Z" fill="#98B8F2"/>
<path d="M58.1823 25.2833H52.895V28.4441H58.1823V25.2833Z" fill="#98B8F2"/>
<path d="M58.1823 28.4441H52.895V31.6049H58.1823V28.4441Z" fill="#98B8F2"/>
<path d="M58.1823 31.605H52.895V34.7658H58.1823V31.605Z" fill="#98B8F2"/>
<path d="M58.1823 34.7657H52.895V37.9266H58.1823V34.7657Z" fill="#98B8F2"/>
<path d="M58.1823 37.9265H52.895V41.0857H58.1823V37.9265Z" fill="#98B8F2"/>
<path d="M58.1823 41.0858H52.895V44.2466H58.1823V41.0858Z" fill="#98B8F2"/>
<path d="M63.4724 3.16077H58.1824V6.32158H63.4724V3.16077Z" fill="#98B8F2"/>
<path d="M63.4724 6.32166H58.1824V9.48247H63.4724V6.32166Z" fill="#98B8F2"/>
<path d="M63.4724 9.48242H58.1824V12.6416H63.4724V9.48242Z" fill="#98B8F2"/>
<path d="M63.4724 12.6416H58.1824V15.8024H63.4724V12.6416Z" fill="#98B8F2"/>
<path d="M63.4724 15.8025H58.1824V18.9633H63.4724V15.8025Z" fill="#98B8F2"/>
<path d="M63.4724 18.9633H58.1824V22.1241H63.4724V18.9633Z" fill="#98B8F2"/>
<path d="M63.4724 22.1241H58.1824V25.2834H63.4724V22.1241Z" fill="#98B8F2"/>
<path d="M63.4724 25.2833H58.1824V28.4441H63.4724V25.2833Z" fill="#98B8F2"/>
<path d="M63.4724 28.4441H58.1824V31.6049H63.4724V28.4441Z" fill="#98B8F2"/>
<path d="M63.4724 31.605H58.1824V34.7658H63.4724V31.605Z" fill="#98B8F2"/>
<path d="M63.4724 34.7657H58.1824V37.9266H63.4724V34.7657Z" fill="#98B8F2"/>
<path d="M63.4724 37.9265H58.1824V41.0857H63.4724V37.9265Z" fill="#98B8F2"/>
<path d="M63.4724 41.0858H58.1824V44.2466H63.4724V41.0858Z" fill="#98B8F2"/>
<path d="M68.7624 3.16077H63.4724V6.32158H68.7624V3.16077Z" fill="#98B8F2"/>
<path d="M68.7624 6.32166H63.4724V9.48247H68.7624V6.32166Z" fill="#98B8F2"/>
<path d="M68.7624 9.48242H63.4724V12.6416H68.7624V9.48242Z" fill="#98B8F2"/>
<path d="M68.7624 12.6416H63.4724V15.8024H68.7624V12.6416Z" fill="#98B8F2"/>
<path d="M68.7624 15.8025H63.4724V18.9633H68.7624V15.8025Z" fill="#98B8F2"/>
<path d="M68.7624 18.9633H63.4724V22.1241H68.7624V18.9633Z" fill="#98B8F2"/>
<path d="M68.7624 22.1241H63.4724V25.2834H68.7624V22.1241Z" fill="#98B8F2"/>
<path d="M68.7624 25.2833H63.4724V28.4441H68.7624V25.2833Z" fill="#98B8F2"/>
<path d="M68.7624 28.4441H63.4724V31.6049H68.7624V28.4441Z" fill="#98B8F2"/>
<path d="M68.7624 31.605H63.4724V34.7658H68.7624V31.605Z" fill="#98B8F2"/>
<path d="M68.7624 34.7657H63.4724V37.9266H68.7624V34.7657Z" fill="#98B8F2"/>
<path d="M68.7624 37.9265H63.4724V41.0857H68.7624V37.9265Z" fill="#98B8F2"/>
<path d="M68.7624 41.0858H63.4724V44.2466H68.7624V41.0858Z" fill="#98B8F2"/>
<path d="M74.0525 41.0858H68.7625V44.2466H74.0525V41.0858Z" fill="#98B8F2"/>
<path d="M79.3398 3.16077H74.0525V6.32158H79.3398V3.16077Z" fill="#98B8F2"/>
<path d="M79.3398 6.32166H74.0525V9.48247H79.3398V6.32166Z" fill="#98B8F2"/>
<path d="M79.3398 9.48242H74.0525V12.6416H79.3398V9.48242Z" fill="#98B8F2"/>
<path d="M79.3398 12.6416H74.0525V15.8024H79.3398V12.6416Z" fill="#98B8F2"/>
<path d="M79.3398 15.8025H74.0525V18.9633H79.3398V15.8025Z" fill="#98B8F2"/>
<path d="M79.3398 18.9633H74.0525V22.1241H79.3398V18.9633Z" fill="#98B8F2"/>
<path d="M79.3398 22.1241H74.0525V25.2834H79.3398V22.1241Z" fill="#98B8F2"/>
<path d="M79.3398 25.2833H74.0525V28.4441H79.3398V25.2833Z" fill="#98B8F2"/>
<path d="M79.3398 28.4441H74.0525V31.6049H79.3398V28.4441Z" fill="#98B8F2"/>
<path d="M79.3398 31.605H74.0525V34.7658H79.3398V31.605Z" fill="#98B8F2"/>
<path d="M79.3398 34.7657H74.0525V37.9266H79.3398V34.7657Z" fill="#98B8F2"/>
<path d="M79.3398 37.9265H74.0525V41.0857H79.3398V37.9265Z" fill="#98B8F2"/>
<path d="M79.3398 41.0858H74.0525V44.2466H79.3398V41.0858Z" fill="#98B8F2"/>
<path d="M84.6299 3.16077H79.3398V6.32158H84.6299V3.16077Z" fill="#98B8F2"/>
<path d="M84.6299 6.32166H79.3398V9.48247H84.6299V6.32166Z" fill="#98B8F2"/>
<path d="M84.6299 9.48242H79.3398V12.6416H84.6299V9.48242Z" fill="#98B8F2"/>
<path d="M84.6299 12.6416H79.3398V15.8024H84.6299V12.6416Z" fill="#98B8F2"/>
<path d="M84.6299 15.8025H79.3398V18.9633H84.6299V15.8025Z" fill="#98B8F2"/>
<path d="M84.6299 18.9633H79.3398V22.1241H84.6299V18.9633Z" fill="#98B8F2"/>
<path d="M84.6299 22.1241H79.3398V25.2834H84.6299V22.1241Z" fill="#98B8F2"/>
<path d="M84.6299 25.2833H79.3398V28.4441H84.6299V25.2833Z" fill="#98B8F2"/>
<path d="M84.6299 28.4441H79.3398V31.6049H84.6299V28.4441Z" fill="#98B8F2"/>
<path d="M84.6299 31.605H79.3398V34.7658H84.6299V31.605Z" fill="#98B8F2"/>
<path d="M84.6299 34.7657H79.3398V37.9266H84.6299V34.7657Z" fill="#98B8F2"/>
<path d="M84.6299 37.9265H79.3398V41.0857H84.6299V37.9265Z" fill="#98B8F2"/>
<path d="M84.6299 41.0858H79.3398V44.2466H84.6299V41.0858Z" fill="#98B8F2"/>
<path d="M89.9199 3.16077H84.6299V6.32158H89.9199V3.16077Z" fill="#98B8F2"/>
<path d="M89.9199 6.32166H84.6299V9.48247H89.9199V6.32166Z" fill="#98B8F2"/>
<path d="M89.9199 9.48242H84.6299V12.6416H89.9199V9.48242Z" fill="#98B8F2"/>
<path d="M89.9199 12.6416H84.6299V15.8024H89.9199V12.6416Z" fill="#98B8F2"/>
<path d="M89.9199 15.8025H84.6299V18.9633H89.9199V15.8025Z" fill="#98B8F2"/>
<path d="M89.9199 18.9633H84.6299V22.1241H89.9199V18.9633Z" fill="#98B8F2"/>
<path d="M89.9199 22.1241H84.6299V25.2834H89.9199V22.1241Z" fill="#98B8F2"/>
<path d="M89.9199 25.2833H84.6299V28.4441H89.9199V25.2833Z" fill="#98B8F2"/>
<path d="M89.9199 28.4441H84.6299V31.6049H89.9199V28.4441Z" fill="#98B8F2"/>
<path d="M89.9199 31.605H84.6299V34.7658H89.9199V31.605Z" fill="#98B8F2"/>
<path d="M89.9199 34.7657H84.6299V37.9266H89.9199V34.7657Z" fill="#98B8F2"/>
<path d="M89.9199 37.9265H84.6299V41.0857H89.9199V37.9265Z" fill="#98B8F2"/>
<path d="M89.9199 41.0858H84.6299V44.2466H89.9199V41.0858Z" fill="#98B8F2"/>
<path d="M95.2099 3.16077H89.9199V6.32158H95.2099V3.16077Z" fill="#98B8F2"/>
<path d="M95.2099 6.32166H89.9199V9.48247H95.2099V6.32166Z" fill="#98B8F2"/>
<path d="M95.2099 9.48242H89.9199V12.6416H95.2099V9.48242Z" fill="#98B8F2"/>
<path d="M95.2099 12.6416H89.9199V15.8024H95.2099V12.6416Z" fill="#98B8F2"/>
<path d="M95.2099 15.8025H89.9199V18.9633H95.2099V15.8025Z" fill="#98B8F2"/>
<path d="M95.2099 18.9633H89.9199V22.1241H95.2099V18.9633Z" fill="#98B8F2"/>
<path d="M95.2099 22.1241H89.9199V25.2834H95.2099V22.1241Z" fill="#98B8F2"/>
<path d="M95.2099 25.2833H89.9199V28.4441H95.2099V25.2833Z" fill="#98B8F2"/>
<path d="M95.2099 28.4441H89.9199V31.6049H95.2099V28.4441Z" fill="#98B8F2"/>
<path d="M95.2099 31.605H89.9199V34.7658H95.2099V31.605Z" fill="#98B8F2"/>
<path d="M95.2099 34.7657H89.9199V37.9266H95.2099V34.7657Z" fill="#98B8F2"/>
<path d="M95.2099 37.9265H89.9199V41.0857H95.2099V37.9265Z" fill="#98B8F2"/>
<path d="M95.2099 41.0858H89.9199V44.2466H95.2099V41.0858Z" fill="#98B8F2"/>
<path d="M100.5 3.16077H95.21V6.32158H100.5V3.16077Z" fill="#98B8F2"/>
<path d="M100.5 6.32166H95.21V9.48247H100.5V6.32166Z" fill="#98B8F2"/>
<path d="M100.5 9.48242H95.21V12.6416H100.5V9.48242Z" fill="#98B8F2"/>
<path d="M100.5 12.6416H95.21V15.8024H100.5V12.6416Z" fill="#98B8F2"/>
<path d="M100.5 15.8025H95.21V18.9633H100.5V15.8025Z" fill="#98B8F2"/>
<path d="M100.5 18.9633H95.21V22.1241H100.5V18.9633Z" fill="#98B8F2"/>
<path d="M100.5 22.1241H95.21V25.2834H100.5V22.1241Z" fill="#98B8F2"/>
<path d="M100.5 25.2833H95.21V28.4441H100.5V25.2833Z" fill="#98B8F2"/>
<path d="M100.5 28.4441H95.21V31.6049H100.5V28.4441Z" fill="#98B8F2"/>
<path d="M100.5 31.605H95.21V34.7658H100.5V31.605Z" fill="#98B8F2"/>
<path d="M100.5 34.7657H95.21V37.9266H100.5V34.7657Z" fill="#98B8F2"/>
<path d="M100.5 37.9265H95.21V41.0857H100.5V37.9265Z" fill="#98B8F2"/>
<path d="M100.5 41.0858H95.21V44.2466H100.5V41.0858Z" fill="#98B8F2"/>
<path d="M105.787 3.16077H100.5V6.32158H105.787V3.16077Z" fill="#98B8F2"/>
<path d="M105.787 6.32166H100.5V9.48247H105.787V6.32166Z" fill="#98B8F2"/>
<path d="M105.787 9.48242H100.5V12.6416H105.787V9.48242Z" fill="#98B8F2"/>
<path d="M105.787 12.6416H100.5V15.8024H105.787V12.6416Z" fill="#98B8F2"/>
<path d="M105.787 15.8025H100.5V18.9633H105.787V15.8025Z" fill="#98B8F2"/>
<path d="M105.787 18.9633H100.5V22.1241H105.787V18.9633Z" fill="#98B8F2"/>
<path d="M105.787 22.1241H100.5V25.2834H105.787V22.1241Z" fill="#98B8F2"/>
<path d="M105.787 25.2833H100.5V28.4441H105.787V25.2833Z" fill="#98B8F2"/>
<path d="M105.787 28.4441H100.5V31.6049H105.787V28.4441Z" fill="#98B8F2"/>
<path d="M105.787 31.605H100.5V34.7658H105.787V31.605Z" fill="#98B8F2"/>
<path d="M105.787 34.7657H100.5V37.9266H105.787V34.7657Z" fill="#98B8F2"/>
<path d="M105.787 37.9265H100.5V41.0857H105.787V37.9265Z" fill="#98B8F2"/>
<path d="M105.787 41.0858H100.5V44.2466H105.787V41.0858Z" fill="#98B8F2"/>
<path d="M111.077 3.16077H105.787V6.32158H111.077V3.16077Z" fill="#98B8F2"/>
<path d="M111.077 6.32166H105.787V9.48247H111.077V6.32166Z" fill="#98B8F2"/>
<path d="M111.077 9.48242H105.787V12.6416H111.077V9.48242Z" fill="#98B8F2"/>
<path d="M111.077 12.6416H105.787V15.8024H111.077V12.6416Z" fill="#98B8F2"/>
<path d="M111.077 15.8025H105.787V18.9633H111.077V15.8025Z" fill="#98B8F2"/>
<path d="M111.077 18.9633H105.787V22.1241H111.077V18.9633Z" fill="#98B8F2"/>
<path d="M111.077 22.1241H105.787V25.2834H111.077V22.1241Z" fill="#98B8F2"/>
<path d="M111.077 25.2833H105.787V28.4441H111.077V25.2833Z" fill="#98B8F2"/>
<path d="M111.077 28.4441H105.787V31.6049H111.077V28.4441Z" fill="#98B8F2"/>
<path d="M111.077 31.605H105.787V34.7658H111.077V31.605Z" fill="#98B8F2"/>
<path d="M111.077 34.7657H105.787V37.9266H111.077V34.7657Z" fill="#98B8F2"/>
<path d="M111.077 37.9265H105.787V41.0857H111.077V37.9265Z" fill="#98B8F2"/>
<path d="M111.077 41.0858H105.787V44.2466H111.077V41.0858Z" fill="#98B8F2"/>
<path d="M116.367 3.16077H111.077V6.32158H116.367V3.16077Z" fill="#98B8F2"/>
<path d="M116.367 6.32166H111.077V9.48247H116.367V6.32166Z" fill="#98B8F2"/>
<path d="M116.367 9.48242H111.077V12.6416H116.367V9.48242Z" fill="#98B8F2"/>
<path d="M116.367 12.6416H111.077V15.8024H116.367V12.6416Z" fill="#98B8F2"/>
<path d="M116.367 15.8025H111.077V18.9633H116.367V15.8025Z" fill="#98B8F2"/>
<path d="M116.367 18.9633H111.077V22.1241H116.367V18.9633Z" fill="#98B8F2"/>
<path d="M116.367 22.1241H111.077V25.2834H116.367V22.1241Z" fill="#98B8F2"/>
<path d="M116.367 25.2833H111.077V28.4441H116.367V25.2833Z" fill="#98B8F2"/>
<path d="M116.367 28.4441H111.077V31.6049H116.367V28.4441Z" fill="#98B8F2"/>
<path d="M116.367 31.605H111.077V34.7658H116.367V31.605Z" fill="#98B8F2"/>
<path d="M116.367 34.7657H111.077V37.9266H116.367V34.7657Z" fill="#98B8F2"/>
<path d="M116.367 37.9265H111.077V41.0857H116.367V37.9265Z" fill="#98B8F2"/>
<path d="M116.367 41.0858H111.077V44.2466H116.367V41.0858Z" fill="#98B8F2"/>
<path d="M121.657 41.0858H116.367V44.2466H121.657V41.0858Z" fill="#98B8F2"/>
<path d="M121.657 37.9265H116.367V41.0857H121.657V37.9265Z" fill="#98B8F2"/>
<path d="M121.657 34.7657H116.367V37.9266H121.657V34.7657Z" fill="#98B8F2"/>
<path d="M121.657 31.605H116.367V34.7658H121.657V31.605Z" fill="#98B8F2"/>
<path d="M121.657 28.4441H116.367V31.6049H121.657V28.4441Z" fill="#98B8F2"/>
<path d="M121.657 25.2833H116.367V28.4441H121.657V25.2833Z" fill="#98B8F2"/>
<path d="M121.657 22.1241H116.367V25.2834H121.657V22.1241Z" fill="#98B8F2"/>
<path d="M121.657 18.9633H116.367V22.1241H121.657V18.9633Z" fill="#98B8F2"/>
<path d="M121.657 15.8025H116.367V18.9633H121.657V15.8025Z" fill="#98B8F2"/>
<path d="M121.657 12.6416H116.367V15.8024H121.657V12.6416Z" fill="#98B8F2"/>
<path d="M121.657 9.48242H116.367V12.6416H121.657V9.48242Z" fill="#98B8F2"/>
<path d="M121.657 6.32166H116.367V9.48247H121.657V6.32166Z" fill="#98B8F2"/>
<path d="M121.657 3.16077H116.367V6.32158H121.657V3.16077Z" fill="#98B8F2"/>
<path d="M126.947 3.16077H121.657V6.32158H126.947V3.16077Z" fill="#98B8F2"/>
<path d="M132.235 3.16077H126.948V6.32158H132.235V3.16077Z" fill="#98B8F2"/>
<path d="M132.235 6.32166H126.948V9.48247H132.235V6.32166Z" fill="#98B8F2"/>
<path d="M132.235 9.48242H126.948V12.6416H132.235V9.48242Z" fill="#98B8F2"/>
<path d="M132.235 12.6416H126.948V15.8024H132.235V12.6416Z" fill="#98B8F2"/>
<path d="M132.235 15.8025H126.948V18.9633H132.235V15.8025Z" fill="#98B8F2"/>
<path d="M132.235 18.9633H126.948V22.1241H132.235V18.9633Z" fill="#98B8F2"/>
<path d="M132.235 22.1241H126.948V25.2834H132.235V22.1241Z" fill="#98B8F2"/>
<path d="M132.235 25.2833H126.948V28.4441H132.235V25.2833Z" fill="#98B8F2"/>
<path d="M132.235 28.4441H126.948V31.6049H132.235V28.4441Z" fill="#98B8F2"/>
<path d="M132.235 31.605H126.948V34.7658H132.235V31.605Z" fill="#98B8F2"/>
<path d="M132.235 34.7657H126.948V37.9266H132.235V34.7657Z" fill="#98B8F2"/>
<path d="M132.235 37.9265H126.948V41.0857H132.235V37.9265Z" fill="#98B8F2"/>
<path d="M132.235 41.0858H126.948V44.2466H132.235V41.0858Z" fill="#98B8F2"/>
<path d="M137.525 3.16077H132.235V6.32158H137.525V3.16077Z" fill="#98B8F2"/>
<path d="M137.525 6.32166H132.235V9.48247H137.525V6.32166Z" fill="#98B8F2"/>
<path d="M137.525 9.48242H132.235V12.6416H137.525V9.48242Z" fill="#98B8F2"/>
<path d="M137.525 12.6416H132.235V15.8024H137.525V12.6416Z" fill="#98B8F2"/>
<path d="M137.525 15.8025H132.235V18.9633H137.525V15.8025Z" fill="#98B8F2"/>
<path d="M137.525 18.9633H132.235V22.1241H137.525V18.9633Z" fill="#98B8F2"/>
<path d="M137.525 22.1241H132.235V25.2834H137.525V22.1241Z" fill="#98B8F2"/>
<path d="M137.525 25.2833H132.235V28.4441H137.525V25.2833Z" fill="#98B8F2"/>
<path d="M137.525 28.4441H132.235V31.6049H137.525V28.4441Z" fill="#98B8F2"/>
<path d="M137.525 31.605H132.235V34.7658H137.525V31.605Z" fill="#98B8F2"/>
<path d="M137.525 34.7657H132.235V37.9266H137.525V34.7657Z" fill="#98B8F2"/>
<path d="M137.525 37.9265H132.235V41.0857H137.525V37.9265Z" fill="#98B8F2"/>
<path d="M137.525 41.0858H132.235V44.2466H137.525V41.0858Z" fill="#98B8F2"/>
<path d="M142.815 3.16077H137.525V6.32158H142.815V3.16077Z" fill="#98B8F2"/>
<path d="M142.815 6.32166H137.525V9.48247H142.815V6.32166Z" fill="#98B8F2"/>
<path d="M142.815 9.48242H137.525V12.6416H142.815V9.48242Z" fill="#98B8F2"/>
<path d="M142.815 12.6416H137.525V15.8024H142.815V12.6416Z" fill="#98B8F2"/>
<path d="M142.815 15.8025H137.525V18.9633H142.815V15.8025Z" fill="#98B8F2"/>
<path d="M142.815 18.9633H137.525V22.1241H142.815V18.9633Z" fill="#98B8F2"/>
<path d="M142.815 22.1241H137.525V25.2834H142.815V22.1241Z" fill="#98B8F2"/>
<path d="M142.815 25.2833H137.525V28.4441H142.815V25.2833Z" fill="#98B8F2"/>
<path d="M142.815 28.4441H137.525V31.6049H142.815V28.4441Z" fill="#98B8F2"/>
<path d="M142.815 31.605H137.525V34.7658H142.815V31.605Z" fill="#98B8F2"/>
<path d="M142.815 34.7657H137.525V37.9266H142.815V34.7657Z" fill="#98B8F2"/>
<path d="M142.815 37.9265H137.525V41.0857H142.815V37.9265Z" fill="#98B8F2"/>
<path d="M142.815 41.0858H137.525V44.2466H142.815V41.0858Z" fill="#98B8F2"/>
<path d="M148.105 3.16077H142.815V6.32158H148.105V3.16077Z" fill="#98B8F2"/>
<path d="M148.105 6.32166H142.815V9.48247H148.105V6.32166Z" fill="#98B8F2"/>
<path d="M148.105 9.48242H142.815V12.6416H148.105V9.48242Z" fill="#98B8F2"/>
<path d="M148.105 12.6416H142.815V15.8024H148.105V12.6416Z" fill="#98B8F2"/>
<path d="M148.105 15.8025H142.815V18.9633H148.105V15.8025Z" fill="#98B8F2"/>
<path d="M148.105 18.9633H142.815V22.1241H148.105V18.9633Z" fill="#98B8F2"/>
<path d="M148.105 22.1241H142.815V25.2834H148.105V22.1241Z" fill="#98B8F2"/>
<path d="M148.105 28.4441H142.815V31.6049H148.105V28.4441Z" fill="#98B8F2"/>
<path d="M148.105 31.605H142.815V34.7658H148.105V31.605Z" fill="#98B8F2"/>
<path d="M148.105 34.7657H142.815V37.9266H148.105V34.7657Z" fill="#98B8F2"/>
<path d="M148.105 37.9265H142.815V41.0857H148.105V37.9265Z" fill="#98B8F2"/>
<path d="M148.105 41.0858H142.815V44.2466H148.105V41.0858Z" fill="#98B8F2"/>
<path d="M153.392 3.16077H148.105V6.32158H153.392V3.16077Z" fill="#98B8F2"/>
<path d="M153.392 6.32166H148.105V9.48247H153.392V6.32166Z" fill="#98B8F2"/>
<path d="M153.392 9.48242H148.105V12.6416H153.392V9.48242Z" fill="#98B8F2"/>
<path d="M153.392 12.6416H148.105V15.8024H153.392V12.6416Z" fill="#98B8F2"/>
<path d="M153.392 15.8025H148.105V18.9633H153.392V15.8025Z" fill="#98B8F2"/>
<path d="M153.392 18.9633H148.105V22.1241H153.392V18.9633Z" fill="#98B8F2"/>
<path d="M153.392 22.1241H148.105V25.2834H153.392V22.1241Z" fill="#98B8F2"/>
<path d="M153.392 28.4441H148.105V31.6049H153.392V28.4441Z" fill="#98B8F2"/>
<path d="M153.392 31.605H148.105V34.7658H153.392V31.605Z" fill="#98B8F2"/>
<path d="M153.392 34.7657H148.105V37.9266H153.392V34.7657Z" fill="#98B8F2"/>
<path d="M153.392 37.9265H148.105V41.0857H153.392V37.9265Z" fill="#98B8F2"/>
<path d="M153.392 41.0858H148.105V44.2466H153.392V41.0858Z" fill="#98B8F2"/>
<path d="M158.682 3.16077H153.392V6.32158H158.682V3.16077Z" fill="#98B8F2"/>
<path d="M158.682 6.32166H153.392V9.48247H158.682V6.32166Z" fill="#98B8F2"/>
<path d="M158.682 9.48242H153.392V12.6416H158.682V9.48242Z" fill="#98B8F2"/>
<path d="M158.682 12.6416H153.392V15.8024H158.682V12.6416Z" fill="#98B8F2"/>
<path d="M158.682 15.8025H153.392V18.9633H158.682V15.8025Z" fill="#98B8F2"/>
<path d="M158.682 18.9633H153.392V22.1241H158.682V18.9633Z" fill="#98B8F2"/>
<path d="M158.682 22.1241H153.392V25.2834H158.682V22.1241Z" fill="#98B8F2"/>
<path d="M158.682 28.4441H153.392V31.6049H158.682V28.4441Z" fill="#98B8F2"/>
<path d="M158.682 31.605H153.392V34.7658H158.682V31.605Z" fill="#98B8F2"/>
<path d="M158.682 34.7657H153.392V37.9266H158.682V34.7657Z" fill="#98B8F2"/>
<path d="M158.682 41.0858H153.392V44.2466H158.682V41.0858Z" fill="#98B8F2"/>
<path d="M158.682 37.9265H153.392V41.0857H158.682V37.9265Z" fill="#98B8F2"/>
<path d="M163.972 3.16077H158.682V6.32158H163.972V3.16077Z" fill="#98B8F2"/>
<path d="M163.972 6.32166H158.682V9.48247H163.972V6.32166Z" fill="#98B8F2"/>
<path d="M163.972 9.48242H158.682V12.6416H163.972V9.48242Z" fill="#98B8F2"/>
<path d="M163.972 12.6416H158.682V15.8024H163.972V12.6416Z" fill="#98B8F2"/>
<path d="M163.972 15.8025H158.682V18.9633H163.972V15.8025Z" fill="#98B8F2"/>
<path d="M163.972 18.9633H158.682V22.1241H163.972V18.9633Z" fill="#98B8F2"/>
<path d="M163.972 22.1241H158.682V25.2834H163.972V22.1241Z" fill="#98B8F2"/>
<path d="M163.972 28.4441H158.682V31.6049H163.972V28.4441Z" fill="#98B8F2"/>
<path d="M163.972 31.605H158.682V34.7658H163.972V31.605Z" fill="#98B8F2"/>
<path d="M163.972 34.7657H158.682V37.9266H163.972V34.7657Z" fill="#98B8F2"/>
<path d="M163.972 37.9265H158.682V41.0857H163.972V37.9265Z" fill="#98B8F2"/>
<path d="M169.262 3.16077H163.972V6.32158H169.262V3.16077Z" fill="#98B8F2"/>
<path d="M169.262 6.32166H163.972V9.48247H169.262V6.32166Z" fill="#98B8F2"/>
<path d="M169.262 9.48242H163.972V12.6416H169.262V9.48242Z" fill="#98B8F2"/>
<path d="M169.262 12.6416H163.972V15.8024H169.262V12.6416Z" fill="#98B8F2"/>
<path d="M169.262 15.8025H163.972V18.9633H169.262V15.8025Z" fill="#98B8F2"/>
<path d="M169.262 18.9633H163.972V22.1241H169.262V18.9633Z" fill="#98B8F2"/>
<path d="M169.262 22.1241H163.972V25.2834H169.262V22.1241Z" fill="#98B8F2"/>
<path d="M169.262 28.4441H163.972V31.6049H169.262V28.4441Z" fill="#98B8F2"/>
<path d="M169.262 31.605H163.972V34.7658H169.262V31.605Z" fill="#98B8F2"/>
<path d="M169.262 34.7657H163.972V37.9266H169.262V34.7657Z" fill="#98B8F2"/>
<path d="M169.262 37.9265H163.972V41.0857H169.262V37.9265Z" fill="#98B8F2"/>
<path d="M174.553 3.16077H169.262V6.32158H174.553V3.16077Z" fill="#98B8F2"/>
<path d="M174.553 6.32166H169.262V9.48247H174.553V6.32166Z" fill="#98B8F2"/>
<path d="M179.84 6.32166H174.552V9.48247H179.84V6.32166Z" fill="#98B8F2"/>
<path d="M179.84 9.48242H174.552V12.6416H179.84V9.48242Z" fill="#98B8F2"/>
<path d="M174.553 9.48242H169.262V12.6416H174.553V9.48242Z" fill="#98B8F2"/>
<path d="M174.553 12.6416H169.262V15.8024H174.553V12.6416Z" fill="#98B8F2"/>
<path d="M174.553 15.8025H169.262V18.9633H174.553V15.8025Z" fill="#98B8F2"/>
<path d="M174.553 18.9633H169.262V22.1241H174.553V18.9633Z" fill="#98B8F2"/>
<path d="M174.553 22.1241H169.262V25.2834H174.553V22.1241Z" fill="#98B8F2"/>
<path d="M174.553 37.9265H169.262V41.0857H174.553V37.9265Z" fill="#98B8F2"/>
<path d="M174.553 34.7657H169.262V37.9266H174.553V34.7657Z" fill="#98B8F2"/>
<path d="M174.553 31.605H169.262V34.7658H174.553V31.605Z" fill="#98B8F2"/>
<path d="M174.553 28.4441H169.262V31.6049H174.553V28.4441Z" fill="#98B8F2"/>
<path d="M174.553 25.2833H169.262V28.4441H174.553V25.2833Z" fill="#98B8F2"/>
<path d="M169.262 25.2833H163.972V28.4441H169.262V25.2833Z" fill="#98B8F2"/>
<path d="M163.972 25.2833H158.682V28.4441H163.972V25.2833Z" fill="#98B8F2"/>
<path d="M158.682 25.2833H153.392V28.4441H158.682V25.2833Z" fill="#98B8F2"/>
<path d="M153.392 25.2833H148.105V28.4441H153.392V25.2833Z" fill="#98B8F2"/>
<path d="M148.105 25.2833H142.815V28.4441H148.105V25.2833Z" fill="#98B8F2"/>
<path d="M21.1574 3.16077H15.8674V6.32158H21.1574V3.16077Z" fill="black"/>
<path d="M15.8675 41.0858H10.5774V44.2466H15.8675V41.0858Z" fill="black"/>
<path d="M15.8675 9.48242H10.5774V12.6416H15.8675V9.48242Z" fill="black"/>
<path d="M15.8675 6.32166H10.5774V9.48247H15.8675V6.32166Z" fill="black"/>
<path d="M15.8675 3.16077H10.5774V6.32158H15.8675V3.16077Z" fill="black"/>
<path d="M10.5773 41.0858H5.28729V44.2466H10.5773V41.0858Z" fill="black"/>
<path d="M10.5773 37.9265H5.28729V41.0857H10.5773V37.9265Z" fill="black"/>
<path d="M10.5773 34.7657H5.28729V37.9266H10.5773V34.7657Z" fill="black"/>
<path d="M10.5773 31.605H5.28729V34.7658H10.5773V31.605Z" fill="black"/>
<path d="M10.5773 28.4441H5.28729V31.6049H10.5773V28.4441Z" fill="black"/>
<path d="M10.5773 25.2833H5.28729V28.4441H10.5773V25.2833Z" fill="black"/>
<path d="M10.5773 12.6416H5.28729V15.8024H10.5773V12.6416Z" fill="black"/>
<path d="M10.5773 9.48242H5.28729V12.6416H10.5773V9.48242Z" fill="black"/>
<path d="M5.28734 25.2833H0V28.4441H5.28734V25.2833Z" fill="black"/>
<path d="M5.28734 22.1241H0V25.2834H5.28734V22.1241Z" fill="black"/>
<path d="M5.28734 18.9633H0V22.1241H5.28734V18.9633Z" fill="black"/>
<path d="M5.28734 15.8025H0V18.9633H5.28734V15.8025Z" fill="black"/>
<path d="M37.0249 44.2466H31.7349V47.4074H37.0249V44.2466Z" fill="black"/>
<path d="M31.7349 44.2466H26.4476V47.4074H31.7349V44.2466Z" fill="black"/>
<path d="M31.7349 41.0858H26.4476V44.2466H31.7349V41.0858Z" fill="black"/>
<path d="M26.4475 41.0858H21.1575V44.2466H26.4475V41.0858Z" fill="black"/>
<path d="M26.4475 3.16077H21.1575V6.32158H26.4475V3.16077Z" fill="black"/>
<path d="M21.1574 41.0858H15.8674V44.2466H21.1574V41.0858Z" fill="black"/>
<path d="M52.8951 44.2466H47.605V47.4074H52.8951V44.2466Z" fill="black"/>
<path d="M47.605 44.2466H42.3149V47.4074H47.605V44.2466Z" fill="black"/>
<path d="M42.3149 44.2466H37.0249V47.4074H42.3149V44.2466Z" fill="black"/>
<path d="M63.4724 44.2466H58.1824V47.4074H63.4724V44.2466Z" fill="black"/>
<path d="M58.1823 44.2466H52.895V47.4074H58.1823V44.2466Z" fill="black"/>
<path d="M74.0525 44.2466H68.7625V47.4074H74.0525V44.2466Z" fill="black"/>
<path d="M79.3398 44.2466H74.0525V47.4074H79.3398V44.2466Z" fill="black"/>
<path d="M68.7624 44.2466H63.4724V47.4074H68.7624V44.2466Z" fill="black"/>
<path d="M84.6299 44.2466H79.3398V47.4074H84.6299V44.2466Z" fill="black"/>
<path d="M89.9199 44.2466H84.6299V47.4074H89.9199V44.2466Z" fill="black"/>
<path d="M105.787 44.2466H100.5V47.4074H105.787V44.2466Z" fill="black"/>
<path d="M100.5 44.2466H95.21V47.4074H100.5V44.2466Z" fill="black"/>
<path d="M95.2099 44.2466H89.9199V47.4074H95.2099V44.2466Z" fill="black"/>
<path d="M111.077 44.2466H105.787V47.4074H111.077V44.2466Z" fill="black"/>
<path d="M116.367 44.2466H111.077V47.4074H116.367V44.2466Z" fill="black"/>
<path d="M121.657 44.2466H116.367V47.4074H121.657V44.2466Z" fill="black"/>
<path d="M126.947 44.2466H121.657V47.4074H126.947V44.2466Z" fill="black"/>
<path d="M174.553 41.0858H169.262V44.2466H174.553V41.0858Z" fill="black"/>
<path d="M179.84 0H174.552V3.16082H179.84V0Z" fill="black"/>
<path d="M179.84 41.0858H174.552V44.2466H179.84V41.0858Z" fill="black"/>
<path d="M179.84 3.16077H174.552V6.32158H179.84V3.16077Z" fill="black"/>
<path d="M132.235 44.2466H126.948V47.4074H132.235V44.2466Z" fill="black"/>
<path d="M137.525 44.2466H132.235V47.4074H137.525V44.2466Z" fill="black"/>
<path d="M142.815 44.2466H137.525V47.4074H142.815V44.2466Z" fill="black"/>
<path d="M148.105 44.2466H142.815V47.4074H148.105V44.2466Z" fill="black"/>
<path d="M153.392 44.2466H148.105V47.4074H153.392V44.2466Z" fill="black"/>
<path d="M158.682 44.2466H153.392V47.4074H158.682V44.2466Z" fill="black"/>
<path d="M163.972 41.0858H158.682V44.2466H163.972V41.0858Z" fill="black"/>
<path d="M169.262 41.0858H163.972V44.2466H169.262V41.0858Z" fill="black"/>
<path d="M190.42 3.16077H185.13V6.32158H190.42V3.16077Z" fill="black"/>
<path d="M185.13 41.0858H179.84V44.2466H185.13V41.0858Z" fill="black"/>
<path d="M190.42 9.48242H185.13V12.6416H190.42V9.48242Z" fill="black"/>
<path d="M190.42 6.32166H185.13V9.48247H190.42V6.32166Z" fill="black"/>
<path d="M190.42 41.0858H185.13V44.2466H190.42V41.0858Z" fill="black"/>
<path d="M185.13 3.16077H179.84V6.32158H185.13V3.16077Z" fill="black"/>
<path d="M190.42 37.9265H185.13V41.0857H190.42V37.9265Z" fill="black"/>
<path d="M195.71 9.48242H190.42V12.6416H195.71V9.48242Z" fill="black"/>
<path d="M195.71 31.605H190.42V34.7658H195.71V31.605Z" fill="black"/>
<path d="M195.71 12.6416H190.42V15.8024H195.71V12.6416Z" fill="black"/>
<path d="M195.71 37.9265H190.42V41.0857H195.71V37.9265Z" fill="black"/>
<path d="M195.71 34.7657H190.42V37.9266H195.71V34.7657Z" fill="black"/>
<path d="M195.71 15.8025H190.42V18.9633H195.71V15.8025Z" fill="black"/>
<path d="M201 15.8025H195.71V18.9633H201V15.8025Z" fill="black"/>
<path d="M201 28.4441H195.71V31.6049H201V28.4441Z" fill="black"/>
<path d="M201 25.2833H195.71V28.4441H201V25.2833Z" fill="black"/>
<path d="M201 31.605H195.71V34.7658H201V31.605Z" fill="black"/>
<path d="M201 22.1241H195.71V25.2834H201V22.1241Z" fill="black"/>
<path d="M201 18.9633H195.71V22.1241H201V18.9633Z" fill="black"/>
<path d="M37.0249 0H31.7349V3.16082H37.0249V0Z" fill="black"/>
<path d="M31.7349 0H26.4476V3.16082H31.7349V0Z" fill="black"/>
<path d="M52.8951 0H47.605V3.16082H52.8951V0Z" fill="black"/>
<path d="M47.605 0H42.3149V3.16082H47.605V0Z" fill="black"/>
<path d="M42.3149 0H37.0249V3.16082H42.3149V0Z" fill="black"/>
<path d="M63.4724 0H58.1824V3.16082H63.4724V0Z" fill="black"/>
<path d="M58.1823 0H52.895V3.16082H58.1823V0Z" fill="black"/>
<path d="M74.0525 0H68.7625V3.16082H74.0525V0Z" fill="black"/>
<path d="M79.3398 0H74.0525V3.16082H79.3398V0Z" fill="black"/>
<path d="M84.6299 0H79.3398V3.16082H84.6299V0Z" fill="black"/>
<path d="M89.9199 0H84.6299V3.16082H89.9199V0Z" fill="black"/>
<path d="M95.2099 0H89.9199V3.16082H95.2099V0Z" fill="black"/>
<path d="M105.787 0H100.5V3.16082H105.787V0Z" fill="black"/>
<path d="M100.5 0H95.21V3.16082H100.5V0Z" fill="black"/>
<path d="M68.7624 0H63.4724V3.16082H68.7624V0Z" fill="black"/>
<path d="M116.367 0H111.077V3.16082H116.367V0Z" fill="black"/>
<path d="M111.077 0H105.787V3.16082H111.077V0Z" fill="black"/>
<path d="M121.657 0H116.367V3.16082H121.657V0Z" fill="black"/>
<path d="M132.235 0H126.948V3.16082H132.235V0Z" fill="black"/>
<path d="M126.947 0H121.657V3.16082H126.947V0Z" fill="black"/>
<path d="M174.553 0H169.262V3.16082H174.553V0Z" fill="black"/>
<path d="M137.525 0H132.235V3.16082H137.525V0Z" fill="black"/>
<path d="M148.105 0H142.815V3.16082H148.105V0Z" fill="black"/>
<path d="M142.815 0H137.525V3.16082H142.815V0Z" fill="black"/>
<path d="M153.392 0H148.105V3.16082H153.392V0Z" fill="black"/>
<path d="M158.682 0H153.392V3.16082H158.682V0Z" fill="black"/>
<path d="M163.972 0H158.682V3.16082H163.972V0Z" fill="black"/>
<path d="M169.262 0H163.972V3.16082H169.262V0Z" fill="black"/>
<path d="M26.4475 0H21.1575V3.16082H26.4475V0Z" fill="black"/>
<path d="M41.8333 22.3333H40.5V23.6667H33.8333V29H28.5V15.6667H40.5V17H41.8333V22.3333ZM36.5 21V18.3333H33.8333V21H36.5ZM57.8333 29H44.5V15.6667H49.8333V26.3333H57.8333V29ZM73.8333 29H68.5V23.6667H65.8333V29H60.5V17H61.8333V15.6667H72.5V17H73.8333V29ZM68.5 21V18.3333H65.8333V21H68.5ZM89.8333 22.3333H88.5V23.6667H85.8333V29H80.5V23.6667H77.8333V22.3333H76.5V15.6667H81.8333V21H84.5V15.6667H89.8333V22.3333ZM113.833 29H108.5V23.6667H105.833V29H100.5V17H101.833V15.6667H112.5V17H113.833V29ZM108.5 21V18.3333H105.833V21H108.5ZM129.833 29H117.833V27.6667H116.5V17H117.833V15.6667H129.833V18.3333H121.833V26.3333H124.5V23.6667H123.167V21H129.833V29ZM145.833 29H140.5V23.6667H137.833V29H132.5V17H133.833V15.6667H144.5V17H145.833V29ZM140.5 21V18.3333H137.833V21H140.5ZM153.833 29H148.5V15.6667H153.833V29ZM169.833 29H164.5V18.3333H161.833V29H156.5V15.6667H168.5V17H169.833V29Z" fill="black"/>
</g>
<defs>
<clipPath id="clip0">
<rect width="201" height="47.4074" fill="white" transform="translate(0 0.592529)"/>
</clipPath>
<clipPath id="clip1">
<rect width="201" height="47.4074" fill="white"/>
</clipPath>
</defs>
</svg>
