<svg width="201" height="48" viewBox="0 0 201 48" fill="none" xmlns="http://www.w3.org/2000/svg">
<g clip-path="url(#clip0_214_2)">
<path d="M179.84 12.6417H174.552V15.8025H179.84V12.6417Z" fill="#131B42"/>
<path d="M179.84 15.8025H174.552V18.9633H179.84V15.8025Z" fill="#131B42"/>
<path d="M179.84 18.9633H174.552V22.1241H179.84V18.9633Z" fill="#131B42"/>
<path d="M179.84 22.1241H174.552V25.2833H179.84V22.1241Z" fill="#131B42"/>
<path d="M179.84 25.2833H174.552V28.4441H179.84V25.2833Z" fill="#131B42"/>
<path d="M179.84 28.4441H174.552V31.6049H179.84V28.4441Z" fill="#131B42"/>
<path d="M179.84 31.6049H174.552V34.7657H179.84V31.6049Z" fill="#131B42"/>
<path d="M179.84 34.7657H174.552V37.9266H179.84V34.7657Z" fill="#131B42"/>
<path d="M179.84 37.9266H174.552V41.0858H179.84V37.9266Z" fill="#131B42"/>
<path d="M185.13 6.32166H179.84V9.48247H185.13V6.32166Z" fill="#131B42"/>
<path d="M185.13 15.8025H179.84V18.9633H185.13V15.8025Z" fill="#131B42"/>
<path d="M185.13 18.9633H179.84V22.1241H185.13V18.9633Z" fill="#131B42"/>
<path d="M185.13 22.1241H179.84V25.2833H185.13V22.1241Z" fill="#131B42"/>
<path d="M185.13 25.2833H179.84V28.4441H185.13V25.2833Z" fill="#131B42"/>
<path d="M185.13 28.4441H179.84V31.6049H185.13V28.4441Z" fill="#131B42"/>
<path d="M185.13 31.6049H179.84V34.7657H185.13V31.6049Z" fill="#131B42"/>
<path d="M185.13 37.9266H179.84V41.0858H185.13V37.9266Z" fill="#131B42"/>
<path d="M185.13 34.7657H179.84V37.9266H185.13V34.7657Z" fill="#131B42"/>
<path d="M190.42 22.1241H185.13V25.2833H190.42V22.1241Z" fill="#131B42"/>
<path d="M190.42 25.2833H185.13V28.4441H190.42V25.2833Z" fill="#131B42"/>
<path d="M190.42 34.7657H185.13V37.9266H190.42V34.7657Z" fill="#131B42"/>
<path d="M190.42 31.6049H185.13V34.7657H190.42V31.6049Z" fill="#131B42"/>
<path d="M190.42 28.4441H185.13V31.6049H190.42V28.4441Z" fill="#131B42"/>
<path d="M195.71 28.4441H190.42V31.6049H195.71V28.4441Z" fill="#131B42"/>
<path d="M195.71 25.2833H190.42V28.4441H195.71V25.2833Z" fill="#131B42"/>
<path d="M195.71 22.1241H190.42V25.2833H195.71V22.1241Z" fill="#131B42"/>
<path d="M195.71 18.9633H190.42V22.1241H195.71V18.9633Z" fill="#131B42"/>
<path d="M190.42 18.9633H185.13V22.1241H190.42V18.9633Z" fill="#131B42"/>
<path d="M190.42 15.8025H185.13V18.9633H190.42V15.8025Z" fill="#131B42"/>
<path d="M190.42 12.6417H185.13V15.8025H190.42V12.6417Z" fill="#131B42"/>
<path d="M185.13 12.6417H179.84V15.8025H185.13V12.6417Z" fill="#131B42"/>
<path d="M185.13 9.48242H179.84V12.6416H185.13V9.48242Z" fill="#131B42"/>
<path d="M126.948 6.32166H121.657V9.48247H126.948V6.32166Z" fill="#131B42"/>
<path d="M126.948 9.48242H121.657V12.6416H126.948V9.48242Z" fill="#131B42"/>
<path d="M126.948 12.6417H121.657V15.8025H126.948V12.6417Z" fill="#131B42"/>
<path d="M126.948 15.8025H121.657V18.9633H126.948V15.8025Z" fill="#131B42"/>
<path d="M126.948 18.9633H121.657V22.1241H126.948V18.9633Z" fill="#131B42"/>
<path d="M126.948 22.1241H121.657V25.2833H126.948V22.1241Z" fill="#131B42"/>
<path d="M126.948 25.2833H121.657V28.4441H126.948V25.2833Z" fill="#131B42"/>
<path d="M126.948 28.4441H121.657V31.6049H126.948V28.4441Z" fill="#131B42"/>
<path d="M126.948 31.6049H121.657V34.7657H126.948V31.6049Z" fill="#131B42"/>
<path d="M126.948 34.7657H121.657V37.9266H126.948V34.7657Z" fill="#131B42"/>
<path d="M126.948 37.9266H121.657V41.0858H126.948V37.9266Z" fill="#131B42"/>
<path d="M126.948 41.0858H121.657V44.2466H126.948V41.0858Z" fill="#131B42"/>
<path d="M74.0525 3.16083H68.7625V6.32164H74.0525V3.16083Z" fill="#131B42"/>
<path d="M74.0525 6.32166H68.7625V9.48247H74.0525V6.32166Z" fill="#131B42"/>
<path d="M74.0525 9.48242H68.7625V12.6416H74.0525V9.48242Z" fill="#131B42"/>
<path d="M74.0525 12.6417H68.7625V15.8025H74.0525V12.6417Z" fill="#131B42"/>
<path d="M74.0525 15.8025H68.7625V18.9633H74.0525V15.8025Z" fill="#131B42"/>
<path d="M74.0525 18.9633H68.7625V22.1241H74.0525V18.9633Z" fill="#131B42"/>
<path d="M74.0525 22.1241H68.7625V25.2833H74.0525V22.1241Z" fill="#131B42"/>
<path d="M74.0525 25.2833H68.7625V28.4441H74.0525V25.2833Z" fill="#131B42"/>
<path d="M74.0525 28.4441H68.7625V31.6049H74.0525V28.4441Z" fill="#131B42"/>
<path d="M74.0525 31.6049H68.7625V34.7657H74.0525V31.6049Z" fill="#131B42"/>
<path d="M74.0525 34.7657H68.7625V37.9266H74.0525V34.7657Z" fill="#131B42"/>
<path d="M74.0525 37.9266H68.7625V41.0858H74.0525V37.9266Z" fill="#131B42"/>
<path d="M21.1575 6.32166H15.8674V9.48247H21.1575V6.32166Z" fill="#131B42"/>
<path d="M21.1575 9.48242H15.8674V12.6416H21.1575V9.48242Z" fill="#131B42"/>
<path d="M21.1575 12.6417H15.8674V15.8025H21.1575V12.6417Z" fill="#131B42"/>
<path d="M21.1575 15.8025H15.8674V18.9633H21.1575V15.8025Z" fill="#131B42"/>
<path d="M21.1575 18.9633H15.8674V22.1241H21.1575V18.9633Z" fill="#131B42"/>
<path d="M21.1575 22.1241H15.8674V25.2833H21.1575V22.1241Z" fill="#131B42"/>
<path d="M21.1575 25.2833H15.8674V28.4441H21.1575V25.2833Z" fill="#131B42"/>
<path d="M21.1575 28.4441H15.8674V31.6049H21.1575V28.4441Z" fill="#131B42"/>
<path d="M21.1575 31.6049H15.8674V34.7657H21.1575V31.6049Z" fill="#131B42"/>
<path d="M21.1575 34.7657H15.8674V37.9266H21.1575V34.7657Z" fill="#131B42"/>
<path d="M10.5774 15.8025H5.28735V18.9633H10.5774V15.8025Z" fill="#131B42"/>
<path d="M10.5774 18.9633H5.28735V22.1241H10.5774V18.9633Z" fill="#131B42"/>
<path d="M10.5774 22.1241H5.28735V25.2833H10.5774V22.1241Z" fill="#131B42"/>
<path d="M15.8674 12.6417H10.5774V15.8025H15.8674V12.6417Z" fill="#131B42"/>
<path d="M15.8674 15.8025H10.5774V18.9633H15.8674V15.8025Z" fill="#131B42"/>
<path d="M15.8674 18.9633H10.5774V22.1241H15.8674V18.9633Z" fill="#131B42"/>
<path d="M15.8674 22.1241H10.5774V25.2833H15.8674V22.1241Z" fill="#131B42"/>
<path d="M15.8674 25.2833H10.5774V28.4441H15.8674V25.2833Z" fill="#131B42"/>
<path d="M15.8674 28.4441H10.5774V31.6049H15.8674V28.4441Z" fill="#131B42"/>
<path d="M15.8674 31.6049H10.5774V34.7657H15.8674V31.6049Z" fill="#131B42"/>
<path d="M15.8674 34.7657H10.5774V37.9266H15.8674V34.7657Z" fill="#131B42"/>
<path d="M15.8674 37.9266H10.5774V41.0858H15.8674V37.9266Z" fill="#131B42"/>
<path d="M21.1575 37.9266H15.8674V41.0858H21.1575V37.9266Z" fill="#131B42"/>
<path d="M26.4475 6.32166H21.1575V9.48247H26.4475V6.32166Z" fill="#131B42"/>
<path d="M26.4475 9.48242H21.1575V12.6416H26.4475V9.48242Z" fill="#131B42"/>
<path d="M26.4475 12.6417H21.1575V15.8025H26.4475V12.6417Z" fill="#131B42"/>
<path d="M26.4475 15.8025H21.1575V18.9633H26.4475V15.8025Z" fill="#131B42"/>
<path d="M26.4475 18.9633H21.1575V22.1241H26.4475V18.9633Z" fill="#131B42"/>
<path d="M26.4475 22.1241H21.1575V25.2833H26.4475V22.1241Z" fill="#131B42"/>
<path d="M26.4475 25.2833H21.1575V28.4441H26.4475V25.2833Z" fill="#131B42"/>
<path d="M26.4475 28.4441H21.1575V31.6049H26.4475V28.4441Z" fill="#131B42"/>
<path d="M26.4475 31.6049H21.1575V34.7657H26.4475V31.6049Z" fill="#131B42"/>
<path d="M26.4475 34.7657H21.1575V37.9266H26.4475V34.7657Z" fill="#131B42"/>
<path d="M26.4475 37.9266H21.1575V41.0858H26.4475V37.9266Z" fill="#131B42"/>
<path d="M31.7349 3.16083H26.4475V6.32164H31.7349V3.16083Z" fill="#131B42"/>
<path d="M31.7349 6.32166H26.4475V9.48247H31.7349V6.32166Z" fill="#131B42"/>
<path d="M31.7349 9.48242H26.4475V12.6416H31.7349V9.48242Z" fill="#131B42"/>
<path d="M31.7349 12.6417H26.4475V15.8025H31.7349V12.6417Z" fill="#131B42"/>
<path d="M31.7349 15.8025H26.4475V18.9633H31.7349V15.8025Z" fill="#131B42"/>
<path d="M31.7349 18.9633H26.4475V22.1241H31.7349V18.9633Z" fill="#131B42"/>
<path d="M31.7349 22.1241H26.4475V25.2833H31.7349V22.1241Z" fill="#131B42"/>
<path d="M31.7349 25.2833H26.4475V28.4441H31.7349V25.2833Z" fill="#131B42"/>
<path d="M31.7349 28.4441H26.4475V31.6049H31.7349V28.4441Z" fill="#131B42"/>
<path d="M31.7349 31.6049H26.4475V34.7657H31.7349V31.6049Z" fill="#131B42"/>
<path d="M31.7349 34.7657H26.4475V37.9266H31.7349V34.7657Z" fill="#131B42"/>
<path d="M31.7349 37.9266H26.4475V41.0858H31.7349V37.9266Z" fill="#131B42"/>
<path d="M37.0249 3.16083H31.7349V6.32164H37.0249V3.16083Z" fill="#131B42"/>
<path d="M37.0249 6.32166H31.7349V9.48247H37.0249V6.32166Z" fill="#131B42"/>
<path d="M37.0249 9.48242H31.7349V12.6416H37.0249V9.48242Z" fill="#131B42"/>
<path d="M37.0249 12.6417H31.7349V15.8025H37.0249V12.6417Z" fill="#131B42"/>
<path d="M37.0249 15.8025H31.7349V18.9633H37.0249V15.8025Z" fill="#131B42"/>
<path d="M37.0249 18.9633H31.7349V22.1241H37.0249V18.9633Z" fill="#131B42"/>
<path d="M37.0249 22.1241H31.7349V25.2833H37.0249V22.1241Z" fill="#131B42"/>
<path d="M37.0249 25.2833H31.7349V28.4441H37.0249V25.2833Z" fill="#131B42"/>
<path d="M37.0249 28.4441H31.7349V31.6049H37.0249V28.4441Z" fill="#131B42"/>
<path d="M37.0249 31.6049H31.7349V34.7657H37.0249V31.6049Z" fill="#131B42"/>
<path d="M37.0249 34.7657H31.7349V37.9266H37.0249V34.7657Z" fill="#131B42"/>
<path d="M37.0249 37.9266H31.7349V41.0858H37.0249V37.9266Z" fill="#131B42"/>
<path d="M37.0249 41.0858H31.7349V44.2466H37.0249V41.0858Z" fill="#131B42"/>
<path d="M42.3149 3.16083H37.0249V6.32164H42.3149V3.16083Z" fill="#131B42"/>
<path d="M42.3149 6.32166H37.0249V9.48247H42.3149V6.32166Z" fill="#131B42"/>
<path d="M42.3149 9.48242H37.0249V12.6416H42.3149V9.48242Z" fill="#131B42"/>
<path d="M42.3149 12.6417H37.0249V15.8025H42.3149V12.6417Z" fill="#131B42"/>
<path d="M42.3149 15.8025H37.0249V18.9633H42.3149V15.8025Z" fill="#131B42"/>
<path d="M42.3149 18.9633H37.0249V22.1241H42.3149V18.9633Z" fill="#131B42"/>
<path d="M42.3149 22.1241H37.0249V25.2833H42.3149V22.1241Z" fill="#131B42"/>
<path d="M42.3149 25.2833H37.0249V28.4441H42.3149V25.2833Z" fill="#131B42"/>
<path d="M42.3149 28.4441H37.0249V31.6049H42.3149V28.4441Z" fill="#131B42"/>
<path d="M42.3149 31.6049H37.0249V34.7657H42.3149V31.6049Z" fill="#131B42"/>
<path d="M42.3149 34.7657H37.0249V37.9266H42.3149V34.7657Z" fill="#131B42"/>
<path d="M42.3149 37.9266H37.0249V41.0858H42.3149V37.9266Z" fill="#131B42"/>
<path d="M42.3149 41.0858H37.0249V44.2466H42.3149V41.0858Z" fill="#131B42"/>
<path d="M47.605 3.16083H42.3149V6.32164H47.605V3.16083Z" fill="#131B42"/>
<path d="M47.605 6.32166H42.3149V9.48247H47.605V6.32166Z" fill="#131B42"/>
<path d="M47.605 9.48242H42.3149V12.6416H47.605V9.48242Z" fill="#131B42"/>
<path d="M47.605 12.6417H42.3149V15.8025H47.605V12.6417Z" fill="#131B42"/>
<path d="M47.605 15.8025H42.3149V18.9633H47.605V15.8025Z" fill="#131B42"/>
<path d="M47.605 18.9633H42.3149V22.1241H47.605V18.9633Z" fill="#131B42"/>
<path d="M47.605 22.1241H42.3149V25.2833H47.605V22.1241Z" fill="#131B42"/>
<path d="M47.605 25.2833H42.3149V28.4441H47.605V25.2833Z" fill="#131B42"/>
<path d="M47.605 28.4441H42.3149V31.6049H47.605V28.4441Z" fill="#131B42"/>
<path d="M47.605 31.6049H42.3149V34.7657H47.605V31.6049Z" fill="#131B42"/>
<path d="M47.605 34.7657H42.3149V37.9266H47.605V34.7657Z" fill="#131B42"/>
<path d="M47.605 37.9266H42.3149V41.0858H47.605V37.9266Z" fill="#131B42"/>
<path d="M47.605 41.0858H42.3149V44.2466H47.605V41.0858Z" fill="#131B42"/>
<path d="M52.895 3.16083H47.605V6.32164H52.895V3.16083Z" fill="#131B42"/>
<path d="M52.895 6.32166H47.605V9.48247H52.895V6.32166Z" fill="#131B42"/>
<path d="M52.895 9.48242H47.605V12.6416H52.895V9.48242Z" fill="#131B42"/>
<path d="M52.895 12.6417H47.605V15.8025H52.895V12.6417Z" fill="#131B42"/>
<path d="M52.895 15.8025H47.605V18.9633H52.895V15.8025Z" fill="#131B42"/>
<path d="M52.895 18.9633H47.605V22.1241H52.895V18.9633Z" fill="#131B42"/>
<path d="M52.895 22.1241H47.605V25.2833H52.895V22.1241Z" fill="#131B42"/>
<path d="M52.895 25.2833H47.605V28.4441H52.895V25.2833Z" fill="#131B42"/>
<path d="M52.895 28.4441H47.605V31.6049H52.895V28.4441Z" fill="#131B42"/>
<path d="M52.895 31.6049H47.605V34.7657H52.895V31.6049Z" fill="#131B42"/>
<path d="M52.895 34.7657H47.605V37.9266H52.895V34.7657Z" fill="#131B42"/>
<path d="M52.895 37.9266H47.605V41.0858H52.895V37.9266Z" fill="#131B42"/>
<path d="M52.895 41.0858H47.605V44.2466H52.895V41.0858Z" fill="#131B42"/>
<path d="M58.1824 3.16083H52.895V6.32164H58.1824V3.16083Z" fill="#131B42"/>
<path d="M58.1824 6.32166H52.895V9.48247H58.1824V6.32166Z" fill="#131B42"/>
<path d="M58.1824 9.48242H52.895V12.6416H58.1824V9.48242Z" fill="#131B42"/>
<path d="M58.1824 12.6417H52.895V15.8025H58.1824V12.6417Z" fill="#131B42"/>
<path d="M58.1824 15.8025H52.895V18.9633H58.1824V15.8025Z" fill="#131B42"/>
<path d="M58.1824 18.9633H52.895V22.1241H58.1824V18.9633Z" fill="#131B42"/>
<path d="M58.1824 22.1241H52.895V25.2833H58.1824V22.1241Z" fill="#131B42"/>
<path d="M58.1824 25.2833H52.895V28.4441H58.1824V25.2833Z" fill="#131B42"/>
<path d="M58.1824 28.4441H52.895V31.6049H58.1824V28.4441Z" fill="#131B42"/>
<path d="M58.1824 31.6049H52.895V34.7657H58.1824V31.6049Z" fill="#131B42"/>
<path d="M58.1824 34.7657H52.895V37.9266H58.1824V34.7657Z" fill="#131B42"/>
<path d="M58.1824 37.9266H52.895V41.0858H58.1824V37.9266Z" fill="#131B42"/>
<path d="M58.1824 41.0858H52.895V44.2466H58.1824V41.0858Z" fill="#131B42"/>
<path d="M63.4724 3.16083H58.1824V6.32164H63.4724V3.16083Z" fill="#131B42"/>
<path d="M63.4724 6.32166H58.1824V9.48247H63.4724V6.32166Z" fill="#131B42"/>
<path d="M63.4724 9.48242H58.1824V12.6416H63.4724V9.48242Z" fill="#131B42"/>
<path d="M63.4724 12.6417H58.1824V15.8025H63.4724V12.6417Z" fill="#131B42"/>
<path d="M63.4724 15.8025H58.1824V18.9633H63.4724V15.8025Z" fill="#131B42"/>
<path d="M63.4724 18.9633H58.1824V22.1241H63.4724V18.9633Z" fill="#131B42"/>
<path d="M63.4724 22.1241H58.1824V25.2833H63.4724V22.1241Z" fill="#131B42"/>
<path d="M63.4724 25.2833H58.1824V28.4441H63.4724V25.2833Z" fill="#131B42"/>
<path d="M63.4724 28.4441H58.1824V31.6049H63.4724V28.4441Z" fill="#131B42"/>
<path d="M63.4724 31.6049H58.1824V34.7657H63.4724V31.6049Z" fill="#131B42"/>
<path d="M63.4724 34.7657H58.1824V37.9266H63.4724V34.7657Z" fill="#131B42"/>
<path d="M63.4724 37.9266H58.1824V41.0858H63.4724V37.9266Z" fill="#131B42"/>
<path d="M63.4724 41.0858H58.1824V44.2466H63.4724V41.0858Z" fill="#131B42"/>
<path d="M68.7625 3.16083H63.4724V6.32164H68.7625V3.16083Z" fill="#131B42"/>
<path d="M68.7625 6.32166H63.4724V9.48247H68.7625V6.32166Z" fill="#131B42"/>
<path d="M68.7625 9.48242H63.4724V12.6416H68.7625V9.48242Z" fill="#131B42"/>
<path d="M68.7625 12.6417H63.4724V15.8025H68.7625V12.6417Z" fill="#131B42"/>
<path d="M68.7625 15.8025H63.4724V18.9633H68.7625V15.8025Z" fill="#131B42"/>
<path d="M68.7625 18.9633H63.4724V22.1241H68.7625V18.9633Z" fill="#131B42"/>
<path d="M68.7625 22.1241H63.4724V25.2833H68.7625V22.1241Z" fill="#131B42"/>
<path d="M68.7625 25.2833H63.4724V28.4441H68.7625V25.2833Z" fill="#131B42"/>
<path d="M68.7625 28.4441H63.4724V31.6049H68.7625V28.4441Z" fill="#131B42"/>
<path d="M68.7625 31.6049H63.4724V34.7657H68.7625V31.6049Z" fill="#131B42"/>
<path d="M68.7625 34.7657H63.4724V37.9266H68.7625V34.7657Z" fill="#131B42"/>
<path d="M68.7625 37.9266H63.4724V41.0858H68.7625V37.9266Z" fill="#131B42"/>
<path d="M68.7625 41.0858H63.4724V44.2466H68.7625V41.0858Z" fill="#131B42"/>
<path d="M74.0525 41.0858H68.7625V44.2466H74.0525V41.0858Z" fill="#131B42"/>
<path d="M79.3398 3.16083H74.0525V6.32164H79.3398V3.16083Z" fill="#131B42"/>
<path d="M79.3398 6.32166H74.0525V9.48247H79.3398V6.32166Z" fill="#131B42"/>
<path d="M79.3398 9.48242H74.0525V12.6416H79.3398V9.48242Z" fill="#131B42"/>
<path d="M79.3398 12.6417H74.0525V15.8025H79.3398V12.6417Z" fill="#131B42"/>
<path d="M79.3398 15.8025H74.0525V18.9633H79.3398V15.8025Z" fill="#131B42"/>
<path d="M79.3398 18.9633H74.0525V22.1241H79.3398V18.9633Z" fill="#131B42"/>
<path d="M79.3398 22.1241H74.0525V25.2833H79.3398V22.1241Z" fill="#131B42"/>
<path d="M79.3398 25.2833H74.0525V28.4441H79.3398V25.2833Z" fill="#131B42"/>
<path d="M79.3398 28.4441H74.0525V31.6049H79.3398V28.4441Z" fill="#131B42"/>
<path d="M79.3398 31.6049H74.0525V34.7657H79.3398V31.6049Z" fill="#131B42"/>
<path d="M79.3398 34.7657H74.0525V37.9266H79.3398V34.7657Z" fill="#131B42"/>
<path d="M79.3398 37.9266H74.0525V41.0858H79.3398V37.9266Z" fill="#131B42"/>
<path d="M79.3398 41.0858H74.0525V44.2466H79.3398V41.0858Z" fill="#131B42"/>
<path d="M84.6299 3.16083H79.3398V6.32164H84.6299V3.16083Z" fill="#131B42"/>
<path d="M84.6299 6.32166H79.3398V9.48247H84.6299V6.32166Z" fill="#131B42"/>
<path d="M84.6299 9.48242H79.3398V12.6416H84.6299V9.48242Z" fill="#131B42"/>
<path d="M84.6299 12.6417H79.3398V15.8025H84.6299V12.6417Z" fill="#131B42"/>
<path d="M84.6299 15.8025H79.3398V18.9633H84.6299V15.8025Z" fill="#131B42"/>
<path d="M84.6299 18.9633H79.3398V22.1241H84.6299V18.9633Z" fill="#131B42"/>
<path d="M84.6299 22.1241H79.3398V25.2833H84.6299V22.1241Z" fill="#131B42"/>
<path d="M84.6299 25.2833H79.3398V28.4441H84.6299V25.2833Z" fill="#131B42"/>
<path d="M84.6299 28.4441H79.3398V31.6049H84.6299V28.4441Z" fill="#131B42"/>
<path d="M84.6299 31.6049H79.3398V34.7657H84.6299V31.6049Z" fill="#131B42"/>
<path d="M84.6299 34.7657H79.3398V37.9266H84.6299V34.7657Z" fill="#131B42"/>
<path d="M84.6299 37.9266H79.3398V41.0858H84.6299V37.9266Z" fill="#131B42"/>
<path d="M84.6299 41.0858H79.3398V44.2466H84.6299V41.0858Z" fill="#131B42"/>
<path d="M89.9199 3.16083H84.6299V6.32164H89.9199V3.16083Z" fill="#131B42"/>
<path d="M89.9199 6.32166H84.6299V9.48247H89.9199V6.32166Z" fill="#131B42"/>
<path d="M89.9199 9.48242H84.6299V12.6416H89.9199V9.48242Z" fill="#131B42"/>
<path d="M89.9199 12.6417H84.6299V15.8025H89.9199V12.6417Z" fill="#131B42"/>
<path d="M89.9199 15.8025H84.6299V18.9633H89.9199V15.8025Z" fill="#131B42"/>
<path d="M89.9199 18.9633H84.6299V22.1241H89.9199V18.9633Z" fill="#131B42"/>
<path d="M89.9199 22.1241H84.6299V25.2833H89.9199V22.1241Z" fill="#131B42"/>
<path d="M89.9199 25.2833H84.6299V28.4441H89.9199V25.2833Z" fill="#131B42"/>
<path d="M89.9199 28.4441H84.6299V31.6049H89.9199V28.4441Z" fill="#131B42"/>
<path d="M89.9199 31.6049H84.6299V34.7657H89.9199V31.6049Z" fill="#131B42"/>
<path d="M89.9199 34.7657H84.6299V37.9266H89.9199V34.7657Z" fill="#131B42"/>
<path d="M89.9199 37.9266H84.6299V41.0858H89.9199V37.9266Z" fill="#131B42"/>
<path d="M89.9199 41.0858H84.6299V44.2466H89.9199V41.0858Z" fill="#131B42"/>
<path d="M95.21 3.16083H89.9199V6.32164H95.21V3.16083Z" fill="#131B42"/>
<path d="M95.21 6.32166H89.9199V9.48247H95.21V6.32166Z" fill="#131B42"/>
<path d="M95.21 9.48242H89.9199V12.6416H95.21V9.48242Z" fill="#131B42"/>
<path d="M95.21 12.6417H89.9199V15.8025H95.21V12.6417Z" fill="#131B42"/>
<path d="M95.21 15.8025H89.9199V18.9633H95.21V15.8025Z" fill="#131B42"/>
<path d="M95.21 18.9633H89.9199V22.1241H95.21V18.9633Z" fill="#131B42"/>
<path d="M95.21 22.1241H89.9199V25.2833H95.21V22.1241Z" fill="#131B42"/>
<path d="M95.21 25.2833H89.9199V28.4441H95.21V25.2833Z" fill="#131B42"/>
<path d="M95.21 28.4441H89.9199V31.6049H95.21V28.4441Z" fill="#131B42"/>
<path d="M95.21 31.6049H89.9199V34.7657H95.21V31.6049Z" fill="#131B42"/>
<path d="M95.21 34.7657H89.9199V37.9266H95.21V34.7657Z" fill="#131B42"/>
<path d="M95.21 37.9266H89.9199V41.0858H95.21V37.9266Z" fill="#131B42"/>
<path d="M95.21 41.0858H89.9199V44.2466H95.21V41.0858Z" fill="#131B42"/>
<path d="M100.5 3.16083H95.21V6.32164H100.5V3.16083Z" fill="#131B42"/>
<path d="M100.5 6.32166H95.21V9.48247H100.5V6.32166Z" fill="#131B42"/>
<path d="M100.5 9.48242H95.21V12.6416H100.5V9.48242Z" fill="#131B42"/>
<path d="M100.5 12.6417H95.21V15.8025H100.5V12.6417Z" fill="#131B42"/>
<path d="M100.5 15.8025H95.21V18.9633H100.5V15.8025Z" fill="#131B42"/>
<path d="M100.5 18.9633H95.21V22.1241H100.5V18.9633Z" fill="#131B42"/>
<path d="M100.5 22.1241H95.21V25.2833H100.5V22.1241Z" fill="#131B42"/>
<path d="M100.5 25.2833H95.21V28.4441H100.5V25.2833Z" fill="#131B42"/>
<path d="M100.5 28.4441H95.21V31.6049H100.5V28.4441Z" fill="#131B42"/>
<path d="M100.5 31.6049H95.21V34.7657H100.5V31.6049Z" fill="#131B42"/>
<path d="M100.5 34.7657H95.21V37.9266H100.5V34.7657Z" fill="#131B42"/>
<path d="M100.5 37.9266H95.21V41.0858H100.5V37.9266Z" fill="#131B42"/>
<path d="M100.5 41.0858H95.21V44.2466H100.5V41.0858Z" fill="#131B42"/>
<path d="M105.787 3.16083H100.5V6.32164H105.787V3.16083Z" fill="#131B42"/>
<path d="M105.787 6.32166H100.5V9.48247H105.787V6.32166Z" fill="#131B42"/>
<path d="M105.787 9.48242H100.5V12.6416H105.787V9.48242Z" fill="#131B42"/>
<path d="M105.787 12.6417H100.5V15.8025H105.787V12.6417Z" fill="#131B42"/>
<path d="M105.787 15.8025H100.5V18.9633H105.787V15.8025Z" fill="#131B42"/>
<path d="M105.787 18.9633H100.5V22.1241H105.787V18.9633Z" fill="#131B42"/>
<path d="M105.787 22.1241H100.5V25.2833H105.787V22.1241Z" fill="#131B42"/>
<path d="M105.787 25.2833H100.5V28.4441H105.787V25.2833Z" fill="#131B42"/>
<path d="M105.787 28.4441H100.5V31.6049H105.787V28.4441Z" fill="#131B42"/>
<path d="M105.787 31.6049H100.5V34.7657H105.787V31.6049Z" fill="#131B42"/>
<path d="M105.787 34.7657H100.5V37.9266H105.787V34.7657Z" fill="#131B42"/>
<path d="M105.787 37.9266H100.5V41.0858H105.787V37.9266Z" fill="#131B42"/>
<path d="M105.787 41.0858H100.5V44.2466H105.787V41.0858Z" fill="#131B42"/>
<path d="M111.077 3.16083H105.787V6.32164H111.077V3.16083Z" fill="#131B42"/>
<path d="M111.077 6.32166H105.787V9.48247H111.077V6.32166Z" fill="#131B42"/>
<path d="M111.077 9.48242H105.787V12.6416H111.077V9.48242Z" fill="#131B42"/>
<path d="M111.077 12.6417H105.787V15.8025H111.077V12.6417Z" fill="#131B42"/>
<path d="M111.077 15.8025H105.787V18.9633H111.077V15.8025Z" fill="#131B42"/>
<path d="M111.077 18.9633H105.787V22.1241H111.077V18.9633Z" fill="#131B42"/>
<path d="M111.077 22.1241H105.787V25.2833H111.077V22.1241Z" fill="#131B42"/>
<path d="M111.077 25.2833H105.787V28.4441H111.077V25.2833Z" fill="#131B42"/>
<path d="M111.077 28.4441H105.787V31.6049H111.077V28.4441Z" fill="#131B42"/>
<path d="M111.077 31.6049H105.787V34.7657H111.077V31.6049Z" fill="#131B42"/>
<path d="M111.077 34.7657H105.787V37.9266H111.077V34.7657Z" fill="#131B42"/>
<path d="M111.077 37.9266H105.787V41.0858H111.077V37.9266Z" fill="#131B42"/>
<path d="M111.077 41.0858H105.787V44.2466H111.077V41.0858Z" fill="#131B42"/>
<path d="M116.367 3.16083H111.077V6.32164H116.367V3.16083Z" fill="#131B42"/>
<path d="M116.367 6.32166H111.077V9.48247H116.367V6.32166Z" fill="#131B42"/>
<path d="M116.367 9.48242H111.077V12.6416H116.367V9.48242Z" fill="#131B42"/>
<path d="M116.367 12.6417H111.077V15.8025H116.367V12.6417Z" fill="#131B42"/>
<path d="M116.367 15.8025H111.077V18.9633H116.367V15.8025Z" fill="#131B42"/>
<path d="M116.367 18.9633H111.077V22.1241H116.367V18.9633Z" fill="#131B42"/>
<path d="M116.367 22.1241H111.077V25.2833H116.367V22.1241Z" fill="#131B42"/>
<path d="M116.367 25.2833H111.077V28.4441H116.367V25.2833Z" fill="#131B42"/>
<path d="M116.367 28.4441H111.077V31.6049H116.367V28.4441Z" fill="#131B42"/>
<path d="M116.367 31.6049H111.077V34.7657H116.367V31.6049Z" fill="#131B42"/>
<path d="M116.367 34.7657H111.077V37.9266H116.367V34.7657Z" fill="#131B42"/>
<path d="M116.367 37.9266H111.077V41.0858H116.367V37.9266Z" fill="#131B42"/>
<path d="M116.367 41.0858H111.077V44.2466H116.367V41.0858Z" fill="#131B42"/>
<path d="M121.657 41.0858H116.367V44.2466H121.657V41.0858Z" fill="#131B42"/>
<path d="M121.657 37.9266H116.367V41.0858H121.657V37.9266Z" fill="#131B42"/>
<path d="M121.657 34.7657H116.367V37.9266H121.657V34.7657Z" fill="#131B42"/>
<path d="M121.657 31.6049H116.367V34.7657H121.657V31.6049Z" fill="#131B42"/>
<path d="M121.657 28.4441H116.367V31.6049H121.657V28.4441Z" fill="#131B42"/>
<path d="M121.657 25.2833H116.367V28.4441H121.657V25.2833Z" fill="#131B42"/>
<path d="M121.657 22.1241H116.367V25.2833H121.657V22.1241Z" fill="#131B42"/>
<path d="M121.657 18.9633H116.367V22.1241H121.657V18.9633Z" fill="#131B42"/>
<path d="M121.657 15.8025H116.367V18.9633H121.657V15.8025Z" fill="#131B42"/>
<path d="M121.657 12.6417H116.367V15.8025H121.657V12.6417Z" fill="#131B42"/>
<path d="M121.657 9.48242H116.367V12.6416H121.657V9.48242Z" fill="#131B42"/>
<path d="M121.657 6.32166H116.367V9.48247H121.657V6.32166Z" fill="#131B42"/>
<path d="M121.657 3.16083H116.367V6.32164H121.657V3.16083Z" fill="#131B42"/>
<path d="M126.948 3.16083H121.657V6.32164H126.948V3.16083Z" fill="#131B42"/>
<path d="M132.235 3.16083H126.948V6.32164H132.235V3.16083Z" fill="#131B42"/>
<path d="M132.235 6.32166H126.948V9.48247H132.235V6.32166Z" fill="#131B42"/>
<path d="M132.235 9.48242H126.948V12.6416H132.235V9.48242Z" fill="#131B42"/>
<path d="M132.235 12.6417H126.948V15.8025H132.235V12.6417Z" fill="#131B42"/>
<path d="M132.235 15.8025H126.948V18.9633H132.235V15.8025Z" fill="#131B42"/>
<path d="M132.235 18.9633H126.948V22.1241H132.235V18.9633Z" fill="#131B42"/>
<path d="M132.235 22.1241H126.948V25.2833H132.235V22.1241Z" fill="#131B42"/>
<path d="M132.235 25.2833H126.948V28.4441H132.235V25.2833Z" fill="#131B42"/>
<path d="M132.235 28.4441H126.948V31.6049H132.235V28.4441Z" fill="#131B42"/>
<path d="M132.235 31.6049H126.948V34.7657H132.235V31.6049Z" fill="#131B42"/>
<path d="M132.235 34.7657H126.948V37.9266H132.235V34.7657Z" fill="#131B42"/>
<path d="M132.235 37.9266H126.948V41.0858H132.235V37.9266Z" fill="#131B42"/>
<path d="M132.235 41.0858H126.948V44.2466H132.235V41.0858Z" fill="#131B42"/>
<path d="M137.525 3.16083H132.235V6.32164H137.525V3.16083Z" fill="#131B42"/>
<path d="M137.525 6.32166H132.235V9.48247H137.525V6.32166Z" fill="#131B42"/>
<path d="M137.525 9.48242H132.235V12.6416H137.525V9.48242Z" fill="#131B42"/>
<path d="M137.525 12.6417H132.235V15.8025H137.525V12.6417Z" fill="#131B42"/>
<path d="M137.525 15.8025H132.235V18.9633H137.525V15.8025Z" fill="#131B42"/>
<path d="M137.525 18.9633H132.235V22.1241H137.525V18.9633Z" fill="#131B42"/>
<path d="M137.525 22.1241H132.235V25.2833H137.525V22.1241Z" fill="#131B42"/>
<path d="M137.525 25.2833H132.235V28.4441H137.525V25.2833Z" fill="#131B42"/>
<path d="M137.525 28.4441H132.235V31.6049H137.525V28.4441Z" fill="#131B42"/>
<path d="M137.525 31.6049H132.235V34.7657H137.525V31.6049Z" fill="#131B42"/>
<path d="M137.525 34.7657H132.235V37.9266H137.525V34.7657Z" fill="#131B42"/>
<path d="M137.525 37.9266H132.235V41.0858H137.525V37.9266Z" fill="#131B42"/>
<path d="M137.525 41.0858H132.235V44.2466H137.525V41.0858Z" fill="#131B42"/>
<path d="M142.815 3.16083H137.525V6.32164H142.815V3.16083Z" fill="#131B42"/>
<path d="M142.815 6.32166H137.525V9.48247H142.815V6.32166Z" fill="#131B42"/>
<path d="M142.815 9.48242H137.525V12.6416H142.815V9.48242Z" fill="#131B42"/>
<path d="M142.815 12.6417H137.525V15.8025H142.815V12.6417Z" fill="#131B42"/>
<path d="M142.815 15.8025H137.525V18.9633H142.815V15.8025Z" fill="#131B42"/>
<path d="M142.815 18.9633H137.525V22.1241H142.815V18.9633Z" fill="#131B42"/>
<path d="M142.815 22.1241H137.525V25.2833H142.815V22.1241Z" fill="#131B42"/>
<path d="M142.815 25.2833H137.525V28.4441H142.815V25.2833Z" fill="#131B42"/>
<path d="M142.815 28.4441H137.525V31.6049H142.815V28.4441Z" fill="#131B42"/>
<path d="M142.815 31.6049H137.525V34.7657H142.815V31.6049Z" fill="#131B42"/>
<path d="M142.815 34.7657H137.525V37.9266H142.815V34.7657Z" fill="#131B42"/>
<path d="M142.815 37.9266H137.525V41.0858H142.815V37.9266Z" fill="#131B42"/>
<path d="M142.815 41.0858H137.525V44.2466H142.815V41.0858Z" fill="#131B42"/>
<path d="M148.105 3.16083H142.815V6.32164H148.105V3.16083Z" fill="#131B42"/>
<path d="M148.105 6.32166H142.815V9.48247H148.105V6.32166Z" fill="#131B42"/>
<path d="M148.105 9.48242H142.815V12.6416H148.105V9.48242Z" fill="#131B42"/>
<path d="M148.105 12.6417H142.815V15.8025H148.105V12.6417Z" fill="#131B42"/>
<path d="M148.105 15.8025H142.815V18.9633H148.105V15.8025Z" fill="#131B42"/>
<path d="M148.105 18.9633H142.815V22.1241H148.105V18.9633Z" fill="#131B42"/>
<path d="M148.105 22.1241H142.815V25.2833H148.105V22.1241Z" fill="#131B42"/>
<path d="M148.105 28.4441H142.815V31.6049H148.105V28.4441Z" fill="#131B42"/>
<path d="M148.105 31.6049H142.815V34.7657H148.105V31.6049Z" fill="#131B42"/>
<path d="M148.105 34.7657H142.815V37.9266H148.105V34.7657Z" fill="#131B42"/>
<path d="M148.105 37.9266H142.815V41.0858H148.105V37.9266Z" fill="#131B42"/>
<path d="M148.105 41.0858H142.815V44.2466H148.105V41.0858Z" fill="#131B42"/>
<path d="M153.392 3.16083H148.105V6.32164H153.392V3.16083Z" fill="#131B42"/>
<path d="M153.392 6.32166H148.105V9.48247H153.392V6.32166Z" fill="#131B42"/>
<path d="M153.392 9.48242H148.105V12.6416H153.392V9.48242Z" fill="#131B42"/>
<path d="M153.392 12.6417H148.105V15.8025H153.392V12.6417Z" fill="#131B42"/>
<path d="M153.392 15.8025H148.105V18.9633H153.392V15.8025Z" fill="#131B42"/>
<path d="M153.392 18.9633H148.105V22.1241H153.392V18.9633Z" fill="#131B42"/>
<path d="M153.392 22.1241H148.105V25.2833H153.392V22.1241Z" fill="#131B42"/>
<path d="M153.392 28.4441H148.105V31.6049H153.392V28.4441Z" fill="#131B42"/>
<path d="M153.392 31.6049H148.105V34.7657H153.392V31.6049Z" fill="#131B42"/>
<path d="M153.392 34.7657H148.105V37.9266H153.392V34.7657Z" fill="#131B42"/>
<path d="M153.392 37.9266H148.105V41.0858H153.392V37.9266Z" fill="#131B42"/>
<path d="M153.392 41.0858H148.105V44.2466H153.392V41.0858Z" fill="#131B42"/>
<path d="M158.682 3.16083H153.392V6.32164H158.682V3.16083Z" fill="#131B42"/>
<path d="M158.682 6.32166H153.392V9.48247H158.682V6.32166Z" fill="#131B42"/>
<path d="M158.682 9.48242H153.392V12.6416H158.682V9.48242Z" fill="#131B42"/>
<path d="M158.682 12.6417H153.392V15.8025H158.682V12.6417Z" fill="#131B42"/>
<path d="M158.682 15.8025H153.392V18.9633H158.682V15.8025Z" fill="#131B42"/>
<path d="M158.682 18.9633H153.392V22.1241H158.682V18.9633Z" fill="#131B42"/>
<path d="M158.682 22.1241H153.392V25.2833H158.682V22.1241Z" fill="#131B42"/>
<path d="M158.682 28.4441H153.392V31.6049H158.682V28.4441Z" fill="#131B42"/>
<path d="M158.682 31.6049H153.392V34.7657H158.682V31.6049Z" fill="#131B42"/>
<path d="M158.682 34.7657H153.392V37.9266H158.682V34.7657Z" fill="#131B42"/>
<path d="M158.682 41.0858H153.392V44.2466H158.682V41.0858Z" fill="#131B42"/>
<path d="M158.682 37.9266H153.392V41.0858H158.682V37.9266Z" fill="#131B42"/>
<path d="M163.972 3.16083H158.682V6.32164H163.972V3.16083Z" fill="#131B42"/>
<path d="M163.972 6.32166H158.682V9.48247H163.972V6.32166Z" fill="#131B42"/>
<path d="M163.972 9.48242H158.682V12.6416H163.972V9.48242Z" fill="#131B42"/>
<path d="M163.972 12.6417H158.682V15.8025H163.972V12.6417Z" fill="#131B42"/>
<path d="M163.972 15.8025H158.682V18.9633H163.972V15.8025Z" fill="#131B42"/>
<path d="M163.972 18.9633H158.682V22.1241H163.972V18.9633Z" fill="#131B42"/>
<path d="M163.972 22.1241H158.682V25.2833H163.972V22.1241Z" fill="#131B42"/>
<path d="M163.972 28.4441H158.682V31.6049H163.972V28.4441Z" fill="#131B42"/>
<path d="M163.972 31.6049H158.682V34.7657H163.972V31.6049Z" fill="#131B42"/>
<path d="M163.972 34.7657H158.682V37.9266H163.972V34.7657Z" fill="#131B42"/>
<path d="M163.972 37.9266H158.682V41.0858H163.972V37.9266Z" fill="#131B42"/>
<path d="M169.262 3.16083H163.972V6.32164H169.262V3.16083Z" fill="#131B42"/>
<path d="M169.262 6.32166H163.972V9.48247H169.262V6.32166Z" fill="#131B42"/>
<path d="M169.262 9.48242H163.972V12.6416H169.262V9.48242Z" fill="#131B42"/>
<path d="M169.262 12.6417H163.972V15.8025H169.262V12.6417Z" fill="#131B42"/>
<path d="M169.262 15.8025H163.972V18.9633H169.262V15.8025Z" fill="#131B42"/>
<path d="M169.262 18.9633H163.972V22.1241H169.262V18.9633Z" fill="#131B42"/>
<path d="M169.262 22.1241H163.972V25.2833H169.262V22.1241Z" fill="#131B42"/>
<path d="M169.262 28.4441H163.972V31.6049H169.262V28.4441Z" fill="#131B42"/>
<path d="M169.262 31.6049H163.972V34.7657H169.262V31.6049Z" fill="#131B42"/>
<path d="M169.262 34.7657H163.972V37.9266H169.262V34.7657Z" fill="#131B42"/>
<path d="M169.262 37.9266H163.972V41.0858H169.262V37.9266Z" fill="#131B42"/>
<path d="M174.552 3.16083H169.262V6.32164H174.552V3.16083Z" fill="#131B42"/>
<path d="M174.552 6.32166H169.262V9.48247H174.552V6.32166Z" fill="#131B42"/>
<path d="M179.84 6.32166H174.552V9.48247H179.84V6.32166Z" fill="#131B42"/>
<path d="M179.84 9.48242H174.552V12.6416H179.84V9.48242Z" fill="#131B42"/>
<path d="M174.552 9.48242H169.262V12.6416H174.552V9.48242Z" fill="#131B42"/>
<path d="M174.552 12.6417H169.262V15.8025H174.552V12.6417Z" fill="#131B42"/>
<path d="M174.552 15.8025H169.262V18.9633H174.552V15.8025Z" fill="#131B42"/>
<path d="M174.552 18.9633H169.262V22.1241H174.552V18.9633Z" fill="#131B42"/>
<path d="M174.552 22.1241H169.262V25.2833H174.552V22.1241Z" fill="#131B42"/>
<path d="M174.552 37.9266H169.262V41.0858H174.552V37.9266Z" fill="#131B42"/>
<path d="M174.552 34.7657H169.262V37.9266H174.552V34.7657Z" fill="#131B42"/>
<path d="M174.552 31.6049H169.262V34.7657H174.552V31.6049Z" fill="#131B42"/>
<path d="M174.552 28.4441H169.262V31.6049H174.552V28.4441Z" fill="#131B42"/>
<path d="M174.552 25.2833H169.262V28.4441H174.552V25.2833Z" fill="#131B42"/>
<path d="M169.262 25.2833H163.972V28.4441H169.262V25.2833Z" fill="#131B42"/>
<path d="M163.972 25.2833H158.682V28.4441H163.972V25.2833Z" fill="#131B42"/>
<path d="M158.682 25.2833H153.392V28.4441H158.682V25.2833Z" fill="#131B42"/>
<path d="M153.392 25.2833H148.105V28.4441H153.392V25.2833Z" fill="#131B42"/>
<path d="M148.105 25.2833H142.815V28.4441H148.105V25.2833Z" fill="#131B42"/>
<path d="M21.1575 3.16083H15.8674V6.32164H21.1575V3.16083Z" fill="white"/>
<path d="M15.8674 41.0858H10.5774V44.2466H15.8674V41.0858Z" fill="white"/>
<path d="M15.8674 9.48242H10.5774V12.6416H15.8674V9.48242Z" fill="white"/>
<path d="M15.8674 6.32166H10.5774V9.48247H15.8674V6.32166Z" fill="white"/>
<path d="M15.8674 3.16083H10.5774V6.32164H15.8674V3.16083Z" fill="white"/>
<path d="M10.5774 41.0858H5.28735V44.2466H10.5774V41.0858Z" fill="white"/>
<path d="M10.5774 37.9266H5.28735V41.0858H10.5774V37.9266Z" fill="white"/>
<path d="M10.5774 34.7657H5.28735V37.9266H10.5774V34.7657Z" fill="white"/>
<path d="M10.5774 31.6049H5.28735V34.7657H10.5774V31.6049Z" fill="white"/>
<path d="M10.5774 28.4441H5.28735V31.6049H10.5774V28.4441Z" fill="white"/>
<path d="M10.5774 25.2833H5.28735V28.4441H10.5774V25.2833Z" fill="white"/>
<path d="M10.5774 12.6417H5.28735V15.8025H10.5774V12.6417Z" fill="white"/>
<path d="M10.5774 9.48242H5.28735V12.6416H10.5774V9.48242Z" fill="white"/>
<path d="M5.28734 25.2833H0V28.4441H5.28734V25.2833Z" fill="white"/>
<path d="M5.28734 22.1241H0V25.2833H5.28734V22.1241Z" fill="white"/>
<path d="M5.28734 18.9633H0V22.1241H5.28734V18.9633Z" fill="white"/>
<path d="M5.28734 15.8025H0V18.9633H5.28734V15.8025Z" fill="white"/>
<path d="M37.0249 44.2466H31.7349V47.4074H37.0249V44.2466Z" fill="white"/>
<path d="M31.7349 44.2466H26.4475V47.4074H31.7349V44.2466Z" fill="white"/>
<path d="M31.7349 41.0858H26.4475V44.2466H31.7349V41.0858Z" fill="white"/>
<path d="M26.4475 41.0858H21.1575V44.2466H26.4475V41.0858Z" fill="white"/>
<path d="M26.4475 3.16083H21.1575V6.32164H26.4475V3.16083Z" fill="white"/>
<path d="M21.1575 41.0858H15.8674V44.2466H21.1575V41.0858Z" fill="white"/>
<path d="M52.895 44.2466H47.605V47.4074H52.895V44.2466Z" fill="white"/>
<path d="M47.605 44.2466H42.3149V47.4074H47.605V44.2466Z" fill="white"/>
<path d="M42.3149 44.2466H37.0249V47.4074H42.3149V44.2466Z" fill="white"/>
<path d="M63.4724 44.2466H58.1824V47.4074H63.4724V44.2466Z" fill="white"/>
<path d="M58.1824 44.2466H52.895V47.4074H58.1824V44.2466Z" fill="white"/>
<path d="M74.0525 44.2466H68.7625V47.4074H74.0525V44.2466Z" fill="white"/>
<path d="M79.3398 44.2466H74.0525V47.4074H79.3398V44.2466Z" fill="white"/>
<path d="M68.7625 44.2466H63.4724V47.4074H68.7625V44.2466Z" fill="white"/>
<path d="M84.6299 44.2466H79.3398V47.4074H84.6299V44.2466Z" fill="white"/>
<path d="M89.9199 44.2466H84.6299V47.4074H89.9199V44.2466Z" fill="white"/>
<path d="M105.787 44.2466H100.5V47.4074H105.787V44.2466Z" fill="white"/>
<path d="M100.5 44.2466H95.21V47.4074H100.5V44.2466Z" fill="white"/>
<path d="M95.21 44.2466H89.9199V47.4074H95.21V44.2466Z" fill="white"/>
<path d="M111.077 44.2466H105.787V47.4074H111.077V44.2466Z" fill="white"/>
<path d="M116.367 44.2466H111.077V47.4074H116.367V44.2466Z" fill="white"/>
<path d="M121.657 44.2466H116.367V47.4074H121.657V44.2466Z" fill="white"/>
<path d="M126.948 44.2466H121.657V47.4074H126.948V44.2466Z" fill="white"/>
<path d="M174.552 41.0858H169.262V44.2466H174.552V41.0858Z" fill="white"/>
<path d="M179.84 0H174.552V3.16082H179.84V0Z" fill="white"/>
<path d="M179.84 41.0858H174.552V44.2466H179.84V41.0858Z" fill="white"/>
<path d="M179.84 3.16083H174.552V6.32164H179.84V3.16083Z" fill="white"/>
<path d="M132.235 44.2466H126.948V47.4074H132.235V44.2466Z" fill="white"/>
<path d="M137.525 44.2466H132.235V47.4074H137.525V44.2466Z" fill="white"/>
<path d="M142.815 44.2466H137.525V47.4074H142.815V44.2466Z" fill="white"/>
<path d="M148.105 44.2466H142.815V47.4074H148.105V44.2466Z" fill="white"/>
<path d="M153.392 44.2466H148.105V47.4074H153.392V44.2466Z" fill="white"/>
<path d="M158.682 44.2466H153.392V47.4074H158.682V44.2466Z" fill="white"/>
<path d="M163.972 41.0858H158.682V44.2466H163.972V41.0858Z" fill="white"/>
<path d="M169.262 41.0858H163.972V44.2466H169.262V41.0858Z" fill="white"/>
<path d="M190.42 3.16083H185.13V6.32164H190.42V3.16083Z" fill="white"/>
<path d="M185.13 41.0858H179.84V44.2466H185.13V41.0858Z" fill="white"/>
<path d="M190.42 9.48242H185.13V12.6416H190.42V9.48242Z" fill="white"/>
<path d="M190.42 6.32166H185.13V9.48247H190.42V6.32166Z" fill="white"/>
<path d="M190.42 41.0858H185.13V44.2466H190.42V41.0858Z" fill="white"/>
<path d="M185.13 3.16083H179.84V6.32164H185.13V3.16083Z" fill="white"/>
<path d="M190.42 37.9266H185.13V41.0858H190.42V37.9266Z" fill="white"/>
<path d="M195.71 9.48242H190.42V12.6416H195.71V9.48242Z" fill="white"/>
<path d="M195.71 31.6049H190.42V34.7657H195.71V31.6049Z" fill="white"/>
<path d="M195.71 12.6417H190.42V15.8025H195.71V12.6417Z" fill="white"/>
<path d="M195.71 37.9266H190.42V41.0858H195.71V37.9266Z" fill="white"/>
<path d="M195.71 34.7657H190.42V37.9266H195.71V34.7657Z" fill="white"/>
<path d="M195.71 15.8025H190.42V18.9633H195.71V15.8025Z" fill="white"/>
<path d="M201 15.8025H195.71V18.9633H201V15.8025Z" fill="white"/>
<path d="M201 28.4441H195.71V31.6049H201V28.4441Z" fill="white"/>
<path d="M201 25.2833H195.71V28.4441H201V25.2833Z" fill="white"/>
<path d="M201 31.6049H195.71V34.7657H201V31.6049Z" fill="white"/>
<path d="M201 22.1241H195.71V25.2833H201V22.1241Z" fill="white"/>
<path d="M201 18.9633H195.71V22.1241H201V18.9633Z" fill="white"/>
<path d="M37.0249 0H31.7349V3.16082H37.0249V0Z" fill="white"/>
<path d="M31.7349 0H26.4475V3.16082H31.7349V0Z" fill="white"/>
<path d="M52.895 0H47.605V3.16082H52.895V0Z" fill="white"/>
<path d="M47.605 0H42.3149V3.16082H47.605V0Z" fill="white"/>
<path d="M42.3149 0H37.0249V3.16082H42.3149V0Z" fill="white"/>
<path d="M63.4724 0H58.1824V3.16082H63.4724V0Z" fill="white"/>
<path d="M58.1824 0H52.895V3.16082H58.1824V0Z" fill="white"/>
<path d="M74.0525 0H68.7625V3.16082H74.0525V0Z" fill="white"/>
<path d="M79.3398 0H74.0525V3.16082H79.3398V0Z" fill="white"/>
<path d="M84.6299 0H79.3398V3.16082H84.6299V0Z" fill="white"/>
<path d="M89.9199 0H84.6299V3.16082H89.9199V0Z" fill="white"/>
<path d="M95.21 0H89.9199V3.16082H95.21V0Z" fill="white"/>
<path d="M105.787 0H100.5V3.16082H105.787V0Z" fill="white"/>
<path d="M100.5 0H95.21V3.16082H100.5V0Z" fill="white"/>
<path d="M68.7625 0H63.4724V3.16082H68.7625V0Z" fill="white"/>
<path d="M116.367 0H111.077V3.16082H116.367V0Z" fill="white"/>
<path d="M111.077 0H105.787V3.16082H111.077V0Z" fill="white"/>
<path d="M121.657 0H116.367V3.16082H121.657V0Z" fill="white"/>
<path d="M132.235 0H126.948V3.16082H132.235V0Z" fill="white"/>
<path d="M126.948 0H121.657V3.16082H126.948V0Z" fill="white"/>
<path d="M174.552 0H169.262V3.16082H174.552V0Z" fill="white"/>
<path d="M137.525 0H132.235V3.16082H137.525V0Z" fill="white"/>
<path d="M148.105 0H142.815V3.16082H148.105V0Z" fill="white"/>
<path d="M142.815 0H137.525V3.16082H142.815V0Z" fill="white"/>
<path d="M153.392 0H148.105V3.16082H153.392V0Z" fill="white"/>
<path d="M158.682 0H153.392V3.16082H158.682V0Z" fill="white"/>
<path d="M163.972 0H158.682V3.16082H163.972V0Z" fill="white"/>
<path d="M169.262 0H163.972V3.16082H169.262V0Z" fill="white"/>
<path d="M26.4475 0H21.1575V3.16082H26.4475V0Z" fill="white"/>
<path d="M85.8333 27.6667H84.5V29H73.8333V27.6667H72.5V17H73.8333V15.6667H84.5V17H85.8333V27.6667ZM80.5 26.3333V18.3333H77.8333V26.3333H80.5ZM101.833 27.6667H100.5V29H89.8333V27.6667H88.5V15.6667H93.8333V26.3333H96.5V15.6667H101.833V27.6667ZM109.833 29H104.5V15.6667H109.833V29ZM125.833 18.3333H121.833V29H116.5V18.3333H112.5V15.6667H125.833V18.3333Z" fill="white"/>
</g>
<defs>
<clipPath id="clip0_214_2">
<rect width="201" height="47.4074" fill="white"/>
</clipPath>
</defs>
</svg>
