<svg width="810" height="91" viewBox="0 0 810 91" fill="none" xmlns="http://www.w3.org/2000/svg">
<path d="M58.3333 67.6667H53V73H10.3333V67.6667H5V25H10.3333V19.6667H53V25H58.3333V67.6667ZM37 62.3333V30.3333H26.3333V62.3333H37ZM122.333 67.6667H117V73H74.3333V67.6667H69V19.6667H90.3333V62.3333H101V19.6667H122.333V67.6667ZM154.333 73H133V19.6667H154.333V73ZM218.333 73H165V46.3333H170.333V41H197V30.3333H165V19.6667H218.333V46.3333H213V51.6667H186.333V62.3333H218.333V73ZM314.333 73H266.333V67.6667H261V25H266.333V19.6667H314.333V30.3333H282.333V62.3333H314.333V73ZM378.333 67.6667H373V73H330.333V67.6667H325V25H330.333V19.6667H373V25H378.333V67.6667ZM357 62.3333V30.3333H346.333V62.3333H357ZM474.333 73H453V30.3333H442.333V73H421V30.3333H410.333V73H389V19.6667H469V25H474.333V73ZM538.333 46.3333H533V51.6667H506.333V73H485V19.6667H533V25H538.333V46.3333ZM517 41V30.3333H506.333V41H517ZM602.333 73H549V19.6667H570.333V62.3333H602.333V73ZM666.333 73H618.333V67.6667H613V25H618.333V19.6667H666.333V30.3333H634.333V41H650.333V51.6667H634.333V62.3333H666.333V73ZM730.333 30.3333H714.333V73H693V30.3333H677V19.6667H730.333V30.3333ZM794.333 73H746.333V67.6667H741V25H746.333V19.6667H794.333V30.3333H762.333V41H778.333V51.6667H762.333V62.3333H794.333V73Z" fill="#030D30"/>
<path d="M58.3333 58.6667H53V64H10.3333V58.6667H5V16H10.3333V10.6667H53V16H58.3333V58.6667ZM37 53.3333V21.3333H26.3333V53.3333H37ZM122.333 58.6667H117V64H74.3333V58.6667H69V10.6667H90.3333V53.3333H101V10.6667H122.333V58.6667ZM154.333 64H133V10.6667H154.333V64ZM218.333 64H165V37.3333H170.333V32H197V21.3333H165V10.6667H218.333V37.3333H213V42.6667H186.333V53.3333H218.333V64ZM314.333 64H266.333V58.6667H261V16H266.333V10.6667H314.333V21.3333H282.333V53.3333H314.333V64ZM378.333 58.6667H373V64H330.333V58.6667H325V16H330.333V10.6667H373V16H378.333V58.6667ZM357 53.3333V21.3333H346.333V53.3333H357ZM474.333 64H453V21.3333H442.333V64H421V21.3333H410.333V64H389V10.6667H469V16H474.333V64ZM538.333 37.3333H533V42.6667H506.333V64H485V10.6667H533V16H538.333V37.3333ZM517 32V21.3333H506.333V32H517ZM602.333 64H549V10.6667H570.333V53.3333H602.333V64ZM666.333 64H618.333V58.6667H613V16H618.333V10.6667H666.333V21.3333H634.333V32H650.333V42.6667H634.333V53.3333H666.333V64ZM730.333 21.3333H714.333V64H693V21.3333H677V10.6667H730.333V21.3333ZM794.333 64H746.333V58.6667H741V16H746.333V10.6667H794.333V21.3333H762.333V32H778.333V42.6667H762.333V53.3333H794.333V64Z" fill="#F6E8E7"/>
</svg>
