<svg width="176" height="16" viewBox="0 0 176 16" fill="none" xmlns="http://www.w3.org/2000/svg">
<path d="M15.8457 7.5H14.3457V9H11.3457V15H5.3457V9H2.3457V7.5H0.845703V-7.15256e-07H6.8457V6H9.8457V-7.15256e-07H15.8457V7.5ZM33.8457 13.5H32.3457V15H20.3457V13.5H18.8457V1.5H20.3457V-7.15256e-07H32.3457V1.5H33.8457V13.5ZM27.8457 12V3H24.8457V12H27.8457ZM51.8457 13.5H50.3457V15H38.3457V13.5H36.8457V-7.15256e-07H42.8457V12H45.8457V-7.15256e-07H51.8457V13.5ZM69.8457 15H63.8457V9H60.8457V15H54.8457V-7.15256e-07H68.3457V1.5H69.8457V6H68.3457V9H69.8457V15ZM63.8457 6V3H60.8457V6H63.8457ZM96.8457 13.5H95.3457V15H81.8457V12H90.8457V9H83.3457V7.5H81.8457V1.5H83.3457V-7.15256e-07H96.8457V3H87.8457V6H95.3457V7.5H96.8457V13.5ZM114.846 15H101.346V13.5H99.8457V1.5H101.346V-7.15256e-07H114.846V3H105.846V12H114.846V15ZM132.846 13.5H131.346V15H119.346V13.5H117.846V1.5H119.346V-7.15256e-07H131.346V1.5H132.846V13.5ZM126.846 12V3H123.846V12H126.846ZM150.846 15H144.846V9H141.846V15H135.846V-7.15256e-07H149.346V1.5H150.846V6H149.346V9H150.846V15ZM144.846 6V3H141.846V6H144.846ZM168.846 15H155.346V13.5H153.846V1.5H155.346V-7.15256e-07H168.846V3H159.846V6H164.346V9H159.846V12H168.846V15ZM173.384 14.0244C173.384 13.8018 173.413 13.6143 173.472 13.4619C173.53 13.3037 173.609 13.1777 173.709 13.084C173.809 12.9844 173.926 12.9141 174.061 12.873C174.195 12.8262 174.342 12.8027 174.5 12.8027C174.652 12.8027 174.796 12.8262 174.931 12.873C175.071 12.9141 175.191 12.9844 175.291 13.084C175.391 13.1777 175.47 13.3037 175.528 13.4619C175.587 13.6143 175.616 13.8018 175.616 14.0244C175.616 14.2412 175.587 14.4287 175.528 14.5869C175.47 14.7393 175.391 14.8652 175.291 14.9648C175.191 15.0645 175.071 15.1377 174.931 15.1846C174.796 15.2314 174.652 15.2549 174.5 15.2549C174.342 15.2549 174.195 15.2314 174.061 15.1846C173.926 15.1377 173.809 15.0645 173.709 14.9648C173.609 14.8652 173.53 14.7393 173.472 14.5869C173.413 14.4287 173.384 14.2412 173.384 14.0244ZM173.384 6.3252C173.384 6.09668 173.413 5.90625 173.472 5.75391C173.53 5.5957 173.609 5.46973 173.709 5.37598C173.809 5.27637 173.926 5.20605 174.061 5.16504C174.195 5.12402 174.342 5.10352 174.5 5.10352C174.652 5.10352 174.796 5.12402 174.931 5.16504C175.071 5.20605 175.191 5.27637 175.291 5.37598C175.391 5.46973 175.47 5.5957 175.528 5.75391C175.587 5.90625 175.616 6.09668 175.616 6.3252C175.616 6.54199 175.587 6.72656 175.528 6.87891C175.47 7.03125 175.391 7.15723 175.291 7.25684C175.191 7.35645 175.071 7.42969 174.931 7.47656C174.796 7.52344 174.652 7.54688 174.5 7.54688C174.342 7.54688 174.195 7.52344 174.061 7.47656C173.926 7.42969 173.809 7.35645 173.709 7.25684C173.609 7.15723 173.53 7.03125 173.472 6.87891C173.413 6.72656 173.384 6.54199 173.384 6.3252Z" fill="#AFE6FF"/>
</svg>
